<?xml version="1.0" encoding="UTF-8" standalone="no"?>
<!DOCTYPE svg PUBLIC "-//W3C//DTD SVG 1.1//EN"
 "http://www.w3.org/Graphics/SVG/1.1/DTD/svg11.dtd">
<!-- Generated by graphviz version 10.0.1 (20240210.2158)
 -->
<!-- Title: arbolAST Pages: 1 -->
<svg width="740pt" height="404pt"
 viewBox="0.00 0.00 740.00 404.00" xmlns="http://www.w3.org/2000/svg" xmlns:xlink="http://www.w3.org/1999/xlink">
<g id="graph0" class="graph" transform="scale(1 1) rotate(0) translate(4 400)">
<title>arbolAST</title>
<polygon fill="white" stroke="none" points="-4,4 -4,-400 736,-400 736,4 -4,4"/>
<!-- n0 -->
<g id="node1" class="node">
<title>n0</title>
<ellipse fill="none" stroke="black" cx="326" cy="-378" rx="39.58" ry="18"/>
<text text-anchor="middle" x="326" y="-372.95" font-family="Times,serif" font-size="14.00">INICIO</text>
</g>
<!-- n1 -->
<g id="node2" class="node">
<title>n1</title>
<ellipse fill="none" stroke="black" cx="326" cy="-306" rx="83.6" ry="18"/>
<text text-anchor="middle" x="326" y="-300.95" font-family="Times,serif" font-size="14.00">INSTRUCCIONES</text>
</g>
<!-- n0&#45;&gt;n1 -->
<g id="edge1" class="edge">
<title>n0&#45;&gt;n1</title>
<path fill="none" stroke="black" d="M326,-359.7C326,-352.41 326,-343.73 326,-335.54"/>
<polygon fill="black" stroke="black" points="329.5,-335.62 326,-325.62 322.5,-335.62 329.5,-335.62"/>
</g>
<!-- n2 -->
<g id="node3" class="node">
<title>n2</title>
<ellipse fill="none" stroke="black" cx="213" cy="-234" rx="51.86" ry="18"/>
<text text-anchor="middle" x="213" y="-228.95" font-family="Times,serif" font-size="14.00">FUNCION</text>
</g>
<!-- n1&#45;&gt;n2 -->
<g id="edge2" class="edge">
<title>n1&#45;&gt;n2</title>
<path fill="none" stroke="black" d="M299.51,-288.59C283.8,-278.86 263.74,-266.43 246.89,-255.99"/>
<polygon fill="black" stroke="black" points="249.03,-253.2 238.68,-250.91 245.34,-259.15 249.03,-253.2"/>
</g>
<!-- n14 -->
<g id="node15" class="node">
<title>n14</title>
<ellipse fill="none" stroke="black" cx="518" cy="-234" rx="57.49" ry="18"/>
<text text-anchor="middle" x="518" y="-228.95" font-family="Times,serif" font-size="14.00">LLAMADA</text>
</g>
<!-- n1&#45;&gt;n14 -->
<g id="edge14" class="edge">
<title>n1&#45;&gt;n14</title>
<path fill="none" stroke="black" d="M367.19,-289.98C397.55,-278.92 438.9,-263.84 470.63,-252.27"/>
<polygon fill="black" stroke="black" points="471.8,-255.57 479.99,-248.86 469.4,-248.99 471.8,-255.57"/>
</g>
<!-- n3 -->
<g id="node4" class="node">
<title>n3</title>
<ellipse fill="none" stroke="black" cx="27" cy="-162" rx="27" ry="18"/>
<text text-anchor="middle" x="27" y="-156.95" font-family="Times,serif" font-size="14.00">int</text>
</g>
<!-- n2&#45;&gt;n3 -->
<g id="edge3" class="edge">
<title>n2&#45;&gt;n3</title>
<path fill="none" stroke="black" d="M175.93,-221.07C145.33,-210.94 100.93,-195.61 63,-180 61.48,-179.38 59.94,-178.72 58.38,-178.05"/>
<polygon fill="black" stroke="black" points="60.09,-174.98 49.54,-174.05 57.21,-181.36 60.09,-174.98"/>
</g>
<!-- n4 -->
<g id="node5" class="node">
<title>n4</title>
<ellipse fill="none" stroke="black" cx="99" cy="-162" rx="27.3" ry="18"/>
<text text-anchor="middle" x="99" y="-156.95" font-family="Times,serif" font-size="14.00">func</text>
</g>
<!-- n2&#45;&gt;n4 -->
<g id="edge4" class="edge">
<title>n2&#45;&gt;n4</title>
<path fill="none" stroke="black" d="M188.26,-217.81C170.58,-206.95 146.73,-192.31 128.12,-180.88"/>
<polygon fill="black" stroke="black" points="130.05,-177.96 119.69,-175.71 126.38,-183.92 130.05,-177.96"/>
</g>
<!-- n5 -->
<g id="node6" class="node">
<title>n5</title>
<ellipse fill="none" stroke="black" cx="171" cy="-162" rx="27" ry="18"/>
<text text-anchor="middle" x="171" y="-156.95" font-family="Times,serif" font-size="14.00">{</text>
</g>
<!-- n2&#45;&gt;n5 -->
<g id="edge5" class="edge">
<title>n2&#45;&gt;n5</title>
<path fill="none" stroke="black" d="M202.83,-216.05C197.89,-207.82 191.85,-197.76 186.37,-188.61"/>
<polygon fill="black" stroke="black" points="189.42,-186.9 181.28,-180.13 183.42,-190.5 189.42,-186.9"/>
</g>
<!-- n6 -->
<g id="node7" class="node">
<title>n6</title>
<ellipse fill="none" stroke="black" cx="254" cy="-162" rx="37.53" ry="18"/>
<text text-anchor="middle" x="254" y="-156.95" font-family="Times,serif" font-size="14.00">PRINT</text>
</g>
<!-- n2&#45;&gt;n6 -->
<g id="edge6" class="edge">
<title>n2&#45;&gt;n6</title>
<path fill="none" stroke="black" d="M222.92,-216.05C227.56,-208.14 233.18,-198.54 238.37,-189.69"/>
<polygon fill="black" stroke="black" points="241.37,-191.49 243.4,-181.1 235.33,-187.95 241.37,-191.49"/>
</g>
<!-- n13 -->
<g id="node14" class="node">
<title>n13</title>
<ellipse fill="none" stroke="black" cx="337" cy="-162" rx="27" ry="18"/>
<text text-anchor="middle" x="337" y="-156.95" font-family="Times,serif" font-size="14.00">}</text>
</g>
<!-- n2&#45;&gt;n13 -->
<g id="edge13" class="edge">
<title>n2&#45;&gt;n13</title>
<path fill="none" stroke="black" d="M239.3,-218.15C259.12,-206.96 286.34,-191.6 307.01,-179.93"/>
<polygon fill="black" stroke="black" points="308.56,-183.08 315.54,-175.11 305.11,-176.98 308.56,-183.08"/>
</g>
<!-- n7 -->
<g id="node8" class="node">
<title>n7</title>
<ellipse fill="none" stroke="black" cx="100" cy="-90" rx="35.49" ry="18"/>
<text text-anchor="middle" x="100" y="-84.95" font-family="Times,serif" font-size="14.00">println</text>
</g>
<!-- n6&#45;&gt;n7 -->
<g id="edge7" class="edge">
<title>n6&#45;&gt;n7</title>
<path fill="none" stroke="black" d="M227.53,-148.97C202.29,-137.49 164.08,-120.13 136.06,-107.39"/>
<polygon fill="black" stroke="black" points="137.8,-104.34 127.25,-103.39 134.9,-110.71 137.8,-104.34"/>
</g>
<!-- n8 -->
<g id="node9" class="node">
<title>n8</title>
<ellipse fill="none" stroke="black" cx="180" cy="-90" rx="27" ry="18"/>
<text text-anchor="middle" x="180" y="-84.95" font-family="Times,serif" font-size="14.00">(</text>
</g>
<!-- n6&#45;&gt;n8 -->
<g id="edge8" class="edge">
<title>n6&#45;&gt;n8</title>
<path fill="none" stroke="black" d="M237.58,-145.46C227.4,-135.84 214.17,-123.32 202.96,-112.72"/>
<polygon fill="black" stroke="black" points="205.64,-110.44 195.97,-106.11 200.83,-115.52 205.64,-110.44"/>
</g>
<!-- n9 -->
<g id="node10" class="node">
<title>n9</title>
<ellipse fill="none" stroke="black" cx="254" cy="-90" rx="28.83" ry="18"/>
<text text-anchor="middle" x="254" y="-84.95" font-family="Times,serif" font-size="14.00">Dato</text>
</g>
<!-- n6&#45;&gt;n9 -->
<g id="edge9" class="edge">
<title>n6&#45;&gt;n9</title>
<path fill="none" stroke="black" d="M254,-143.7C254,-136.41 254,-127.73 254,-119.54"/>
<polygon fill="black" stroke="black" points="257.5,-119.62 254,-109.62 250.5,-119.62 257.5,-119.62"/>
</g>
<!-- n11 -->
<g id="node12" class="node">
<title>n11</title>
<ellipse fill="none" stroke="black" cx="328" cy="-90" rx="27" ry="18"/>
<text text-anchor="middle" x="328" y="-84.95" font-family="Times,serif" font-size="14.00">)</text>
</g>
<!-- n6&#45;&gt;n11 -->
<g id="edge11" class="edge">
<title>n6&#45;&gt;n11</title>
<path fill="none" stroke="black" d="M270.42,-145.46C280.6,-135.84 293.83,-123.32 305.04,-112.72"/>
<polygon fill="black" stroke="black" points="307.17,-115.52 312.03,-106.11 302.36,-110.44 307.17,-115.52"/>
</g>
<!-- n12 -->
<g id="node13" class="node">
<title>n12</title>
<ellipse fill="none" stroke="black" cx="400" cy="-90" rx="27" ry="18"/>
<text text-anchor="middle" x="400" y="-84.95" font-family="Times,serif" font-size="14.00">;</text>
</g>
<!-- n6&#45;&gt;n12 -->
<g id="edge12" class="edge">
<title>n6&#45;&gt;n12</title>
<path fill="none" stroke="black" d="M279.77,-148.65C304.52,-136.78 341.96,-118.83 368.48,-106.11"/>
<polygon fill="black" stroke="black" points="369.89,-109.32 377.39,-101.84 366.86,-103.01 369.89,-109.32"/>
</g>
<!-- n10 -->
<g id="node11" class="node">
<title>n10</title>
<ellipse fill="none" stroke="black" cx="254" cy="-18" rx="27" ry="18"/>
<text text-anchor="middle" x="254" y="-12.95" font-family="Times,serif" font-size="14.00">2</text>
</g>
<!-- n9&#45;&gt;n10 -->
<g id="edge10" class="edge">
<title>n9&#45;&gt;n10</title>
<path fill="none" stroke="black" d="M254,-71.7C254,-64.41 254,-55.73 254,-47.54"/>
<polygon fill="black" stroke="black" points="257.5,-47.62 254,-37.62 250.5,-47.62 257.5,-47.62"/>
</g>
<!-- n15 -->
<g id="node16" class="node">
<title>n15</title>
<ellipse fill="none" stroke="black" cx="409" cy="-162" rx="27.3" ry="18"/>
<text text-anchor="middle" x="409" y="-156.95" font-family="Times,serif" font-size="14.00">func</text>
</g>
<!-- n14&#45;&gt;n15 -->
<g id="edge15" class="edge">
<title>n14&#45;&gt;n15</title>
<path fill="none" stroke="black" d="M493.54,-217.29C476.96,-206.64 454.98,-192.53 437.59,-181.36"/>
<polygon fill="black" stroke="black" points="439.54,-178.45 429.23,-175.99 435.76,-184.34 439.54,-178.45"/>
</g>
<!-- n16 -->
<g id="node17" class="node">
<title>n16</title>
<ellipse fill="none" stroke="black" cx="481" cy="-162" rx="27" ry="18"/>
<text text-anchor="middle" x="481" y="-156.95" font-family="Times,serif" font-size="14.00">(</text>
</g>
<!-- n14&#45;&gt;n16 -->
<g id="edge16" class="edge">
<title>n14&#45;&gt;n16</title>
<path fill="none" stroke="black" d="M509.04,-216.05C504.8,-208.03 499.64,-198.26 494.9,-189.3"/>
<polygon fill="black" stroke="black" points="498.09,-187.85 490.33,-180.65 491.91,-191.12 498.09,-187.85"/>
</g>
<!-- n17 -->
<g id="node18" class="node">
<title>n17</title>
<ellipse fill="none" stroke="black" cx="555" cy="-162" rx="28.83" ry="18"/>
<text text-anchor="middle" x="555" y="-156.95" font-family="Times,serif" font-size="14.00">Dato</text>
</g>
<!-- n14&#45;&gt;n17 -->
<g id="edge17" class="edge">
<title>n14&#45;&gt;n17</title>
<path fill="none" stroke="black" d="M526.96,-216.05C531.2,-208.03 536.36,-198.26 541.1,-189.3"/>
<polygon fill="black" stroke="black" points="544.09,-191.12 545.67,-180.65 537.91,-187.85 544.09,-191.12"/>
</g>
<!-- n19 -->
<g id="node20" class="node">
<title>n19</title>
<ellipse fill="none" stroke="black" cx="631" cy="-162" rx="28.83" ry="18"/>
<text text-anchor="middle" x="631" y="-156.95" font-family="Times,serif" font-size="14.00">Dato</text>
</g>
<!-- n14&#45;&gt;n19 -->
<g id="edge19" class="edge">
<title>n14&#45;&gt;n19</title>
<path fill="none" stroke="black" d="M543.08,-217.46C560.23,-206.84 583.03,-192.71 601.12,-181.51"/>
<polygon fill="black" stroke="black" points="602.94,-184.5 609.6,-176.26 599.25,-178.55 602.94,-184.5"/>
</g>
<!-- n21 -->
<g id="node22" class="node">
<title>n21</title>
<ellipse fill="none" stroke="black" cx="705" cy="-162" rx="27" ry="18"/>
<text text-anchor="middle" x="705" y="-156.95" font-family="Times,serif" font-size="14.00">)</text>
</g>
<!-- n14&#45;&gt;n21 -->
<g id="edge21" class="edge">
<title>n14&#45;&gt;n21</title>
<path fill="none" stroke="black" d="M557.21,-220.48C587.94,-210.37 631.6,-195.35 669,-180 670.52,-179.38 672.07,-178.72 673.62,-178.05"/>
<polygon fill="black" stroke="black" points="674.79,-181.36 682.46,-174.06 671.91,-174.98 674.79,-181.36"/>
</g>
<!-- n18 -->
<g id="node19" class="node">
<title>n18</title>
<ellipse fill="none" stroke="black" cx="555" cy="-90" rx="27" ry="18"/>
<text text-anchor="middle" x="555" y="-84.95" font-family="Times,serif" font-size="14.00">2</text>
</g>
<!-- n17&#45;&gt;n18 -->
<g id="edge18" class="edge">
<title>n17&#45;&gt;n18</title>
<path fill="none" stroke="black" d="M555,-143.7C555,-136.41 555,-127.73 555,-119.54"/>
<polygon fill="black" stroke="black" points="558.5,-119.62 555,-109.62 551.5,-119.62 558.5,-119.62"/>
</g>
<!-- n20 -->
<g id="node21" class="node">
<title>n20</title>
<ellipse fill="none" stroke="black" cx="631" cy="-90" rx="27" ry="18"/>
<text text-anchor="middle" x="631" y="-84.95" font-family="Times,serif" font-size="14.00">2</text>
</g>
<!-- n19&#45;&gt;n20 -->
<g id="edge20" class="edge">
<title>n19&#45;&gt;n20</title>
<path fill="none" stroke="black" d="M631,-143.7C631,-136.41 631,-127.73 631,-119.54"/>
<polygon fill="black" stroke="black" points="634.5,-119.62 631,-109.62 627.5,-119.62 634.5,-119.62"/>
</g>
</g>
</svg>
