<?xml version="1.0" encoding="UTF-8" standalone="no"?>
<!DOCTYPE svg PUBLIC "-//W3C//DTD SVG 1.1//EN"
 "http://www.w3.org/Graphics/SVG/1.1/DTD/svg11.dtd">
<!-- Generated by graphviz version 10.0.1 (20240210.2158)
 -->
<!-- Title: arbolAST Pages: 1 -->
<svg width="1254pt" height="476pt"
 viewBox="0.00 0.00 1254.00 476.00" xmlns="http://www.w3.org/2000/svg" xmlns:xlink="http://www.w3.org/1999/xlink">
<g id="graph0" class="graph" transform="scale(1 1) rotate(0) translate(4 472)">
<title>arbolAST</title>
<polygon fill="white" stroke="none" points="-4,4 -4,-472 1250,-472 1250,4 -4,4"/>
<!-- n0 -->
<g id="node1" class="node">
<title>n0</title>
<ellipse fill="none" stroke="black" cx="553" cy="-450" rx="39.58" ry="18"/>
<text text-anchor="middle" x="553" y="-444.95" font-family="Times,serif" font-size="14.00">INICIO</text>
</g>
<!-- n1 -->
<g id="node2" class="node">
<title>n1</title>
<ellipse fill="none" stroke="black" cx="553" cy="-378" rx="83.6" ry="18"/>
<text text-anchor="middle" x="553" y="-372.95" font-family="Times,serif" font-size="14.00">INSTRUCCIONES</text>
</g>
<!-- n0&#45;&gt;n1 -->
<g id="edge1" class="edge">
<title>n0&#45;&gt;n1</title>
<path fill="none" stroke="black" d="M553,-431.7C553,-424.41 553,-415.73 553,-407.54"/>
<polygon fill="black" stroke="black" points="556.5,-407.62 553,-397.62 549.5,-407.62 556.5,-407.62"/>
</g>
<!-- n2 -->
<g id="node3" class="node">
<title>n2</title>
<ellipse fill="none" stroke="black" cx="445" cy="-306" rx="51.86" ry="18"/>
<text text-anchor="middle" x="445" y="-300.95" font-family="Times,serif" font-size="14.00">FUNCION</text>
</g>
<!-- n1&#45;&gt;n2 -->
<g id="edge2" class="edge">
<title>n1&#45;&gt;n2</title>
<path fill="none" stroke="black" d="M527.41,-360.41C512.63,-350.84 493.89,-338.69 478.02,-328.4"/>
<polygon fill="black" stroke="black" points="480.13,-325.6 469.84,-323.1 476.32,-331.47 480.13,-325.6"/>
</g>
<!-- n26 -->
<g id="node27" class="node">
<title>n26</title>
<ellipse fill="none" stroke="black" cx="779" cy="-306" rx="76.94" ry="18"/>
<text text-anchor="middle" x="779" y="-300.95" font-family="Times,serif" font-size="14.00">DECLARACION</text>
</g>
<!-- n1&#45;&gt;n26 -->
<g id="edge26" class="edge">
<title>n1&#45;&gt;n26</title>
<path fill="none" stroke="black" d="M599.28,-362.67C635.13,-351.56 684.94,-336.14 723.03,-324.34"/>
<polygon fill="black" stroke="black" points="723.98,-327.71 732.49,-321.4 721.91,-321.02 723.98,-327.71"/>
</g>
<!-- n3 -->
<g id="node4" class="node">
<title>n3</title>
<ellipse fill="none" stroke="black" cx="265" cy="-234" rx="27" ry="18"/>
<text text-anchor="middle" x="265" y="-228.95" font-family="Times,serif" font-size="14.00">int</text>
</g>
<!-- n2&#45;&gt;n3 -->
<g id="edge3" class="edge">
<title>n2&#45;&gt;n3</title>
<path fill="none" stroke="black" d="M408.85,-292.69C379.52,-282.47 337.24,-267.19 301,-252 299.49,-251.37 297.94,-250.7 296.39,-250.02"/>
<polygon fill="black" stroke="black" points="298.11,-246.96 287.56,-246.01 295.21,-253.33 298.11,-246.96"/>
</g>
<!-- n4 -->
<g id="node5" class="node">
<title>n4</title>
<ellipse fill="none" stroke="black" cx="337" cy="-234" rx="27.3" ry="18"/>
<text text-anchor="middle" x="337" y="-228.95" font-family="Times,serif" font-size="14.00">mcd</text>
</g>
<!-- n2&#45;&gt;n4 -->
<g id="edge4" class="edge">
<title>n2&#45;&gt;n4</title>
<path fill="none" stroke="black" d="M421.3,-289.64C404.9,-279.01 382.98,-264.8 365.61,-253.54"/>
<polygon fill="black" stroke="black" points="367.54,-250.62 357.25,-248.12 363.73,-256.5 367.54,-250.62"/>
</g>
<!-- n5 -->
<g id="node6" class="node">
<title>n5</title>
<ellipse fill="none" stroke="black" cx="409" cy="-234" rx="27" ry="18"/>
<text text-anchor="middle" x="409" y="-228.95" font-family="Times,serif" font-size="14.00">{</text>
</g>
<!-- n2&#45;&gt;n5 -->
<g id="edge5" class="edge">
<title>n2&#45;&gt;n5</title>
<path fill="none" stroke="black" d="M436.29,-288.05C432.16,-280.03 427.13,-270.26 422.52,-261.3"/>
<polygon fill="black" stroke="black" points="425.76,-259.95 418.08,-252.65 419.54,-263.15 425.76,-259.95"/>
</g>
<!-- n6 -->
<g id="node7" class="node">
<title>n6</title>
<ellipse fill="none" stroke="black" cx="481" cy="-234" rx="27" ry="18"/>
<text text-anchor="middle" x="481" y="-228.95" font-family="Times,serif" font-size="14.00">IF</text>
</g>
<!-- n2&#45;&gt;n6 -->
<g id="edge6" class="edge">
<title>n2&#45;&gt;n6</title>
<path fill="none" stroke="black" d="M453.71,-288.05C457.84,-280.03 462.87,-270.26 467.48,-261.3"/>
<polygon fill="black" stroke="black" points="470.46,-263.15 471.92,-252.65 464.24,-259.95 470.46,-263.15"/>
</g>
<!-- n25 -->
<g id="node26" class="node">
<title>n25</title>
<ellipse fill="none" stroke="black" cx="553" cy="-234" rx="27" ry="18"/>
<text text-anchor="middle" x="553" y="-228.95" font-family="Times,serif" font-size="14.00">}</text>
</g>
<!-- n2&#45;&gt;n25 -->
<g id="edge25" class="edge">
<title>n2&#45;&gt;n25</title>
<path fill="none" stroke="black" d="M468.7,-289.64C485.1,-279.01 507.02,-264.8 524.39,-253.54"/>
<polygon fill="black" stroke="black" points="526.27,-256.5 532.75,-248.12 522.46,-250.62 526.27,-256.5"/>
</g>
<!-- n7 -->
<g id="node8" class="node">
<title>n7</title>
<ellipse fill="none" stroke="black" cx="27" cy="-162" rx="27" ry="18"/>
<text text-anchor="middle" x="27" y="-156.95" font-family="Times,serif" font-size="14.00">if</text>
</g>
<!-- n6&#45;&gt;n7 -->
<g id="edge7" class="edge">
<title>n6&#45;&gt;n7</title>
<path fill="none" stroke="black" d="M460.53,-221.84C455.57,-219.56 450.2,-217.43 445,-216 280.54,-170.91 227.46,-225.09 63,-180 61.38,-179.55 59.73,-179.04 58.09,-178.47"/>
<polygon fill="black" stroke="black" points="59.45,-175.25 48.87,-174.73 56.82,-181.73 59.45,-175.25"/>
</g>
<!-- n8 -->
<g id="node9" class="node">
<title>n8</title>
<ellipse fill="none" stroke="black" cx="99" cy="-162" rx="27" ry="18"/>
<text text-anchor="middle" x="99" y="-156.95" font-family="Times,serif" font-size="14.00">(</text>
</g>
<!-- n6&#45;&gt;n8 -->
<g id="edge8" class="edge">
<title>n6&#45;&gt;n8</title>
<path fill="none" stroke="black" d="M460.51,-221.92C455.55,-219.64 450.18,-217.48 445,-216 311.64,-177.88 268.36,-218.12 135,-180 133.38,-179.54 131.74,-179.01 130.1,-178.43"/>
<polygon fill="black" stroke="black" points="131.47,-175.21 120.89,-174.65 128.82,-181.68 131.47,-175.21"/>
</g>
<!-- n9 -->
<g id="node10" class="node">
<title>n9</title>
<ellipse fill="none" stroke="black" cx="194" cy="-162" rx="50.33" ry="18"/>
<text text-anchor="middle" x="194" y="-156.95" font-family="Times,serif" font-size="14.00">Relacional</text>
</g>
<!-- n6&#45;&gt;n9 -->
<g id="edge9" class="edge">
<title>n6&#45;&gt;n9</title>
<path fill="none" stroke="black" d="M460.43,-222.18C455.47,-219.89 450.13,-217.66 445,-216 362.4,-189.24 337.48,-200.04 253,-180 249.63,-179.2 246.17,-178.33 242.7,-177.42"/>
<polygon fill="black" stroke="black" points="243.66,-174.06 233.09,-174.82 241.82,-180.81 243.66,-174.06"/>
</g>
<!-- n14 -->
<g id="node15" class="node">
<title>n14</title>
<ellipse fill="none" stroke="black" cx="289" cy="-162" rx="27" ry="18"/>
<text text-anchor="middle" x="289" y="-156.95" font-family="Times,serif" font-size="14.00">)</text>
</g>
<!-- n6&#45;&gt;n14 -->
<g id="edge14" class="edge">
<title>n6&#45;&gt;n14</title>
<path fill="none" stroke="black" d="M459.91,-222.4C455.07,-220.14 449.9,-217.88 445,-216 393.01,-196.06 376.99,-199.94 325,-180 323.47,-179.41 321.91,-178.79 320.34,-178.14"/>
<polygon fill="black" stroke="black" points="322.04,-175.06 311.48,-174.22 319.21,-181.46 322.04,-175.06"/>
</g>
<!-- n15 -->
<g id="node16" class="node">
<title>n15</title>
<ellipse fill="none" stroke="black" cx="361" cy="-162" rx="27" ry="18"/>
<text text-anchor="middle" x="361" y="-156.95" font-family="Times,serif" font-size="14.00">{</text>
</g>
<!-- n6&#45;&gt;n15 -->
<g id="edge15" class="edge">
<title>n6&#45;&gt;n15</title>
<path fill="none" stroke="black" d="M461.18,-221.44C441.99,-210.24 412.64,-193.12 390.66,-180.3"/>
<polygon fill="black" stroke="black" points="392.55,-177.35 382.15,-175.34 389.03,-183.4 392.55,-177.35"/>
</g>
<!-- n16 -->
<g id="node17" class="node">
<title>n16</title>
<ellipse fill="none" stroke="black" cx="441" cy="-162" rx="35.49" ry="18"/>
<text text-anchor="middle" x="441" y="-156.95" font-family="Times,serif" font-size="14.00">println</text>
</g>
<!-- n6&#45;&gt;n16 -->
<g id="edge16" class="edge">
<title>n6&#45;&gt;n16</title>
<path fill="none" stroke="black" d="M471.72,-216.76C467.09,-208.67 461.38,-198.66 456.14,-189.49"/>
<polygon fill="black" stroke="black" points="459.26,-187.89 451.26,-180.95 453.18,-191.37 459.26,-187.89"/>
</g>
<!-- n17 -->
<g id="node18" class="node">
<title>n17</title>
<ellipse fill="none" stroke="black" cx="521" cy="-162" rx="27" ry="18"/>
<text text-anchor="middle" x="521" y="-156.95" font-family="Times,serif" font-size="14.00">(</text>
</g>
<!-- n6&#45;&gt;n17 -->
<g id="edge17" class="edge">
<title>n6&#45;&gt;n17</title>
<path fill="none" stroke="black" d="M490.28,-216.76C494.97,-208.55 500.79,-198.37 506.09,-189.09"/>
<polygon fill="black" stroke="black" points="509.1,-190.88 511.02,-180.46 503.02,-187.41 509.1,-190.88"/>
</g>
<!-- n18 -->
<g id="node19" class="node">
<title>n18</title>
<ellipse fill="none" stroke="black" cx="614" cy="-162" rx="47.77" ry="18"/>
<text text-anchor="middle" x="614" y="-156.95" font-family="Times,serif" font-size="14.00">RETURN</text>
</g>
<!-- n6&#45;&gt;n18 -->
<g id="edge18" class="edge">
<title>n6&#45;&gt;n18</title>
<path fill="none" stroke="black" d="M501.78,-222.06C521.85,-211.5 552.7,-195.26 576.97,-182.49"/>
<polygon fill="black" stroke="black" points="578.37,-185.71 585.59,-177.95 575.11,-179.52 578.37,-185.71"/>
</g>
<!-- n22 -->
<g id="node23" class="node">
<title>n22</title>
<ellipse fill="none" stroke="black" cx="707" cy="-162" rx="27" ry="18"/>
<text text-anchor="middle" x="707" y="-156.95" font-family="Times,serif" font-size="14.00">)</text>
</g>
<!-- n6&#45;&gt;n22 -->
<g id="edge22" class="edge">
<title>n6&#45;&gt;n22</title>
<path fill="none" stroke="black" d="M502.01,-222.17C506.85,-219.93 512.04,-217.73 517,-216 583.37,-192.86 604.63,-203.14 671,-180 672.55,-179.46 674.12,-178.87 675.7,-178.25"/>
<polygon fill="black" stroke="black" points="676.8,-181.59 684.6,-174.43 674.03,-175.16 676.8,-181.59"/>
</g>
<!-- n23 -->
<g id="node24" class="node">
<title>n23</title>
<ellipse fill="none" stroke="black" cx="779" cy="-162" rx="27" ry="18"/>
<text text-anchor="middle" x="779" y="-156.95" font-family="Times,serif" font-size="14.00">;</text>
</g>
<!-- n6&#45;&gt;n23 -->
<g id="edge23" class="edge">
<title>n6&#45;&gt;n23</title>
<path fill="none" stroke="black" d="M501.54,-222.08C506.49,-219.79 511.85,-217.59 517,-216 614.18,-185.98 645.82,-210.02 743,-180 744.61,-179.5 746.24,-178.95 747.87,-178.35"/>
<polygon fill="black" stroke="black" points="749.19,-181.59 757.06,-174.5 746.49,-175.13 749.19,-181.59"/>
</g>
<!-- n24 -->
<g id="node25" class="node">
<title>n24</title>
<ellipse fill="none" stroke="black" cx="851" cy="-162" rx="27" ry="18"/>
<text text-anchor="middle" x="851" y="-156.95" font-family="Times,serif" font-size="14.00">}</text>
</g>
<!-- n6&#45;&gt;n24 -->
<g id="edge24" class="edge">
<title>n6&#45;&gt;n24</title>
<path fill="none" stroke="black" d="M501.5,-221.94C506.45,-219.66 511.82,-217.49 517,-216 645.19,-179.04 686.81,-216.96 815,-180 816.62,-179.53 818.26,-179 819.89,-178.42"/>
<polygon fill="black" stroke="black" points="821.18,-181.67 829.1,-174.64 818.52,-175.2 821.18,-181.67"/>
</g>
<!-- n10 -->
<g id="node11" class="node">
<title>n10</title>
<ellipse fill="none" stroke="black" cx="93" cy="-90" rx="56.47" ry="18"/>
<text text-anchor="middle" x="93" y="-84.95" font-family="Times,serif" font-size="14.00">VARIABLE</text>
</g>
<!-- n9&#45;&gt;n10 -->
<g id="edge10" class="edge">
<title>n9&#45;&gt;n10</title>
<path fill="none" stroke="black" d="M171.58,-145.46C157.82,-135.93 139.97,-123.56 124.77,-113.02"/>
<polygon fill="black" stroke="black" points="127.16,-110.42 116.95,-107.6 123.17,-116.17 127.16,-110.42"/>
</g>
<!-- n11 -->
<g id="node12" class="node">
<title>n11</title>
<ellipse fill="none" stroke="black" cx="194" cy="-90" rx="27" ry="18"/>
<text text-anchor="middle" x="194" y="-84.95" font-family="Times,serif" font-size="14.00">==</text>
</g>
<!-- n9&#45;&gt;n11 -->
<g id="edge11" class="edge">
<title>n9&#45;&gt;n11</title>
<path fill="none" stroke="black" d="M194,-143.7C194,-136.41 194,-127.73 194,-119.54"/>
<polygon fill="black" stroke="black" points="197.5,-119.62 194,-109.62 190.5,-119.62 197.5,-119.62"/>
</g>
<!-- n12 -->
<g id="node13" class="node">
<title>n12</title>
<ellipse fill="none" stroke="black" cx="268" cy="-90" rx="28.83" ry="18"/>
<text text-anchor="middle" x="268" y="-84.95" font-family="Times,serif" font-size="14.00">Dato</text>
</g>
<!-- n9&#45;&gt;n12 -->
<g id="edge12" class="edge">
<title>n9&#45;&gt;n12</title>
<path fill="none" stroke="black" d="M211.16,-144.76C221.14,-135.33 233.84,-123.32 244.7,-113.04"/>
<polygon fill="black" stroke="black" points="246.98,-115.7 251.84,-106.29 242.17,-110.62 246.98,-115.7"/>
</g>
<!-- n13 -->
<g id="node14" class="node">
<title>n13</title>
<ellipse fill="none" stroke="black" cx="268" cy="-18" rx="27" ry="18"/>
<text text-anchor="middle" x="268" y="-12.95" font-family="Times,serif" font-size="14.00">0</text>
</g>
<!-- n12&#45;&gt;n13 -->
<g id="edge13" class="edge">
<title>n12&#45;&gt;n13</title>
<path fill="none" stroke="black" d="M268,-71.7C268,-64.41 268,-55.73 268,-47.54"/>
<polygon fill="black" stroke="black" points="271.5,-47.62 268,-37.62 264.5,-47.62 271.5,-47.62"/>
</g>
<!-- n19 -->
<g id="node20" class="node">
<title>n19</title>
<ellipse fill="none" stroke="black" cx="507" cy="-90" rx="32.93" ry="18"/>
<text text-anchor="middle" x="507" y="-84.95" font-family="Times,serif" font-size="14.00">return</text>
</g>
<!-- n18&#45;&gt;n19 -->
<g id="edge19" class="edge">
<title>n18&#45;&gt;n19</title>
<path fill="none" stroke="black" d="M590.78,-145.81C575.06,-135.53 554.14,-121.84 537.13,-110.71"/>
<polygon fill="black" stroke="black" points="539.19,-107.88 528.91,-105.33 535.36,-113.74 539.19,-107.88"/>
</g>
<!-- n20 -->
<g id="node21" class="node">
<title>n20</title>
<ellipse fill="none" stroke="black" cx="614" cy="-90" rx="56.47" ry="18"/>
<text text-anchor="middle" x="614" y="-84.95" font-family="Times,serif" font-size="14.00">VARIABLE</text>
</g>
<!-- n18&#45;&gt;n20 -->
<g id="edge20" class="edge">
<title>n18&#45;&gt;n20</title>
<path fill="none" stroke="black" d="M614,-143.7C614,-136.41 614,-127.73 614,-119.54"/>
<polygon fill="black" stroke="black" points="617.5,-119.62 614,-109.62 610.5,-119.62 617.5,-119.62"/>
</g>
<!-- n21 -->
<g id="node22" class="node">
<title>n21</title>
<ellipse fill="none" stroke="black" cx="715" cy="-90" rx="27" ry="18"/>
<text text-anchor="middle" x="715" y="-84.95" font-family="Times,serif" font-size="14.00">;</text>
</g>
<!-- n18&#45;&gt;n21 -->
<g id="edge21" class="edge">
<title>n18&#45;&gt;n21</title>
<path fill="none" stroke="black" d="M635.92,-145.81C651.14,-135.26 671.54,-121.12 687.81,-109.84"/>
<polygon fill="black" stroke="black" points="689.37,-113.02 695.6,-104.45 685.38,-107.27 689.37,-113.02"/>
</g>
<!-- n27 -->
<g id="node28" class="node">
<title>n27</title>
<ellipse fill="none" stroke="black" cx="707" cy="-234" rx="27" ry="18"/>
<text text-anchor="middle" x="707" y="-228.95" font-family="Times,serif" font-size="14.00">int</text>
</g>
<!-- n26&#45;&gt;n27 -->
<g id="edge27" class="edge">
<title>n26&#45;&gt;n27</title>
<path fill="none" stroke="black" d="M761.57,-288.05C752.08,-278.82 740.21,-267.29 729.97,-257.33"/>
<polygon fill="black" stroke="black" points="732.53,-254.94 722.92,-250.48 727.65,-259.96 732.53,-254.94"/>
</g>
<!-- n28 -->
<g id="node29" class="node">
<title>n28</title>
<ellipse fill="none" stroke="black" cx="779" cy="-234" rx="27" ry="18"/>
<text text-anchor="middle" x="779" y="-228.95" font-family="Times,serif" font-size="14.00">n</text>
</g>
<!-- n26&#45;&gt;n28 -->
<g id="edge28" class="edge">
<title>n26&#45;&gt;n28</title>
<path fill="none" stroke="black" d="M779,-287.7C779,-280.41 779,-271.73 779,-263.54"/>
<polygon fill="black" stroke="black" points="782.5,-263.62 779,-253.62 775.5,-263.62 782.5,-263.62"/>
</g>
<!-- n29 -->
<g id="node30" class="node">
<title>n29</title>
<ellipse fill="none" stroke="black" cx="851" cy="-234" rx="27" ry="18"/>
<text text-anchor="middle" x="851" y="-228.95" font-family="Times,serif" font-size="14.00">=</text>
</g>
<!-- n26&#45;&gt;n29 -->
<g id="edge29" class="edge">
<title>n26&#45;&gt;n29</title>
<path fill="none" stroke="black" d="M796.43,-288.05C805.92,-278.82 817.79,-267.29 828.03,-257.33"/>
<polygon fill="black" stroke="black" points="830.35,-259.96 835.08,-250.48 825.47,-254.94 830.35,-259.96"/>
</g>
<!-- n30 -->
<g id="node31" class="node">
<title>n30</title>
<ellipse fill="none" stroke="black" cx="1032" cy="-234" rx="57.49" ry="18"/>
<text text-anchor="middle" x="1032" y="-228.95" font-family="Times,serif" font-size="14.00">LLAMADA</text>
</g>
<!-- n26&#45;&gt;n30 -->
<g id="edge30" class="edge">
<title>n26&#45;&gt;n30</title>
<path fill="none" stroke="black" d="M827.48,-291.59C870.87,-279.58 934.34,-262.02 979.04,-249.65"/>
<polygon fill="black" stroke="black" points="979.81,-253.07 988.52,-247.03 977.95,-246.32 979.81,-253.07"/>
</g>
<!-- n31 -->
<g id="node32" class="node">
<title>n31</title>
<ellipse fill="none" stroke="black" cx="923" cy="-162" rx="27.3" ry="18"/>
<text text-anchor="middle" x="923" y="-156.95" font-family="Times,serif" font-size="14.00">mcd</text>
</g>
<!-- n30&#45;&gt;n31 -->
<g id="edge31" class="edge">
<title>n30&#45;&gt;n31</title>
<path fill="none" stroke="black" d="M1007.54,-217.29C990.96,-206.64 968.98,-192.53 951.59,-181.36"/>
<polygon fill="black" stroke="black" points="953.54,-178.45 943.23,-175.99 949.76,-184.34 953.54,-178.45"/>
</g>
<!-- n32 -->
<g id="node33" class="node">
<title>n32</title>
<ellipse fill="none" stroke="black" cx="995" cy="-162" rx="27" ry="18"/>
<text text-anchor="middle" x="995" y="-156.95" font-family="Times,serif" font-size="14.00">(</text>
</g>
<!-- n30&#45;&gt;n32 -->
<g id="edge32" class="edge">
<title>n30&#45;&gt;n32</title>
<path fill="none" stroke="black" d="M1023.04,-216.05C1018.8,-208.03 1013.64,-198.26 1008.9,-189.3"/>
<polygon fill="black" stroke="black" points="1012.09,-187.85 1004.33,-180.65 1005.91,-191.12 1012.09,-187.85"/>
</g>
<!-- n33 -->
<g id="node34" class="node">
<title>n33</title>
<ellipse fill="none" stroke="black" cx="1069" cy="-162" rx="28.83" ry="18"/>
<text text-anchor="middle" x="1069" y="-156.95" font-family="Times,serif" font-size="14.00">Dato</text>
</g>
<!-- n30&#45;&gt;n33 -->
<g id="edge33" class="edge">
<title>n30&#45;&gt;n33</title>
<path fill="none" stroke="black" d="M1040.96,-216.05C1045.2,-208.03 1050.36,-198.26 1055.1,-189.3"/>
<polygon fill="black" stroke="black" points="1058.09,-191.12 1059.67,-180.65 1051.91,-187.85 1058.09,-191.12"/>
</g>
<!-- n35 -->
<g id="node36" class="node">
<title>n35</title>
<ellipse fill="none" stroke="black" cx="1145" cy="-162" rx="28.83" ry="18"/>
<text text-anchor="middle" x="1145" y="-156.95" font-family="Times,serif" font-size="14.00">Dato</text>
</g>
<!-- n30&#45;&gt;n35 -->
<g id="edge35" class="edge">
<title>n30&#45;&gt;n35</title>
<path fill="none" stroke="black" d="M1057.08,-217.46C1074.23,-206.84 1097.03,-192.71 1115.12,-181.51"/>
<polygon fill="black" stroke="black" points="1116.94,-184.5 1123.6,-176.26 1113.25,-178.55 1116.94,-184.5"/>
</g>
<!-- n37 -->
<g id="node38" class="node">
<title>n37</title>
<ellipse fill="none" stroke="black" cx="1219" cy="-162" rx="27" ry="18"/>
<text text-anchor="middle" x="1219" y="-156.95" font-family="Times,serif" font-size="14.00">)</text>
</g>
<!-- n30&#45;&gt;n37 -->
<g id="edge37" class="edge">
<title>n30&#45;&gt;n37</title>
<path fill="none" stroke="black" d="M1071.21,-220.48C1101.94,-210.37 1145.6,-195.35 1183,-180 1184.52,-179.38 1186.07,-178.72 1187.62,-178.05"/>
<polygon fill="black" stroke="black" points="1188.79,-181.36 1196.46,-174.06 1185.91,-174.98 1188.79,-181.36"/>
</g>
<!-- n34 -->
<g id="node35" class="node">
<title>n34</title>
<ellipse fill="none" stroke="black" cx="1069" cy="-90" rx="27" ry="18"/>
<text text-anchor="middle" x="1069" y="-84.95" font-family="Times,serif" font-size="14.00">18</text>
</g>
<!-- n33&#45;&gt;n34 -->
<g id="edge34" class="edge">
<title>n33&#45;&gt;n34</title>
<path fill="none" stroke="black" d="M1069,-143.7C1069,-136.41 1069,-127.73 1069,-119.54"/>
<polygon fill="black" stroke="black" points="1072.5,-119.62 1069,-109.62 1065.5,-119.62 1072.5,-119.62"/>
</g>
<!-- n36 -->
<g id="node37" class="node">
<title>n36</title>
<ellipse fill="none" stroke="black" cx="1145" cy="-90" rx="27" ry="18"/>
<text text-anchor="middle" x="1145" y="-84.95" font-family="Times,serif" font-size="14.00">48</text>
</g>
<!-- n35&#45;&gt;n36 -->
<g id="edge36" class="edge">
<title>n35&#45;&gt;n36</title>
<path fill="none" stroke="black" d="M1145,-143.7C1145,-136.41 1145,-127.73 1145,-119.54"/>
<polygon fill="black" stroke="black" points="1148.5,-119.62 1145,-109.62 1141.5,-119.62 1148.5,-119.62"/>
</g>
</g>
</svg>
