<?xml version="1.0" encoding="UTF-8" standalone="no"?>
<!DOCTYPE svg PUBLIC "-//W3C//DTD SVG 1.1//EN"
 "http://www.w3.org/Graphics/SVG/1.1/DTD/svg11.dtd">
<!-- Generated by graphviz version 10.0.1 (20240210.2158)
 -->
<!-- Title: arbolAST Pages: 1 -->
<svg width="284pt" height="332pt"
 viewBox="0.00 0.00 283.83 332.00" xmlns="http://www.w3.org/2000/svg" xmlns:xlink="http://www.w3.org/1999/xlink">
<g id="graph0" class="graph" transform="scale(1 1) rotate(0) translate(4 328)">
<title>arbolAST</title>
<polygon fill="white" stroke="none" points="-4,4 -4,-328 279.83,-328 279.83,4 -4,4"/>
<!-- n0 -->
<g id="node1" class="node">
<title>n0</title>
<ellipse fill="none" stroke="black" cx="136" cy="-306" rx="39.58" ry="18"/>
<text text-anchor="middle" x="136" y="-300.95" font-family="Times,serif" font-size="14.00">INICIO</text>
</g>
<!-- n1 -->
<g id="node2" class="node">
<title>n1</title>
<ellipse fill="none" stroke="black" cx="136" cy="-234" rx="83.6" ry="18"/>
<text text-anchor="middle" x="136" y="-228.95" font-family="Times,serif" font-size="14.00">INSTRUCCIONES</text>
</g>
<!-- n0&#45;&gt;n1 -->
<g id="edge1" class="edge">
<title>n0&#45;&gt;n1</title>
<path fill="none" stroke="black" d="M136,-287.7C136,-280.41 136,-271.73 136,-263.54"/>
<polygon fill="black" stroke="black" points="139.5,-263.62 136,-253.62 132.5,-263.62 139.5,-263.62"/>
</g>
<!-- n2 -->
<g id="node3" class="node">
<title>n2</title>
<ellipse fill="none" stroke="black" cx="136" cy="-162" rx="76.94" ry="18"/>
<text text-anchor="middle" x="136" y="-156.95" font-family="Times,serif" font-size="14.00">DECLARACION</text>
</g>
<!-- n1&#45;&gt;n2 -->
<g id="edge2" class="edge">
<title>n1&#45;&gt;n2</title>
<path fill="none" stroke="black" d="M136,-215.7C136,-208.41 136,-199.73 136,-191.54"/>
<polygon fill="black" stroke="black" points="139.5,-191.62 136,-181.62 132.5,-191.62 139.5,-191.62"/>
</g>
<!-- n3 -->
<g id="node4" class="node">
<title>n3</title>
<ellipse fill="none" stroke="black" cx="27" cy="-90" rx="27" ry="18"/>
<text text-anchor="middle" x="27" y="-84.95" font-family="Times,serif" font-size="14.00">int</text>
</g>
<!-- n2&#45;&gt;n3 -->
<g id="edge3" class="edge">
<title>n2&#45;&gt;n3</title>
<path fill="none" stroke="black" d="M110.44,-144.59C93.93,-133.98 72.41,-120.17 55.37,-109.22"/>
<polygon fill="black" stroke="black" points="57.5,-106.43 47.19,-103.97 53.72,-112.32 57.5,-106.43"/>
</g>
<!-- n4 -->
<g id="node5" class="node">
<title>n4</title>
<ellipse fill="none" stroke="black" cx="100" cy="-90" rx="27.81" ry="18"/>
<text text-anchor="middle" x="100" y="-84.95" font-family="Times,serif" font-size="14.00">num</text>
</g>
<!-- n2&#45;&gt;n4 -->
<g id="edge4" class="edge">
<title>n2&#45;&gt;n4</title>
<path fill="none" stroke="black" d="M127.1,-143.7C123.07,-135.87 118.22,-126.44 113.75,-117.73"/>
<polygon fill="black" stroke="black" points="116.93,-116.26 109.24,-108.97 110.7,-119.46 116.93,-116.26"/>
</g>
<!-- n5 -->
<g id="node6" class="node">
<title>n5</title>
<ellipse fill="none" stroke="black" cx="173" cy="-90" rx="27" ry="18"/>
<text text-anchor="middle" x="173" y="-84.95" font-family="Times,serif" font-size="14.00">=</text>
</g>
<!-- n2&#45;&gt;n5 -->
<g id="edge5" class="edge">
<title>n2&#45;&gt;n5</title>
<path fill="none" stroke="black" d="M145.15,-143.7C149.39,-135.67 154.53,-125.95 159.23,-117.05"/>
<polygon fill="black" stroke="black" points="162.18,-118.96 163.76,-108.48 155.99,-115.69 162.18,-118.96"/>
</g>
<!-- n6 -->
<g id="node7" class="node">
<title>n6</title>
<ellipse fill="none" stroke="black" cx="247" cy="-90" rx="28.83" ry="18"/>
<text text-anchor="middle" x="247" y="-84.95" font-family="Times,serif" font-size="14.00">Dato</text>
</g>
<!-- n2&#45;&gt;n6 -->
<g id="edge6" class="edge">
<title>n2&#45;&gt;n6</title>
<path fill="none" stroke="black" d="M162.02,-144.59C178.74,-134.05 200.47,-120.34 217.78,-109.43"/>
<polygon fill="black" stroke="black" points="219.51,-112.47 226.1,-104.18 215.78,-106.55 219.51,-112.47"/>
</g>
<!-- n7 -->
<g id="node8" class="node">
<title>n7</title>
<ellipse fill="none" stroke="black" cx="247" cy="-18" rx="27" ry="18"/>
<text text-anchor="middle" x="247" y="-12.95" font-family="Times,serif" font-size="14.00">2</text>
</g>
<!-- n6&#45;&gt;n7 -->
<g id="edge7" class="edge">
<title>n6&#45;&gt;n7</title>
<path fill="none" stroke="black" d="M247,-71.7C247,-64.41 247,-55.73 247,-47.54"/>
<polygon fill="black" stroke="black" points="250.5,-47.62 247,-37.62 243.5,-47.62 250.5,-47.62"/>
</g>
</g>
</svg>
