<?xml version="1.0" encoding="UTF-8" standalone="no"?>
<!DOCTYPE svg PUBLIC "-//W3C//DTD SVG 1.1//EN"
 "http://www.w3.org/Graphics/SVG/1.1/DTD/svg11.dtd">
<!-- Generated by graphviz version 10.0.1 (20240210.2158)
 -->
<!-- Title: arbolAST Pages: 1 -->
<svg width="991pt" height="476pt"
 viewBox="0.00 0.00 991.00 476.00" xmlns="http://www.w3.org/2000/svg" xmlns:xlink="http://www.w3.org/1999/xlink">
<g id="graph0" class="graph" transform="scale(1 1) rotate(0) translate(4 472)">
<title>arbolAST</title>
<polygon fill="white" stroke="none" points="-4,4 -4,-472 987,-472 987,4 -4,4"/>
<!-- n0 -->
<g id="node1" class="node">
<title>n0</title>
<ellipse fill="none" stroke="black" cx="568" cy="-450" rx="39.58" ry="18"/>
<text text-anchor="middle" x="568" y="-444.95" font-family="Times,serif" font-size="14.00">INICIO</text>
</g>
<!-- n1 -->
<g id="node2" class="node">
<title>n1</title>
<ellipse fill="none" stroke="black" cx="568" cy="-378" rx="83.6" ry="18"/>
<text text-anchor="middle" x="568" y="-372.95" font-family="Times,serif" font-size="14.00">INSTRUCCIONES</text>
</g>
<!-- n0&#45;&gt;n1 -->
<g id="edge1" class="edge">
<title>n0&#45;&gt;n1</title>
<path fill="none" stroke="black" d="M568,-431.7C568,-424.41 568,-415.73 568,-407.54"/>
<polygon fill="black" stroke="black" points="571.5,-407.62 568,-397.62 564.5,-407.62 571.5,-407.62"/>
</g>
<!-- n2 -->
<g id="node3" class="node">
<title>n2</title>
<ellipse fill="none" stroke="black" cx="445" cy="-306" rx="51.86" ry="18"/>
<text text-anchor="middle" x="445" y="-300.95" font-family="Times,serif" font-size="14.00">FUNCION</text>
</g>
<!-- n1&#45;&gt;n2 -->
<g id="edge2" class="edge">
<title>n1&#45;&gt;n2</title>
<path fill="none" stroke="black" d="M539.47,-360.76C522.11,-350.88 499.76,-338.17 481.16,-327.58"/>
<polygon fill="black" stroke="black" points="483.01,-324.61 472.59,-322.7 479.55,-330.69 483.01,-324.61"/>
</g>
<!-- n26 -->
<g id="node27" class="node">
<title>n26</title>
<ellipse fill="none" stroke="black" cx="808" cy="-306" rx="57.49" ry="18"/>
<text text-anchor="middle" x="808" y="-300.95" font-family="Times,serif" font-size="14.00">LLAMADA</text>
</g>
<!-- n1&#45;&gt;n26 -->
<g id="edge26" class="edge">
<title>n1&#45;&gt;n26</title>
<path fill="none" stroke="black" d="M616.28,-362.92C656.78,-351.11 714.49,-334.27 756,-322.17"/>
<polygon fill="black" stroke="black" points="756.91,-325.55 765.53,-319.39 754.95,-318.83 756.91,-325.55"/>
</g>
<!-- n3 -->
<g id="node4" class="node">
<title>n3</title>
<ellipse fill="none" stroke="black" cx="235" cy="-234" rx="27" ry="18"/>
<text text-anchor="middle" x="235" y="-228.95" font-family="Times,serif" font-size="14.00">int</text>
</g>
<!-- n2&#45;&gt;n3 -->
<g id="edge3" class="edge">
<title>n2&#45;&gt;n3</title>
<path fill="none" stroke="black" d="M404.35,-294.42C368.72,-284.73 315.78,-269.29 271,-252 269.47,-251.41 267.91,-250.78 266.35,-250.13"/>
<polygon fill="black" stroke="black" points="268.04,-247.05 257.48,-246.2 265.21,-253.45 268.04,-247.05"/>
</g>
<!-- n4 -->
<g id="node5" class="node">
<title>n4</title>
<ellipse fill="none" stroke="black" cx="322" cy="-234" rx="41.63" ry="18"/>
<text text-anchor="middle" x="322" y="-228.95" font-family="Times,serif" font-size="14.00">factorial</text>
</g>
<!-- n2&#45;&gt;n4 -->
<g id="edge4" class="edge">
<title>n2&#45;&gt;n4</title>
<path fill="none" stroke="black" d="M418.91,-290.15C400.66,-279.77 376.09,-265.78 356.26,-254.49"/>
<polygon fill="black" stroke="black" points="358.11,-251.52 347.69,-249.62 354.65,-257.61 358.11,-251.52"/>
</g>
<!-- n5 -->
<g id="node6" class="node">
<title>n5</title>
<ellipse fill="none" stroke="black" cx="409" cy="-234" rx="27" ry="18"/>
<text text-anchor="middle" x="409" y="-228.95" font-family="Times,serif" font-size="14.00">{</text>
</g>
<!-- n2&#45;&gt;n5 -->
<g id="edge5" class="edge">
<title>n2&#45;&gt;n5</title>
<path fill="none" stroke="black" d="M436.29,-288.05C432.16,-280.03 427.13,-270.26 422.52,-261.3"/>
<polygon fill="black" stroke="black" points="425.76,-259.95 418.08,-252.65 419.54,-263.15 425.76,-259.95"/>
</g>
<!-- n6 -->
<g id="node7" class="node">
<title>n6</title>
<ellipse fill="none" stroke="black" cx="481" cy="-234" rx="27" ry="18"/>
<text text-anchor="middle" x="481" y="-228.95" font-family="Times,serif" font-size="14.00">IF</text>
</g>
<!-- n2&#45;&gt;n6 -->
<g id="edge6" class="edge">
<title>n2&#45;&gt;n6</title>
<path fill="none" stroke="black" d="M453.71,-288.05C457.84,-280.03 462.87,-270.26 467.48,-261.3"/>
<polygon fill="black" stroke="black" points="470.46,-263.15 471.92,-252.65 464.24,-259.95 470.46,-263.15"/>
</g>
<!-- n25 -->
<g id="node26" class="node">
<title>n25</title>
<ellipse fill="none" stroke="black" cx="553" cy="-234" rx="27" ry="18"/>
<text text-anchor="middle" x="553" y="-228.95" font-family="Times,serif" font-size="14.00">}</text>
</g>
<!-- n2&#45;&gt;n25 -->
<g id="edge25" class="edge">
<title>n2&#45;&gt;n25</title>
<path fill="none" stroke="black" d="M468.7,-289.64C485.1,-279.01 507.02,-264.8 524.39,-253.54"/>
<polygon fill="black" stroke="black" points="526.27,-256.5 532.75,-248.12 522.46,-250.62 526.27,-256.5"/>
</g>
<!-- n7 -->
<g id="node8" class="node">
<title>n7</title>
<ellipse fill="none" stroke="black" cx="27" cy="-162" rx="27" ry="18"/>
<text text-anchor="middle" x="27" y="-156.95" font-family="Times,serif" font-size="14.00">if</text>
</g>
<!-- n6&#45;&gt;n7 -->
<g id="edge7" class="edge">
<title>n6&#45;&gt;n7</title>
<path fill="none" stroke="black" d="M460.53,-221.84C455.57,-219.56 450.2,-217.43 445,-216 280.54,-170.91 227.46,-225.09 63,-180 61.38,-179.55 59.73,-179.04 58.09,-178.47"/>
<polygon fill="black" stroke="black" points="59.45,-175.25 48.87,-174.73 56.82,-181.73 59.45,-175.25"/>
</g>
<!-- n8 -->
<g id="node9" class="node">
<title>n8</title>
<ellipse fill="none" stroke="black" cx="99" cy="-162" rx="27" ry="18"/>
<text text-anchor="middle" x="99" y="-156.95" font-family="Times,serif" font-size="14.00">(</text>
</g>
<!-- n6&#45;&gt;n8 -->
<g id="edge8" class="edge">
<title>n6&#45;&gt;n8</title>
<path fill="none" stroke="black" d="M460.51,-221.92C455.55,-219.64 450.18,-217.48 445,-216 311.64,-177.88 268.36,-218.12 135,-180 133.38,-179.54 131.74,-179.01 130.1,-178.43"/>
<polygon fill="black" stroke="black" points="131.47,-175.21 120.89,-174.65 128.82,-181.68 131.47,-175.21"/>
</g>
<!-- n9 -->
<g id="node10" class="node">
<title>n9</title>
<ellipse fill="none" stroke="black" cx="194" cy="-162" rx="50.33" ry="18"/>
<text text-anchor="middle" x="194" y="-156.95" font-family="Times,serif" font-size="14.00">Relacional</text>
</g>
<!-- n6&#45;&gt;n9 -->
<g id="edge9" class="edge">
<title>n6&#45;&gt;n9</title>
<path fill="none" stroke="black" d="M460.43,-222.18C455.47,-219.89 450.13,-217.66 445,-216 362.4,-189.24 337.48,-200.04 253,-180 249.63,-179.2 246.17,-178.33 242.7,-177.42"/>
<polygon fill="black" stroke="black" points="243.66,-174.06 233.09,-174.82 241.82,-180.81 243.66,-174.06"/>
</g>
<!-- n15 -->
<g id="node16" class="node">
<title>n15</title>
<ellipse fill="none" stroke="black" cx="289" cy="-162" rx="27" ry="18"/>
<text text-anchor="middle" x="289" y="-156.95" font-family="Times,serif" font-size="14.00">)</text>
</g>
<!-- n6&#45;&gt;n15 -->
<g id="edge15" class="edge">
<title>n6&#45;&gt;n15</title>
<path fill="none" stroke="black" d="M459.91,-222.4C455.07,-220.14 449.9,-217.88 445,-216 393.01,-196.06 376.99,-199.94 325,-180 323.47,-179.41 321.91,-178.79 320.34,-178.14"/>
<polygon fill="black" stroke="black" points="322.04,-175.06 311.48,-174.22 319.21,-181.46 322.04,-175.06"/>
</g>
<!-- n16 -->
<g id="node17" class="node">
<title>n16</title>
<ellipse fill="none" stroke="black" cx="361" cy="-162" rx="27" ry="18"/>
<text text-anchor="middle" x="361" y="-156.95" font-family="Times,serif" font-size="14.00">{</text>
</g>
<!-- n6&#45;&gt;n16 -->
<g id="edge16" class="edge">
<title>n6&#45;&gt;n16</title>
<path fill="none" stroke="black" d="M461.18,-221.44C441.99,-210.24 412.64,-193.12 390.66,-180.3"/>
<polygon fill="black" stroke="black" points="392.55,-177.35 382.15,-175.34 389.03,-183.4 392.55,-177.35"/>
</g>
<!-- n17 -->
<g id="node18" class="node">
<title>n17</title>
<ellipse fill="none" stroke="black" cx="441" cy="-162" rx="35.49" ry="18"/>
<text text-anchor="middle" x="441" y="-156.95" font-family="Times,serif" font-size="14.00">println</text>
</g>
<!-- n6&#45;&gt;n17 -->
<g id="edge17" class="edge">
<title>n6&#45;&gt;n17</title>
<path fill="none" stroke="black" d="M471.72,-216.76C467.09,-208.67 461.38,-198.66 456.14,-189.49"/>
<polygon fill="black" stroke="black" points="459.26,-187.89 451.26,-180.95 453.18,-191.37 459.26,-187.89"/>
</g>
<!-- n18 -->
<g id="node19" class="node">
<title>n18</title>
<ellipse fill="none" stroke="black" cx="521" cy="-162" rx="27" ry="18"/>
<text text-anchor="middle" x="521" y="-156.95" font-family="Times,serif" font-size="14.00">(</text>
</g>
<!-- n6&#45;&gt;n18 -->
<g id="edge18" class="edge">
<title>n6&#45;&gt;n18</title>
<path fill="none" stroke="black" d="M490.28,-216.76C494.97,-208.55 500.79,-198.37 506.09,-189.09"/>
<polygon fill="black" stroke="black" points="509.1,-190.88 511.02,-180.46 503.02,-187.41 509.1,-190.88"/>
</g>
<!-- n19 -->
<g id="node20" class="node">
<title>n19</title>
<ellipse fill="none" stroke="black" cx="614" cy="-162" rx="47.77" ry="18"/>
<text text-anchor="middle" x="614" y="-156.95" font-family="Times,serif" font-size="14.00">RETURN</text>
</g>
<!-- n6&#45;&gt;n19 -->
<g id="edge19" class="edge">
<title>n6&#45;&gt;n19</title>
<path fill="none" stroke="black" d="M501.78,-222.06C521.85,-211.5 552.7,-195.26 576.97,-182.49"/>
<polygon fill="black" stroke="black" points="578.37,-185.71 585.59,-177.95 575.11,-179.52 578.37,-185.71"/>
</g>
<!-- n22 -->
<g id="node23" class="node">
<title>n22</title>
<ellipse fill="none" stroke="black" cx="707" cy="-162" rx="27" ry="18"/>
<text text-anchor="middle" x="707" y="-156.95" font-family="Times,serif" font-size="14.00">)</text>
</g>
<!-- n6&#45;&gt;n22 -->
<g id="edge22" class="edge">
<title>n6&#45;&gt;n22</title>
<path fill="none" stroke="black" d="M502.01,-222.17C506.85,-219.93 512.04,-217.73 517,-216 583.37,-192.86 604.63,-203.14 671,-180 672.55,-179.46 674.12,-178.87 675.7,-178.25"/>
<polygon fill="black" stroke="black" points="676.8,-181.59 684.6,-174.43 674.03,-175.16 676.8,-181.59"/>
</g>
<!-- n23 -->
<g id="node24" class="node">
<title>n23</title>
<ellipse fill="none" stroke="black" cx="779" cy="-162" rx="27" ry="18"/>
<text text-anchor="middle" x="779" y="-156.95" font-family="Times,serif" font-size="14.00">;</text>
</g>
<!-- n6&#45;&gt;n23 -->
<g id="edge23" class="edge">
<title>n6&#45;&gt;n23</title>
<path fill="none" stroke="black" d="M501.54,-222.08C506.49,-219.79 511.85,-217.59 517,-216 614.18,-185.98 645.82,-210.02 743,-180 744.61,-179.5 746.24,-178.95 747.87,-178.35"/>
<polygon fill="black" stroke="black" points="749.19,-181.59 757.06,-174.5 746.49,-175.13 749.19,-181.59"/>
</g>
<!-- n24 -->
<g id="node25" class="node">
<title>n24</title>
<ellipse fill="none" stroke="black" cx="851" cy="-162" rx="27" ry="18"/>
<text text-anchor="middle" x="851" y="-156.95" font-family="Times,serif" font-size="14.00">}</text>
</g>
<!-- n6&#45;&gt;n24 -->
<g id="edge24" class="edge">
<title>n6&#45;&gt;n24</title>
<path fill="none" stroke="black" d="M501.5,-221.94C506.45,-219.66 511.82,-217.49 517,-216 645.19,-179.04 686.81,-216.96 815,-180 816.62,-179.53 818.26,-179 819.89,-178.42"/>
<polygon fill="black" stroke="black" points="821.18,-181.67 829.1,-174.64 818.52,-175.2 821.18,-181.67"/>
</g>
<!-- n10 -->
<g id="node11" class="node">
<title>n10</title>
<ellipse fill="none" stroke="black" cx="93" cy="-90" rx="56.47" ry="18"/>
<text text-anchor="middle" x="93" y="-84.95" font-family="Times,serif" font-size="14.00">VARIABLE</text>
</g>
<!-- n9&#45;&gt;n10 -->
<g id="edge10" class="edge">
<title>n9&#45;&gt;n10</title>
<path fill="none" stroke="black" d="M171.58,-145.46C157.82,-135.93 139.97,-123.56 124.77,-113.02"/>
<polygon fill="black" stroke="black" points="127.16,-110.42 116.95,-107.6 123.17,-116.17 127.16,-110.42"/>
</g>
<!-- n12 -->
<g id="node13" class="node">
<title>n12</title>
<ellipse fill="none" stroke="black" cx="194" cy="-90" rx="27" ry="18"/>
<text text-anchor="middle" x="194" y="-84.95" font-family="Times,serif" font-size="14.00">==</text>
</g>
<!-- n9&#45;&gt;n12 -->
<g id="edge12" class="edge">
<title>n9&#45;&gt;n12</title>
<path fill="none" stroke="black" d="M194,-143.7C194,-136.41 194,-127.73 194,-119.54"/>
<polygon fill="black" stroke="black" points="197.5,-119.62 194,-109.62 190.5,-119.62 197.5,-119.62"/>
</g>
<!-- n13 -->
<g id="node14" class="node">
<title>n13</title>
<ellipse fill="none" stroke="black" cx="268" cy="-90" rx="28.83" ry="18"/>
<text text-anchor="middle" x="268" y="-84.95" font-family="Times,serif" font-size="14.00">Dato</text>
</g>
<!-- n9&#45;&gt;n13 -->
<g id="edge13" class="edge">
<title>n9&#45;&gt;n13</title>
<path fill="none" stroke="black" d="M211.16,-144.76C221.14,-135.33 233.84,-123.32 244.7,-113.04"/>
<polygon fill="black" stroke="black" points="246.98,-115.7 251.84,-106.29 242.17,-110.62 246.98,-115.7"/>
</g>
<!-- n11 -->
<g id="node12" class="node">
<title>n11</title>
<ellipse fill="none" stroke="black" cx="93" cy="-18" rx="27" ry="18"/>
<text text-anchor="middle" x="93" y="-12.95" font-family="Times,serif" font-size="14.00">n</text>
</g>
<!-- n10&#45;&gt;n11 -->
<g id="edge11" class="edge">
<title>n10&#45;&gt;n11</title>
<path fill="none" stroke="black" d="M93,-71.7C93,-64.41 93,-55.73 93,-47.54"/>
<polygon fill="black" stroke="black" points="96.5,-47.62 93,-37.62 89.5,-47.62 96.5,-47.62"/>
</g>
<!-- n14 -->
<g id="node15" class="node">
<title>n14</title>
<ellipse fill="none" stroke="black" cx="268" cy="-18" rx="27" ry="18"/>
<text text-anchor="middle" x="268" y="-12.95" font-family="Times,serif" font-size="14.00">0</text>
</g>
<!-- n13&#45;&gt;n14 -->
<g id="edge14" class="edge">
<title>n13&#45;&gt;n14</title>
<path fill="none" stroke="black" d="M268,-71.7C268,-64.41 268,-55.73 268,-47.54"/>
<polygon fill="black" stroke="black" points="271.5,-47.62 268,-37.62 264.5,-47.62 271.5,-47.62"/>
</g>
<!-- n20 -->
<g id="node21" class="node">
<title>n20</title>
<ellipse fill="none" stroke="black" cx="575" cy="-90" rx="32.93" ry="18"/>
<text text-anchor="middle" x="575" y="-84.95" font-family="Times,serif" font-size="14.00">return</text>
</g>
<!-- n19&#45;&gt;n20 -->
<g id="edge20" class="edge">
<title>n19&#45;&gt;n20</title>
<path fill="none" stroke="black" d="M604.56,-144.05C600.09,-136.03 594.64,-126.26 589.65,-117.3"/>
<polygon fill="black" stroke="black" points="592.75,-115.66 584.82,-108.63 586.63,-119.07 592.75,-115.66"/>
</g>
<!-- n21 -->
<g id="node22" class="node">
<title>n21</title>
<ellipse fill="none" stroke="black" cx="653" cy="-90" rx="27" ry="18"/>
<text text-anchor="middle" x="653" y="-84.95" font-family="Times,serif" font-size="14.00">;</text>
</g>
<!-- n19&#45;&gt;n21 -->
<g id="edge21" class="edge">
<title>n19&#45;&gt;n21</title>
<path fill="none" stroke="black" d="M623.44,-144.05C627.91,-136.03 633.36,-126.26 638.35,-117.3"/>
<polygon fill="black" stroke="black" points="641.37,-119.07 643.18,-108.63 635.25,-115.66 641.37,-119.07"/>
</g>
<!-- n27 -->
<g id="node28" class="node">
<title>n27</title>
<ellipse fill="none" stroke="black" cx="721" cy="-234" rx="41.63" ry="18"/>
<text text-anchor="middle" x="721" y="-228.95" font-family="Times,serif" font-size="14.00">factorial</text>
</g>
<!-- n26&#45;&gt;n27 -->
<g id="edge27" class="edge">
<title>n26&#45;&gt;n27</title>
<path fill="none" stroke="black" d="M787.82,-288.76C776.27,-279.47 761.6,-267.67 748.95,-257.49"/>
<polygon fill="black" stroke="black" points="751.34,-254.92 741.35,-251.38 746.95,-260.37 751.34,-254.92"/>
</g>
<!-- n28 -->
<g id="node29" class="node">
<title>n28</title>
<ellipse fill="none" stroke="black" cx="808" cy="-234" rx="27" ry="18"/>
<text text-anchor="middle" x="808" y="-228.95" font-family="Times,serif" font-size="14.00">(</text>
</g>
<!-- n26&#45;&gt;n28 -->
<g id="edge28" class="edge">
<title>n26&#45;&gt;n28</title>
<path fill="none" stroke="black" d="M808,-287.7C808,-280.41 808,-271.73 808,-263.54"/>
<polygon fill="black" stroke="black" points="811.5,-263.62 808,-253.62 804.5,-263.62 811.5,-263.62"/>
</g>
<!-- n29 -->
<g id="node30" class="node">
<title>n29</title>
<ellipse fill="none" stroke="black" cx="882" cy="-234" rx="28.83" ry="18"/>
<text text-anchor="middle" x="882" y="-228.95" font-family="Times,serif" font-size="14.00">Dato</text>
</g>
<!-- n26&#45;&gt;n29 -->
<g id="edge29" class="edge">
<title>n26&#45;&gt;n29</title>
<path fill="none" stroke="black" d="M825.54,-288.41C835.38,-279.1 847.8,-267.35 858.49,-257.24"/>
<polygon fill="black" stroke="black" points="860.64,-260.03 865.5,-250.61 855.83,-254.94 860.64,-260.03"/>
</g>
<!-- n31 -->
<g id="node32" class="node">
<title>n31</title>
<ellipse fill="none" stroke="black" cx="956" cy="-234" rx="27" ry="18"/>
<text text-anchor="middle" x="956" y="-228.95" font-family="Times,serif" font-size="14.00">)</text>
</g>
<!-- n26&#45;&gt;n31 -->
<g id="edge31" class="edge">
<title>n26&#45;&gt;n31</title>
<path fill="none" stroke="black" d="M838.67,-290.5C863.71,-278.65 898.97,-261.97 924.29,-250"/>
<polygon fill="black" stroke="black" points="925.56,-253.27 933.1,-245.83 922.57,-246.94 925.56,-253.27"/>
</g>
<!-- n30 -->
<g id="node31" class="node">
<title>n30</title>
<ellipse fill="none" stroke="black" cx="923" cy="-162" rx="27" ry="18"/>
<text text-anchor="middle" x="923" y="-156.95" font-family="Times,serif" font-size="14.00">1</text>
</g>
<!-- n29&#45;&gt;n30 -->
<g id="edge30" class="edge">
<title>n29&#45;&gt;n30</title>
<path fill="none" stroke="black" d="M891.51,-216.76C896.37,-208.46 902.41,-198.15 907.89,-188.79"/>
<polygon fill="black" stroke="black" points="910.74,-190.85 912.78,-180.45 904.7,-187.31 910.74,-190.85"/>
</g>
</g>
</svg>
