<?xml version="1.0" encoding="UTF-8" standalone="no"?>
<!DOCTYPE svg PUBLIC "-//W3C//DTD SVG 1.1//EN"
 "http://www.w3.org/Graphics/SVG/1.1/DTD/svg11.dtd">
<!-- Generated by graphviz version 10.0.1 (20240210.2158)
 -->
<!-- Title: arbolAST Pages: 1 -->
<svg width="776pt" height="476pt"
 viewBox="0.00 0.00 776.00 476.00" xmlns="http://www.w3.org/2000/svg" xmlns:xlink="http://www.w3.org/1999/xlink">
<g id="graph0" class="graph" transform="scale(1 1) rotate(0) translate(4 472)">
<title>arbolAST</title>
<polygon fill="white" stroke="none" points="-4,4 -4,-472 772,-472 772,4 -4,4"/>
<!-- n0 -->
<g id="node1" class="node">
<title>n0</title>
<ellipse fill="none" stroke="black" cx="353" cy="-450" rx="39.58" ry="18"/>
<text text-anchor="middle" x="353" y="-444.95" font-family="Times,serif" font-size="14.00">INICIO</text>
</g>
<!-- n1 -->
<g id="node2" class="node">
<title>n1</title>
<ellipse fill="none" stroke="black" cx="353" cy="-378" rx="83.6" ry="18"/>
<text text-anchor="middle" x="353" y="-372.95" font-family="Times,serif" font-size="14.00">INSTRUCCIONES</text>
</g>
<!-- n0&#45;&gt;n1 -->
<g id="edge1" class="edge">
<title>n0&#45;&gt;n1</title>
<path fill="none" stroke="black" d="M353,-431.7C353,-424.41 353,-415.73 353,-407.54"/>
<polygon fill="black" stroke="black" points="356.5,-407.62 353,-397.62 349.5,-407.62 356.5,-407.62"/>
</g>
<!-- n2 -->
<g id="node3" class="node">
<title>n2</title>
<ellipse fill="none" stroke="black" cx="231" cy="-306" rx="51.86" ry="18"/>
<text text-anchor="middle" x="231" y="-300.95" font-family="Times,serif" font-size="14.00">FUNCION</text>
</g>
<!-- n1&#45;&gt;n2 -->
<g id="edge2" class="edge">
<title>n1&#45;&gt;n2</title>
<path fill="none" stroke="black" d="M324.7,-360.76C307.48,-350.88 285.32,-338.17 266.87,-327.58"/>
<polygon fill="black" stroke="black" points="268.79,-324.65 258.37,-322.71 265.3,-330.72 268.79,-324.65"/>
</g>
<!-- n18 -->
<g id="node19" class="node">
<title>n18</title>
<ellipse fill="none" stroke="black" cx="554" cy="-306" rx="57.49" ry="18"/>
<text text-anchor="middle" x="554" y="-300.95" font-family="Times,serif" font-size="14.00">LLAMADA</text>
</g>
<!-- n1&#45;&gt;n18 -->
<g id="edge18" class="edge">
<title>n1&#45;&gt;n18</title>
<path fill="none" stroke="black" d="M395.63,-362.15C427.97,-350.89 472.43,-335.41 506.02,-323.71"/>
<polygon fill="black" stroke="black" points="506.79,-327.15 515.08,-320.55 504.49,-320.54 506.79,-327.15"/>
</g>
<!-- n3 -->
<g id="node4" class="node">
<title>n3</title>
<ellipse fill="none" stroke="black" cx="27" cy="-234" rx="27" ry="18"/>
<text text-anchor="middle" x="27" y="-228.95" font-family="Times,serif" font-size="14.00">int</text>
</g>
<!-- n2&#45;&gt;n3 -->
<g id="edge3" class="edge">
<title>n2&#45;&gt;n3</title>
<path fill="none" stroke="black" d="M191.1,-294.07C156.72,-284.26 106,-268.85 63,-252 61.47,-251.4 59.92,-250.77 58.35,-250.11"/>
<polygon fill="black" stroke="black" points="60.05,-247.04 49.49,-246.17 57.21,-253.43 60.05,-247.04"/>
</g>
<!-- n4 -->
<g id="node5" class="node">
<title>n4</title>
<ellipse fill="none" stroke="black" cx="108" cy="-234" rx="36" ry="18"/>
<text text-anchor="middle" x="108" y="-228.95" font-family="Times,serif" font-size="14.00">prueba</text>
</g>
<!-- n2&#45;&gt;n4 -->
<g id="edge4" class="edge">
<title>n2&#45;&gt;n4</title>
<path fill="none" stroke="black" d="M204.91,-290.15C186.3,-279.56 161.12,-265.23 141.09,-253.83"/>
<polygon fill="black" stroke="black" points="142.88,-250.82 132.46,-248.92 139.42,-256.91 142.88,-250.82"/>
</g>
<!-- n5 -->
<g id="node6" class="node">
<title>n5</title>
<ellipse fill="none" stroke="black" cx="189" cy="-234" rx="27" ry="18"/>
<text text-anchor="middle" x="189" y="-228.95" font-family="Times,serif" font-size="14.00">{</text>
</g>
<!-- n2&#45;&gt;n5 -->
<g id="edge5" class="edge">
<title>n2&#45;&gt;n5</title>
<path fill="none" stroke="black" d="M220.83,-288.05C215.89,-279.82 209.85,-269.76 204.37,-260.61"/>
<polygon fill="black" stroke="black" points="207.42,-258.9 199.28,-252.13 201.42,-262.5 207.42,-258.9"/>
</g>
<!-- n6 -->
<g id="node7" class="node">
<title>n6</title>
<ellipse fill="none" stroke="black" cx="272" cy="-234" rx="37.53" ry="18"/>
<text text-anchor="middle" x="272" y="-228.95" font-family="Times,serif" font-size="14.00">PRINT</text>
</g>
<!-- n2&#45;&gt;n6 -->
<g id="edge6" class="edge">
<title>n2&#45;&gt;n6</title>
<path fill="none" stroke="black" d="M240.92,-288.05C245.56,-280.14 251.18,-270.54 256.37,-261.69"/>
<polygon fill="black" stroke="black" points="259.37,-263.49 261.4,-253.1 253.33,-259.95 259.37,-263.49"/>
</g>
<!-- n17 -->
<g id="node18" class="node">
<title>n17</title>
<ellipse fill="none" stroke="black" cx="355" cy="-234" rx="27" ry="18"/>
<text text-anchor="middle" x="355" y="-228.95" font-family="Times,serif" font-size="14.00">}</text>
</g>
<!-- n2&#45;&gt;n17 -->
<g id="edge17" class="edge">
<title>n2&#45;&gt;n17</title>
<path fill="none" stroke="black" d="M257.3,-290.15C277.12,-278.96 304.34,-263.6 325.01,-251.93"/>
<polygon fill="black" stroke="black" points="326.56,-255.08 333.54,-247.11 323.11,-248.98 326.56,-255.08"/>
</g>
<!-- n7 -->
<g id="node8" class="node">
<title>n7</title>
<ellipse fill="none" stroke="black" cx="85" cy="-162" rx="35.49" ry="18"/>
<text text-anchor="middle" x="85" y="-156.95" font-family="Times,serif" font-size="14.00">println</text>
</g>
<!-- n6&#45;&gt;n7 -->
<g id="edge7" class="edge">
<title>n6&#45;&gt;n7</title>
<path fill="none" stroke="black" d="M242.65,-222.26C213.71,-211.63 168.25,-194.85 129,-180 127.07,-179.27 125.1,-178.52 123.11,-177.76"/>
<polygon fill="black" stroke="black" points="124.44,-174.52 113.85,-174.21 121.94,-181.06 124.44,-174.52"/>
</g>
<!-- n8 -->
<g id="node9" class="node">
<title>n8</title>
<ellipse fill="none" stroke="black" cx="165" cy="-162" rx="27" ry="18"/>
<text text-anchor="middle" x="165" y="-156.95" font-family="Times,serif" font-size="14.00">(</text>
</g>
<!-- n6&#45;&gt;n8 -->
<g id="edge8" class="edge">
<title>n6&#45;&gt;n8</title>
<path fill="none" stroke="black" d="M250.35,-218.83C233.94,-208.1 211.24,-193.25 193.38,-181.56"/>
<polygon fill="black" stroke="black" points="195.31,-178.65 185.03,-176.1 191.48,-184.51 195.31,-178.65"/>
</g>
<!-- n9 -->
<g id="node10" class="node">
<title>n9</title>
<ellipse fill="none" stroke="black" cx="272" cy="-162" rx="61.59" ry="18"/>
<text text-anchor="middle" x="272" y="-156.95" font-family="Times,serif" font-size="14.00">EXPRESION</text>
</g>
<!-- n6&#45;&gt;n9 -->
<g id="edge9" class="edge">
<title>n6&#45;&gt;n9</title>
<path fill="none" stroke="black" d="M272,-215.7C272,-208.41 272,-199.73 272,-191.54"/>
<polygon fill="black" stroke="black" points="275.5,-191.62 272,-181.62 268.5,-191.62 275.5,-191.62"/>
</g>
<!-- n15 -->
<g id="node16" class="node">
<title>n15</title>
<ellipse fill="none" stroke="black" cx="379" cy="-162" rx="27" ry="18"/>
<text text-anchor="middle" x="379" y="-156.95" font-family="Times,serif" font-size="14.00">)</text>
</g>
<!-- n6&#45;&gt;n15 -->
<g id="edge15" class="edge">
<title>n6&#45;&gt;n15</title>
<path fill="none" stroke="black" d="M293.65,-218.83C310.06,-208.1 332.76,-193.25 350.62,-181.56"/>
<polygon fill="black" stroke="black" points="352.52,-184.51 358.97,-176.1 348.69,-178.65 352.52,-184.51"/>
</g>
<!-- n16 -->
<g id="node17" class="node">
<title>n16</title>
<ellipse fill="none" stroke="black" cx="451" cy="-162" rx="27" ry="18"/>
<text text-anchor="middle" x="451" y="-156.95" font-family="Times,serif" font-size="14.00">;</text>
</g>
<!-- n6&#45;&gt;n16 -->
<g id="edge16" class="edge">
<title>n6&#45;&gt;n16</title>
<path fill="none" stroke="black" d="M301.36,-222.27C339.97,-208.14 404.2,-184.54 415,-180 416.51,-179.36 418.06,-178.7 419.61,-178.02"/>
<polygon fill="black" stroke="black" points="420.78,-181.33 428.44,-174 417.89,-174.96 420.78,-181.33"/>
</g>
<!-- n10 -->
<g id="node11" class="node">
<title>n10</title>
<ellipse fill="none" stroke="black" cx="171" cy="-90" rx="56.47" ry="18"/>
<text text-anchor="middle" x="171" y="-84.95" font-family="Times,serif" font-size="14.00">VARIABLE</text>
</g>
<!-- n9&#45;&gt;n10 -->
<g id="edge10" class="edge">
<title>n9&#45;&gt;n10</title>
<path fill="none" stroke="black" d="M248.83,-144.94C235.26,-135.54 217.93,-123.52 203.06,-113.22"/>
<polygon fill="black" stroke="black" points="205.17,-110.43 194.96,-107.61 201.18,-116.18 205.17,-110.43"/>
</g>
<!-- n12 -->
<g id="node13" class="node">
<title>n12</title>
<ellipse fill="none" stroke="black" cx="272" cy="-90" rx="27" ry="18"/>
<text text-anchor="middle" x="272" y="-84.95" font-family="Times,serif" font-size="14.00">+</text>
</g>
<!-- n9&#45;&gt;n12 -->
<g id="edge12" class="edge">
<title>n9&#45;&gt;n12</title>
<path fill="none" stroke="black" d="M272,-143.7C272,-136.41 272,-127.73 272,-119.54"/>
<polygon fill="black" stroke="black" points="275.5,-119.62 272,-109.62 268.5,-119.62 275.5,-119.62"/>
</g>
<!-- n13 -->
<g id="node14" class="node">
<title>n13</title>
<ellipse fill="none" stroke="black" cx="373" cy="-90" rx="56.47" ry="18"/>
<text text-anchor="middle" x="373" y="-84.95" font-family="Times,serif" font-size="14.00">VARIABLE</text>
</g>
<!-- n9&#45;&gt;n13 -->
<g id="edge13" class="edge">
<title>n9&#45;&gt;n13</title>
<path fill="none" stroke="black" d="M295.17,-144.94C308.74,-135.54 326.07,-123.52 340.94,-113.22"/>
<polygon fill="black" stroke="black" points="342.82,-116.18 349.04,-107.61 338.83,-110.43 342.82,-116.18"/>
</g>
<!-- n11 -->
<g id="node12" class="node">
<title>n11</title>
<ellipse fill="none" stroke="black" cx="171" cy="-18" rx="27" ry="18"/>
<text text-anchor="middle" x="171" y="-12.95" font-family="Times,serif" font-size="14.00">a</text>
</g>
<!-- n10&#45;&gt;n11 -->
<g id="edge11" class="edge">
<title>n10&#45;&gt;n11</title>
<path fill="none" stroke="black" d="M171,-71.7C171,-64.41 171,-55.73 171,-47.54"/>
<polygon fill="black" stroke="black" points="174.5,-47.62 171,-37.62 167.5,-47.62 174.5,-47.62"/>
</g>
<!-- n14 -->
<g id="node15" class="node">
<title>n14</title>
<ellipse fill="none" stroke="black" cx="373" cy="-18" rx="27" ry="18"/>
<text text-anchor="middle" x="373" y="-12.95" font-family="Times,serif" font-size="14.00">b</text>
</g>
<!-- n13&#45;&gt;n14 -->
<g id="edge14" class="edge">
<title>n13&#45;&gt;n14</title>
<path fill="none" stroke="black" d="M373,-71.7C373,-64.41 373,-55.73 373,-47.54"/>
<polygon fill="black" stroke="black" points="376.5,-47.62 373,-37.62 369.5,-47.62 376.5,-47.62"/>
</g>
<!-- n19 -->
<g id="node20" class="node">
<title>n19</title>
<ellipse fill="none" stroke="black" cx="436" cy="-234" rx="36" ry="18"/>
<text text-anchor="middle" x="436" y="-228.95" font-family="Times,serif" font-size="14.00">prueba</text>
</g>
<!-- n18&#45;&gt;n19 -->
<g id="edge19" class="edge">
<title>n18&#45;&gt;n19</title>
<path fill="none" stroke="black" d="M528.1,-289.64C510.59,-279.25 487.32,-265.44 468.55,-254.31"/>
<polygon fill="black" stroke="black" points="470.34,-251.3 459.95,-249.21 466.77,-257.32 470.34,-251.3"/>
</g>
<!-- n20 -->
<g id="node21" class="node">
<title>n20</title>
<ellipse fill="none" stroke="black" cx="517" cy="-234" rx="27" ry="18"/>
<text text-anchor="middle" x="517" y="-228.95" font-family="Times,serif" font-size="14.00">(</text>
</g>
<!-- n18&#45;&gt;n20 -->
<g id="edge20" class="edge">
<title>n18&#45;&gt;n20</title>
<path fill="none" stroke="black" d="M545.04,-288.05C540.8,-280.03 535.64,-270.26 530.9,-261.3"/>
<polygon fill="black" stroke="black" points="534.09,-259.85 526.33,-252.65 527.91,-263.12 534.09,-259.85"/>
</g>
<!-- n21 -->
<g id="node22" class="node">
<title>n21</title>
<ellipse fill="none" stroke="black" cx="591" cy="-234" rx="28.83" ry="18"/>
<text text-anchor="middle" x="591" y="-228.95" font-family="Times,serif" font-size="14.00">Dato</text>
</g>
<!-- n18&#45;&gt;n21 -->
<g id="edge21" class="edge">
<title>n18&#45;&gt;n21</title>
<path fill="none" stroke="black" d="M562.96,-288.05C567.2,-280.03 572.36,-270.26 577.1,-261.3"/>
<polygon fill="black" stroke="black" points="580.09,-263.12 581.67,-252.65 573.91,-259.85 580.09,-263.12"/>
</g>
<!-- n23 -->
<g id="node24" class="node">
<title>n23</title>
<ellipse fill="none" stroke="black" cx="667" cy="-234" rx="28.83" ry="18"/>
<text text-anchor="middle" x="667" y="-228.95" font-family="Times,serif" font-size="14.00">Dato</text>
</g>
<!-- n18&#45;&gt;n23 -->
<g id="edge23" class="edge">
<title>n18&#45;&gt;n23</title>
<path fill="none" stroke="black" d="M579.08,-289.46C596.23,-278.84 619.03,-264.71 637.12,-253.51"/>
<polygon fill="black" stroke="black" points="638.94,-256.5 645.6,-248.26 635.25,-250.55 638.94,-256.5"/>
</g>
<!-- n25 -->
<g id="node26" class="node">
<title>n25</title>
<ellipse fill="none" stroke="black" cx="741" cy="-234" rx="27" ry="18"/>
<text text-anchor="middle" x="741" y="-228.95" font-family="Times,serif" font-size="14.00">)</text>
</g>
<!-- n18&#45;&gt;n25 -->
<g id="edge25" class="edge">
<title>n18&#45;&gt;n25</title>
<path fill="none" stroke="black" d="M593.21,-292.48C623.94,-282.37 667.6,-267.35 705,-252 706.52,-251.38 708.07,-250.72 709.62,-250.05"/>
<polygon fill="black" stroke="black" points="710.79,-253.36 718.46,-246.06 707.91,-246.98 710.79,-253.36"/>
</g>
<!-- n22 -->
<g id="node23" class="node">
<title>n22</title>
<ellipse fill="none" stroke="black" cx="591" cy="-162" rx="27" ry="18"/>
<text text-anchor="middle" x="591" y="-156.95" font-family="Times,serif" font-size="14.00">2</text>
</g>
<!-- n21&#45;&gt;n22 -->
<g id="edge22" class="edge">
<title>n21&#45;&gt;n22</title>
<path fill="none" stroke="black" d="M591,-215.7C591,-208.41 591,-199.73 591,-191.54"/>
<polygon fill="black" stroke="black" points="594.5,-191.62 591,-181.62 587.5,-191.62 594.5,-191.62"/>
</g>
<!-- n24 -->
<g id="node25" class="node">
<title>n24</title>
<ellipse fill="none" stroke="black" cx="667" cy="-162" rx="27" ry="18"/>
<text text-anchor="middle" x="667" y="-156.95" font-family="Times,serif" font-size="14.00">2</text>
</g>
<!-- n23&#45;&gt;n24 -->
<g id="edge24" class="edge">
<title>n23&#45;&gt;n24</title>
<path fill="none" stroke="black" d="M667,-215.7C667,-208.41 667,-199.73 667,-191.54"/>
<polygon fill="black" stroke="black" points="670.5,-191.62 667,-181.62 663.5,-191.62 670.5,-191.62"/>
</g>
</g>
</svg>
