<?xml version="1.0" encoding="UTF-8" standalone="no"?>
<!DOCTYPE svg PUBLIC "-//W3C//DTD SVG 1.1//EN"
 "http://www.w3.org/Graphics/SVG/1.1/DTD/svg11.dtd">
<!-- Generated by graphviz version 5.0.1 (20220820.1526)
 -->
<!-- Title: arbolAST Pages: 1 -->
<svg width="611pt" height="548pt"
 viewBox="0.00 0.00 611.19 548.00" xmlns="http://www.w3.org/2000/svg" xmlns:xlink="http://www.w3.org/1999/xlink">
<g id="graph0" class="graph" transform="scale(1 1) rotate(0) translate(4 544)">
<title>arbolAST</title>
<polygon fill="white" stroke="none" points="-4,4 -4,-544 607.19,-544 607.19,4 -4,4"/>
<!-- n0 -->
<g id="node1" class="node">
<title>n0</title>
<ellipse fill="none" stroke="black" cx="304.6" cy="-522" rx="38.99" ry="18"/>
<text text-anchor="middle" x="304.6" y="-518.3" font-family="Times New Roman,serif" font-size="14.00">INICIO</text>
</g>
<!-- n1 -->
<g id="node2" class="node">
<title>n1</title>
<ellipse fill="none" stroke="black" cx="304.6" cy="-450" rx="83.39" ry="18"/>
<text text-anchor="middle" x="304.6" y="-446.3" font-family="Times New Roman,serif" font-size="14.00">INSTRUCCIONES</text>
</g>
<!-- n0&#45;&gt;n1 -->
<g id="edge1" class="edge">
<title>n0&#45;&gt;n1</title>
<path fill="none" stroke="black" d="M304.6,-503.7C304.6,-495.98 304.6,-486.71 304.6,-478.11"/>
<polygon fill="black" stroke="black" points="308.1,-478.1 304.6,-468.1 301.1,-478.1 308.1,-478.1"/>
</g>
<!-- n2 -->
<g id="node3" class="node">
<title>n2</title>
<ellipse fill="none" stroke="black" cx="304.6" cy="-378" rx="37.89" ry="18"/>
<text text-anchor="middle" x="304.6" y="-374.3" font-family="Times New Roman,serif" font-size="14.00">PRINT</text>
</g>
<!-- n1&#45;&gt;n2 -->
<g id="edge2" class="edge">
<title>n1&#45;&gt;n2</title>
<path fill="none" stroke="black" d="M304.6,-431.7C304.6,-423.98 304.6,-414.71 304.6,-406.11"/>
<polygon fill="black" stroke="black" points="308.1,-406.1 304.6,-396.1 301.1,-406.1 308.1,-406.1"/>
</g>
<!-- n3 -->
<g id="node4" class="node">
<title>n3</title>
<ellipse fill="none" stroke="black" cx="140.6" cy="-306" rx="33.6" ry="18"/>
<text text-anchor="middle" x="140.6" y="-302.3" font-family="Times New Roman,serif" font-size="14.00">println</text>
</g>
<!-- n2&#45;&gt;n3 -->
<g id="edge3" class="edge">
<title>n2&#45;&gt;n3</title>
<path fill="none" stroke="black" d="M277.52,-365.44C249.6,-353.53 205.98,-334.91 175.5,-321.9"/>
<polygon fill="black" stroke="black" points="176.67,-318.59 166.1,-317.88 173.92,-325.03 176.67,-318.59"/>
</g>
<!-- n4 -->
<g id="node5" class="node">
<title>n4</title>
<ellipse fill="none" stroke="black" cx="219.6" cy="-306" rx="27" ry="18"/>
<text text-anchor="middle" x="219.6" y="-302.3" font-family="Times New Roman,serif" font-size="14.00">(</text>
</g>
<!-- n2&#45;&gt;n4 -->
<g id="edge4" class="edge">
<title>n2&#45;&gt;n4</title>
<path fill="none" stroke="black" d="M286.57,-362.15C274.14,-351.92 257.47,-338.19 243.88,-327"/>
<polygon fill="black" stroke="black" points="245.82,-324.06 235.87,-320.4 241.37,-329.46 245.82,-324.06"/>
</g>
<!-- n5 -->
<g id="node6" class="node">
<title>n5</title>
<ellipse fill="none" stroke="black" cx="304.6" cy="-306" rx="40.09" ry="18"/>
<text text-anchor="middle" x="304.6" y="-302.3" font-family="Times New Roman,serif" font-size="14.00">Logicos</text>
</g>
<!-- n2&#45;&gt;n5 -->
<g id="edge5" class="edge">
<title>n2&#45;&gt;n5</title>
<path fill="none" stroke="black" d="M304.6,-359.7C304.6,-351.98 304.6,-342.71 304.6,-334.11"/>
<polygon fill="black" stroke="black" points="308.1,-334.1 304.6,-324.1 301.1,-334.1 308.1,-334.1"/>
</g>
<!-- n27 -->
<g id="node28" class="node">
<title>n27</title>
<ellipse fill="none" stroke="black" cx="389.6" cy="-306" rx="27" ry="18"/>
<text text-anchor="middle" x="389.6" y="-302.3" font-family="Times New Roman,serif" font-size="14.00">)</text>
</g>
<!-- n2&#45;&gt;n27 -->
<g id="edge27" class="edge">
<title>n2&#45;&gt;n27</title>
<path fill="none" stroke="black" d="M322.62,-362.15C335.05,-351.92 351.72,-338.19 365.32,-327"/>
<polygon fill="black" stroke="black" points="367.83,-329.46 373.32,-320.4 363.38,-324.06 367.83,-329.46"/>
</g>
<!-- n28 -->
<g id="node29" class="node">
<title>n28</title>
<ellipse fill="none" stroke="black" cx="461.6" cy="-306" rx="27" ry="18"/>
<text text-anchor="middle" x="461.6" y="-302.3" font-family="Times New Roman,serif" font-size="14.00">;</text>
</g>
<!-- n2&#45;&gt;n28 -->
<g id="edge28" class="edge">
<title>n2&#45;&gt;n28</title>
<path fill="none" stroke="black" d="M331.61,-365.43C356.19,-354.84 393.45,-338.63 425.6,-324 427.39,-323.18 429.23,-322.34 431.08,-321.48"/>
<polygon fill="black" stroke="black" points="432.74,-324.57 440.32,-317.17 429.78,-318.23 432.74,-324.57"/>
</g>
<!-- n6 -->
<g id="node7" class="node">
<title>n6</title>
<ellipse fill="none" stroke="black" cx="210.6" cy="-234" rx="48.19" ry="18"/>
<text text-anchor="middle" x="210.6" y="-230.3" font-family="Times New Roman,serif" font-size="14.00">Relacional</text>
</g>
<!-- n5&#45;&gt;n6 -->
<g id="edge6" class="edge">
<title>n5&#45;&gt;n6</title>
<path fill="none" stroke="black" d="M284.66,-290.15C271.51,-280.36 254.06,-267.37 239.41,-256.45"/>
<polygon fill="black" stroke="black" points="241.26,-253.47 231.15,-250.31 237.08,-259.09 241.26,-253.47"/>
</g>
<!-- n16 -->
<g id="node17" class="node">
<title>n16</title>
<ellipse fill="none" stroke="black" cx="304.6" cy="-234" rx="27" ry="18"/>
<text text-anchor="middle" x="304.6" y="-230.3" font-family="Times New Roman,serif" font-size="14.00">&amp;&amp;</text>
</g>
<!-- n5&#45;&gt;n16 -->
<g id="edge16" class="edge">
<title>n5&#45;&gt;n16</title>
<path fill="none" stroke="black" d="M304.6,-287.7C304.6,-279.98 304.6,-270.71 304.6,-262.11"/>
<polygon fill="black" stroke="black" points="308.1,-262.1 304.6,-252.1 301.1,-262.1 308.1,-262.1"/>
</g>
<!-- n17 -->
<g id="node18" class="node">
<title>n17</title>
<ellipse fill="none" stroke="black" cx="397.6" cy="-234" rx="48.19" ry="18"/>
<text text-anchor="middle" x="397.6" y="-230.3" font-family="Times New Roman,serif" font-size="14.00">Relacional</text>
</g>
<!-- n5&#45;&gt;n17 -->
<g id="edge17" class="edge">
<title>n5&#45;&gt;n17</title>
<path fill="none" stroke="black" d="M324.32,-290.15C337.25,-280.43 354.36,-267.54 368.8,-256.68"/>
<polygon fill="black" stroke="black" points="371.05,-259.36 376.94,-250.55 366.84,-253.77 371.05,-259.36"/>
</g>
<!-- n7 -->
<g id="node8" class="node">
<title>n7</title>
<ellipse fill="none" stroke="black" cx="102.6" cy="-162" rx="61.19" ry="18"/>
<text text-anchor="middle" x="102.6" y="-158.3" font-family="Times New Roman,serif" font-size="14.00">EXPRESION</text>
</g>
<!-- n6&#45;&gt;n7 -->
<g id="edge7" class="edge">
<title>n6&#45;&gt;n7</title>
<path fill="none" stroke="black" d="M187.69,-218.15C172.51,-208.31 152.35,-195.24 135.46,-184.3"/>
<polygon fill="black" stroke="black" points="137.26,-181.3 126.97,-178.8 133.46,-187.17 137.26,-181.3"/>
</g>
<!-- n13 -->
<g id="node14" class="node">
<title>n13</title>
<ellipse fill="none" stroke="black" cx="208.6" cy="-162" rx="27" ry="18"/>
<text text-anchor="middle" x="208.6" y="-158.3" font-family="Times New Roman,serif" font-size="14.00">==</text>
</g>
<!-- n6&#45;&gt;n13 -->
<g id="edge13" class="edge">
<title>n6&#45;&gt;n13</title>
<path fill="none" stroke="black" d="M210.1,-215.7C209.88,-207.98 209.62,-198.71 209.37,-190.11"/>
<polygon fill="black" stroke="black" points="212.87,-190 209.09,-180.1 205.87,-190.2 212.87,-190"/>
</g>
<!-- n14 -->
<g id="node15" class="node">
<title>n14</title>
<ellipse fill="none" stroke="black" cx="282.6" cy="-162" rx="28.7" ry="18"/>
<text text-anchor="middle" x="282.6" y="-158.3" font-family="Times New Roman,serif" font-size="14.00">Dato</text>
</g>
<!-- n6&#45;&gt;n14 -->
<g id="edge14" class="edge">
<title>n6&#45;&gt;n14</title>
<path fill="none" stroke="black" d="M227.3,-216.76C237.06,-207.27 249.51,-195.17 260.12,-184.85"/>
<polygon fill="black" stroke="black" points="262.73,-187.2 267.46,-177.72 257.85,-182.18 262.73,-187.2"/>
</g>
<!-- n8 -->
<g id="node9" class="node">
<title>n8</title>
<ellipse fill="none" stroke="black" cx="28.6" cy="-90" rx="28.7" ry="18"/>
<text text-anchor="middle" x="28.6" y="-86.3" font-family="Times New Roman,serif" font-size="14.00">Dato</text>
</g>
<!-- n7&#45;&gt;n8 -->
<g id="edge8" class="edge">
<title>n7&#45;&gt;n8</title>
<path fill="none" stroke="black" d="M85.06,-144.41C75.02,-134.91 62.3,-122.88 51.48,-112.65"/>
<polygon fill="black" stroke="black" points="53.67,-109.9 44,-105.57 48.86,-114.99 53.67,-109.9"/>
</g>
<!-- n10 -->
<g id="node11" class="node">
<title>n10</title>
<ellipse fill="none" stroke="black" cx="102.6" cy="-90" rx="27" ry="18"/>
<text text-anchor="middle" x="102.6" y="-86.3" font-family="Times New Roman,serif" font-size="14.00">+</text>
</g>
<!-- n7&#45;&gt;n10 -->
<g id="edge10" class="edge">
<title>n7&#45;&gt;n10</title>
<path fill="none" stroke="black" d="M102.6,-143.7C102.6,-135.98 102.6,-126.71 102.6,-118.11"/>
<polygon fill="black" stroke="black" points="106.1,-118.1 102.6,-108.1 99.1,-118.1 106.1,-118.1"/>
</g>
<!-- n11 -->
<g id="node12" class="node">
<title>n11</title>
<ellipse fill="none" stroke="black" cx="176.6" cy="-90" rx="28.7" ry="18"/>
<text text-anchor="middle" x="176.6" y="-86.3" font-family="Times New Roman,serif" font-size="14.00">Dato</text>
</g>
<!-- n7&#45;&gt;n11 -->
<g id="edge11" class="edge">
<title>n7&#45;&gt;n11</title>
<path fill="none" stroke="black" d="M120.13,-144.41C130.18,-134.91 142.89,-122.88 153.72,-112.65"/>
<polygon fill="black" stroke="black" points="156.33,-114.99 161.19,-105.57 151.52,-109.9 156.33,-114.99"/>
</g>
<!-- n9 -->
<g id="node10" class="node">
<title>n9</title>
<ellipse fill="none" stroke="black" cx="28.6" cy="-18" rx="27" ry="18"/>
<text text-anchor="middle" x="28.6" y="-14.3" font-family="Times New Roman,serif" font-size="14.00">2</text>
</g>
<!-- n8&#45;&gt;n9 -->
<g id="edge9" class="edge">
<title>n8&#45;&gt;n9</title>
<path fill="none" stroke="black" d="M28.6,-71.7C28.6,-63.98 28.6,-54.71 28.6,-46.11"/>
<polygon fill="black" stroke="black" points="32.1,-46.1 28.6,-36.1 25.1,-46.1 32.1,-46.1"/>
</g>
<!-- n12 -->
<g id="node13" class="node">
<title>n12</title>
<ellipse fill="none" stroke="black" cx="176.6" cy="-18" rx="27" ry="18"/>
<text text-anchor="middle" x="176.6" y="-14.3" font-family="Times New Roman,serif" font-size="14.00">2</text>
</g>
<!-- n11&#45;&gt;n12 -->
<g id="edge12" class="edge">
<title>n11&#45;&gt;n12</title>
<path fill="none" stroke="black" d="M176.6,-71.7C176.6,-63.98 176.6,-54.71 176.6,-46.11"/>
<polygon fill="black" stroke="black" points="180.1,-46.1 176.6,-36.1 173.1,-46.1 180.1,-46.1"/>
</g>
<!-- n15 -->
<g id="node16" class="node">
<title>n15</title>
<ellipse fill="none" stroke="black" cx="263.6" cy="-90" rx="27" ry="18"/>
<text text-anchor="middle" x="263.6" y="-86.3" font-family="Times New Roman,serif" font-size="14.00">4</text>
</g>
<!-- n14&#45;&gt;n15 -->
<g id="edge15" class="edge">
<title>n14&#45;&gt;n15</title>
<path fill="none" stroke="black" d="M278,-144.05C275.85,-136.14 273.24,-126.54 270.84,-117.69"/>
<polygon fill="black" stroke="black" points="274.15,-116.52 268.15,-107.79 267.4,-118.36 274.15,-116.52"/>
</g>
<!-- n18 -->
<g id="node19" class="node">
<title>n18</title>
<ellipse fill="none" stroke="black" cx="394.6" cy="-162" rx="61.19" ry="18"/>
<text text-anchor="middle" x="394.6" y="-158.3" font-family="Times New Roman,serif" font-size="14.00">EXPRESION</text>
</g>
<!-- n17&#45;&gt;n18 -->
<g id="edge18" class="edge">
<title>n17&#45;&gt;n18</title>
<path fill="none" stroke="black" d="M396.86,-215.7C396.53,-207.98 396.13,-198.71 395.76,-190.11"/>
<polygon fill="black" stroke="black" points="399.26,-189.95 395.33,-180.1 392.26,-190.25 399.26,-189.95"/>
</g>
<!-- n24 -->
<g id="node25" class="node">
<title>n24</title>
<ellipse fill="none" stroke="black" cx="500.6" cy="-162" rx="27" ry="18"/>
<text text-anchor="middle" x="500.6" y="-158.3" font-family="Times New Roman,serif" font-size="14.00">==</text>
</g>
<!-- n17&#45;&gt;n24 -->
<g id="edge24" class="edge">
<title>n17&#45;&gt;n24</title>
<path fill="none" stroke="black" d="M419.69,-217.98C435.6,-207.17 457.13,-192.54 473.99,-181.08"/>
<polygon fill="black" stroke="black" points="476.02,-183.94 482.32,-175.42 472.08,-178.15 476.02,-183.94"/>
</g>
<!-- n25 -->
<g id="node26" class="node">
<title>n25</title>
<ellipse fill="none" stroke="black" cx="574.6" cy="-162" rx="28.7" ry="18"/>
<text text-anchor="middle" x="574.6" y="-158.3" font-family="Times New Roman,serif" font-size="14.00">Dato</text>
</g>
<!-- n17&#45;&gt;n25 -->
<g id="edge25" class="edge">
<title>n17&#45;&gt;n25</title>
<path fill="none" stroke="black" d="M430.95,-220.89C459.23,-210.47 500.8,-194.82 536.6,-180 538.66,-179.15 540.78,-178.25 542.91,-177.34"/>
<polygon fill="black" stroke="black" points="544.42,-180.49 552.18,-173.28 541.62,-174.08 544.42,-180.49"/>
</g>
<!-- n19 -->
<g id="node20" class="node">
<title>n19</title>
<ellipse fill="none" stroke="black" cx="337.6" cy="-90" rx="28.7" ry="18"/>
<text text-anchor="middle" x="337.6" y="-86.3" font-family="Times New Roman,serif" font-size="14.00">Dato</text>
</g>
<!-- n18&#45;&gt;n19 -->
<g id="edge19" class="edge">
<title>n18&#45;&gt;n19</title>
<path fill="none" stroke="black" d="M381.09,-144.41C373.78,-135.44 364.64,-124.21 356.63,-114.37"/>
<polygon fill="black" stroke="black" points="359.26,-112.06 350.23,-106.51 353.83,-116.48 359.26,-112.06"/>
</g>
<!-- n21 -->
<g id="node22" class="node">
<title>n21</title>
<ellipse fill="none" stroke="black" cx="411.6" cy="-90" rx="27" ry="18"/>
<text text-anchor="middle" x="411.6" y="-86.3" font-family="Times New Roman,serif" font-size="14.00">+</text>
</g>
<!-- n18&#45;&gt;n21 -->
<g id="edge21" class="edge">
<title>n18&#45;&gt;n21</title>
<path fill="none" stroke="black" d="M398.8,-143.7C400.69,-135.9 402.97,-126.51 405.08,-117.83"/>
<polygon fill="black" stroke="black" points="408.48,-118.65 407.44,-108.1 401.68,-117 408.48,-118.65"/>
</g>
<!-- n22 -->
<g id="node23" class="node">
<title>n22</title>
<ellipse fill="none" stroke="black" cx="485.6" cy="-90" rx="28.7" ry="18"/>
<text text-anchor="middle" x="485.6" y="-86.3" font-family="Times New Roman,serif" font-size="14.00">Dato</text>
</g>
<!-- n18&#45;&gt;n22 -->
<g id="edge22" class="edge">
<title>n18&#45;&gt;n22</title>
<path fill="none" stroke="black" d="M415.7,-144.76C428.92,-134.6 446.04,-121.43 460.03,-110.67"/>
<polygon fill="black" stroke="black" points="462.47,-113.2 468.27,-104.33 458.21,-107.65 462.47,-113.2"/>
</g>
<!-- n20 -->
<g id="node21" class="node">
<title>n20</title>
<ellipse fill="none" stroke="black" cx="337.6" cy="-18" rx="27" ry="18"/>
<text text-anchor="middle" x="337.6" y="-14.3" font-family="Times New Roman,serif" font-size="14.00">2</text>
</g>
<!-- n19&#45;&gt;n20 -->
<g id="edge20" class="edge">
<title>n19&#45;&gt;n20</title>
<path fill="none" stroke="black" d="M337.6,-71.7C337.6,-63.98 337.6,-54.71 337.6,-46.11"/>
<polygon fill="black" stroke="black" points="341.1,-46.1 337.6,-36.1 334.1,-46.1 341.1,-46.1"/>
</g>
<!-- n23 -->
<g id="node24" class="node">
<title>n23</title>
<ellipse fill="none" stroke="black" cx="485.6" cy="-18" rx="27" ry="18"/>
<text text-anchor="middle" x="485.6" y="-14.3" font-family="Times New Roman,serif" font-size="14.00">2</text>
</g>
<!-- n22&#45;&gt;n23 -->
<g id="edge23" class="edge">
<title>n22&#45;&gt;n23</title>
<path fill="none" stroke="black" d="M485.6,-71.7C485.6,-63.98 485.6,-54.71 485.6,-46.11"/>
<polygon fill="black" stroke="black" points="489.1,-46.1 485.6,-36.1 482.1,-46.1 489.1,-46.1"/>
</g>
<!-- n26 -->
<g id="node27" class="node">
<title>n26</title>
<ellipse fill="none" stroke="black" cx="574.6" cy="-90" rx="27" ry="18"/>
<text text-anchor="middle" x="574.6" y="-86.3" font-family="Times New Roman,serif" font-size="14.00">4</text>
</g>
<!-- n25&#45;&gt;n26 -->
<g id="edge26" class="edge">
<title>n25&#45;&gt;n26</title>
<path fill="none" stroke="black" d="M574.6,-143.7C574.6,-135.98 574.6,-126.71 574.6,-118.11"/>
<polygon fill="black" stroke="black" points="578.1,-118.1 574.6,-108.1 571.1,-118.1 578.1,-118.1"/>
</g>
</g>
</svg>
