<?xml version="1.0" encoding="UTF-8" standalone="no"?>
<!DOCTYPE svg PUBLIC "-//W3C//DTD SVG 1.1//EN"
 "http://www.w3.org/Graphics/SVG/1.1/DTD/svg11.dtd">
<!-- Generated by graphviz version 10.0.1 (20240210.2158)
 -->
<!-- Title: arbolAST Pages: 1 -->
<svg width="1204pt" height="404pt"
 viewBox="0.00 0.00 1204.00 404.00" xmlns="http://www.w3.org/2000/svg" xmlns:xlink="http://www.w3.org/1999/xlink">
<g id="graph0" class="graph" transform="scale(1 1) rotate(0) translate(4 400)">
<title>arbolAST</title>
<polygon fill="white" stroke="none" points="-4,4 -4,-400 1200,-400 1200,4 -4,4"/>
<!-- n0 -->
<g id="node1" class="node">
<title>n0</title>
<ellipse fill="none" stroke="black" cx="380" cy="-378" rx="39.58" ry="18"/>
<text text-anchor="middle" x="380" y="-372.95" font-family="Times,serif" font-size="14.00">INICIO</text>
</g>
<!-- n1 -->
<g id="node2" class="node">
<title>n1</title>
<ellipse fill="none" stroke="black" cx="380" cy="-306" rx="83.6" ry="18"/>
<text text-anchor="middle" x="380" y="-300.95" font-family="Times,serif" font-size="14.00">INSTRUCCIONES</text>
</g>
<!-- n0&#45;&gt;n1 -->
<g id="edge1" class="edge">
<title>n0&#45;&gt;n1</title>
<path fill="none" stroke="black" d="M380,-359.7C380,-352.41 380,-343.73 380,-335.54"/>
<polygon fill="black" stroke="black" points="383.5,-335.62 380,-325.62 376.5,-335.62 383.5,-335.62"/>
</g>
<!-- n2 -->
<g id="node3" class="node">
<title>n2</title>
<ellipse fill="none" stroke="black" cx="171" cy="-234" rx="76.94" ry="18"/>
<text text-anchor="middle" x="171" y="-228.95" font-family="Times,serif" font-size="14.00">DECLARACION</text>
</g>
<!-- n1&#45;&gt;n2 -->
<g id="edge2" class="edge">
<title>n1&#45;&gt;n2</title>
<path fill="none" stroke="black" d="M336.19,-290.33C303.68,-279.44 259.17,-264.53 224.55,-252.94"/>
<polygon fill="black" stroke="black" points="225.71,-249.63 215.12,-249.78 223.49,-256.27 225.71,-249.63"/>
</g>
<!-- n8 -->
<g id="node9" class="node">
<title>n8</title>
<ellipse fill="none" stroke="black" cx="602" cy="-234" rx="41.12" ry="18"/>
<text text-anchor="middle" x="602" y="-228.95" font-family="Times,serif" font-size="14.00">WHILE</text>
</g>
<!-- n1&#45;&gt;n8 -->
<g id="edge8" class="edge">
<title>n1&#45;&gt;n8</title>
<path fill="none" stroke="black" d="M425.73,-290.58C464.66,-278.3 520.21,-260.79 558.49,-248.72"/>
<polygon fill="black" stroke="black" points="559.36,-252.11 567.85,-245.77 557.26,-245.44 559.36,-252.11"/>
</g>
<!-- n3 -->
<g id="node4" class="node">
<title>n3</title>
<ellipse fill="none" stroke="black" cx="27" cy="-162" rx="27" ry="18"/>
<text text-anchor="middle" x="27" y="-156.95" font-family="Times,serif" font-size="14.00">int</text>
</g>
<!-- n2&#45;&gt;n3 -->
<g id="edge3" class="edge">
<title>n2&#45;&gt;n3</title>
<path fill="none" stroke="black" d="M138.68,-217.29C114.81,-205.69 82.47,-189.97 58.74,-178.43"/>
<polygon fill="black" stroke="black" points="60.38,-175.34 49.86,-174.11 57.32,-181.63 60.38,-175.34"/>
</g>
<!-- n4 -->
<g id="node5" class="node">
<title>n4</title>
<ellipse fill="none" stroke="black" cx="99" cy="-162" rx="27" ry="18"/>
<text text-anchor="middle" x="99" y="-156.95" font-family="Times,serif" font-size="14.00">x</text>
</g>
<!-- n2&#45;&gt;n4 -->
<g id="edge4" class="edge">
<title>n2&#45;&gt;n4</title>
<path fill="none" stroke="black" d="M153.57,-216.05C144.08,-206.82 132.21,-195.29 121.97,-185.33"/>
<polygon fill="black" stroke="black" points="124.53,-182.94 114.92,-178.48 119.65,-187.96 124.53,-182.94"/>
</g>
<!-- n5 -->
<g id="node6" class="node">
<title>n5</title>
<ellipse fill="none" stroke="black" cx="171" cy="-162" rx="27" ry="18"/>
<text text-anchor="middle" x="171" y="-156.95" font-family="Times,serif" font-size="14.00">=</text>
</g>
<!-- n2&#45;&gt;n5 -->
<g id="edge5" class="edge">
<title>n2&#45;&gt;n5</title>
<path fill="none" stroke="black" d="M171,-215.7C171,-208.41 171,-199.73 171,-191.54"/>
<polygon fill="black" stroke="black" points="174.5,-191.62 171,-181.62 167.5,-191.62 174.5,-191.62"/>
</g>
<!-- n6 -->
<g id="node7" class="node">
<title>n6</title>
<ellipse fill="none" stroke="black" cx="245" cy="-162" rx="28.83" ry="18"/>
<text text-anchor="middle" x="245" y="-156.95" font-family="Times,serif" font-size="14.00">Dato</text>
</g>
<!-- n2&#45;&gt;n6 -->
<g id="edge6" class="edge">
<title>n2&#45;&gt;n6</title>
<path fill="none" stroke="black" d="M188.91,-216.05C198.67,-206.82 210.87,-195.29 221.39,-185.33"/>
<polygon fill="black" stroke="black" points="223.79,-187.88 228.65,-178.46 218.98,-182.79 223.79,-187.88"/>
</g>
<!-- n7 -->
<g id="node8" class="node">
<title>n7</title>
<ellipse fill="none" stroke="black" cx="231" cy="-90" rx="27" ry="18"/>
<text text-anchor="middle" x="231" y="-84.95" font-family="Times,serif" font-size="14.00">1</text>
</g>
<!-- n6&#45;&gt;n7 -->
<g id="edge7" class="edge">
<title>n6&#45;&gt;n7</title>
<path fill="none" stroke="black" d="M241.54,-143.7C240.06,-136.32 238.3,-127.52 236.65,-119.25"/>
<polygon fill="black" stroke="black" points="240.11,-118.71 234.72,-109.59 233.25,-120.08 240.11,-118.71"/>
</g>
<!-- n9 -->
<g id="node10" class="node">
<title>n9</title>
<ellipse fill="none" stroke="black" cx="336" cy="-162" rx="31.39" ry="18"/>
<text text-anchor="middle" x="336" y="-156.95" font-family="Times,serif" font-size="14.00">while</text>
</g>
<!-- n8&#45;&gt;n9 -->
<g id="edge9" class="edge">
<title>n8&#45;&gt;n9</title>
<path fill="none" stroke="black" d="M564.27,-226.21C518.95,-217.59 440.92,-201.24 376,-180 374.18,-179.4 372.32,-178.76 370.45,-178.08"/>
<polygon fill="black" stroke="black" points="371.86,-174.87 361.27,-174.48 369.3,-181.39 371.86,-174.87"/>
</g>
<!-- n10 -->
<g id="node11" class="node">
<title>n10</title>
<ellipse fill="none" stroke="black" cx="412" cy="-162" rx="27" ry="18"/>
<text text-anchor="middle" x="412" y="-156.95" font-family="Times,serif" font-size="14.00">(</text>
</g>
<!-- n8&#45;&gt;n10 -->
<g id="edge10" class="edge">
<title>n8&#45;&gt;n10</title>
<path fill="none" stroke="black" d="M569.17,-222.86C537.73,-212.87 489.12,-196.73 448,-180 446.48,-179.38 444.93,-178.73 443.37,-178.06"/>
<polygon fill="black" stroke="black" points="445.08,-174.99 434.53,-174.08 442.21,-181.38 445.08,-174.99"/>
</g>
<!-- n11 -->
<g id="node12" class="node">
<title>n11</title>
<ellipse fill="none" stroke="black" cx="507" cy="-162" rx="50.33" ry="18"/>
<text text-anchor="middle" x="507" y="-156.95" font-family="Times,serif" font-size="14.00">Relacional</text>
</g>
<!-- n8&#45;&gt;n11 -->
<g id="edge11" class="edge">
<title>n8&#45;&gt;n11</title>
<path fill="none" stroke="black" d="M581.85,-218.15C568.9,-208.61 551.82,-196.03 537.25,-185.29"/>
<polygon fill="black" stroke="black" points="539.45,-182.56 529.32,-179.45 535.3,-188.2 539.45,-182.56"/>
</g>
<!-- n16 -->
<g id="node17" class="node">
<title>n16</title>
<ellipse fill="none" stroke="black" cx="602" cy="-162" rx="27" ry="18"/>
<text text-anchor="middle" x="602" y="-156.95" font-family="Times,serif" font-size="14.00">)</text>
</g>
<!-- n8&#45;&gt;n16 -->
<g id="edge16" class="edge">
<title>n8&#45;&gt;n16</title>
<path fill="none" stroke="black" d="M602,-215.7C602,-208.41 602,-199.73 602,-191.54"/>
<polygon fill="black" stroke="black" points="605.5,-191.62 602,-181.62 598.5,-191.62 605.5,-191.62"/>
</g>
<!-- n17 -->
<g id="node18" class="node">
<title>n17</title>
<ellipse fill="none" stroke="black" cx="674" cy="-162" rx="27" ry="18"/>
<text text-anchor="middle" x="674" y="-156.95" font-family="Times,serif" font-size="14.00">{</text>
</g>
<!-- n8&#45;&gt;n17 -->
<g id="edge17" class="edge">
<title>n8&#45;&gt;n17</title>
<path fill="none" stroke="black" d="M618.34,-217.12C628.03,-207.69 640.46,-195.61 651.12,-185.25"/>
<polygon fill="black" stroke="black" points="653.38,-187.93 658.11,-178.45 648.5,-182.91 653.38,-187.93"/>
</g>
<!-- n18 -->
<g id="node19" class="node">
<title>n18</title>
<ellipse fill="none" stroke="black" cx="764" cy="-162" rx="37.53" ry="18"/>
<text text-anchor="middle" x="764" y="-156.95" font-family="Times,serif" font-size="14.00">PRINT</text>
</g>
<!-- n8&#45;&gt;n18 -->
<g id="edge18" class="edge">
<title>n8&#45;&gt;n18</title>
<path fill="none" stroke="black" d="M630.59,-220.65C657.29,-209.11 697.29,-191.82 726.53,-179.19"/>
<polygon fill="black" stroke="black" points="727.59,-182.54 735.39,-175.36 724.82,-176.12 727.59,-182.54"/>
</g>
<!-- n24 -->
<g id="node25" class="node">
<title>n24</title>
<ellipse fill="none" stroke="black" cx="986" cy="-162" rx="137.85" ry="18"/>
<text text-anchor="middle" x="986" y="-156.95" font-family="Times,serif" font-size="14.00">INCREMENTO/DECREMENTO</text>
</g>
<!-- n8&#45;&gt;n24 -->
<g id="edge24" class="edge">
<title>n8&#45;&gt;n24</title>
<path fill="none" stroke="black" d="M639.52,-226.16C698.64,-215.38 815.12,-194.15 896.64,-179.29"/>
<polygon fill="black" stroke="black" points="897.2,-182.74 906.41,-177.51 895.95,-175.86 897.2,-182.74"/>
</g>
<!-- n27 -->
<g id="node28" class="node">
<title>n27</title>
<ellipse fill="none" stroke="black" cx="1169" cy="-162" rx="27" ry="18"/>
<text text-anchor="middle" x="1169" y="-156.95" font-family="Times,serif" font-size="14.00">}</text>
</g>
<!-- n8&#45;&gt;n27 -->
<g id="edge27" class="edge">
<title>n8&#45;&gt;n27</title>
<path fill="none" stroke="black" d="M643.51,-233.61C734.13,-233.93 955.78,-229.11 1133,-180 1134.62,-179.55 1136.26,-179.03 1137.9,-178.46"/>
<polygon fill="black" stroke="black" points="1139.18,-181.72 1147.12,-174.71 1136.54,-175.24 1139.18,-181.72"/>
</g>
<!-- n12 -->
<g id="node13" class="node">
<title>n12</title>
<ellipse fill="none" stroke="black" cx="332" cy="-90" rx="56.47" ry="18"/>
<text text-anchor="middle" x="332" y="-84.95" font-family="Times,serif" font-size="14.00">VARIABLE</text>
</g>
<!-- n11&#45;&gt;n12 -->
<g id="edge12" class="edge">
<title>n11&#45;&gt;n12</title>
<path fill="none" stroke="black" d="M474.49,-148C446.91,-136.96 407.05,-121.02 376.51,-108.8"/>
<polygon fill="black" stroke="black" points="378.11,-105.68 367.53,-105.21 375.51,-112.18 378.11,-105.68"/>
</g>
<!-- n13 -->
<g id="node14" class="node">
<title>n13</title>
<ellipse fill="none" stroke="black" cx="433" cy="-90" rx="27" ry="18"/>
<text text-anchor="middle" x="433" y="-84.95" font-family="Times,serif" font-size="14.00">&lt;</text>
</g>
<!-- n11&#45;&gt;n13 -->
<g id="edge13" class="edge">
<title>n11&#45;&gt;n13</title>
<path fill="none" stroke="black" d="M489.84,-144.76C479.86,-135.33 467.16,-123.32 456.3,-113.04"/>
<polygon fill="black" stroke="black" points="458.83,-110.62 449.16,-106.29 454.02,-115.7 458.83,-110.62"/>
</g>
<!-- n14 -->
<g id="node15" class="node">
<title>n14</title>
<ellipse fill="none" stroke="black" cx="507" cy="-90" rx="28.83" ry="18"/>
<text text-anchor="middle" x="507" y="-84.95" font-family="Times,serif" font-size="14.00">Dato</text>
</g>
<!-- n11&#45;&gt;n14 -->
<g id="edge14" class="edge">
<title>n11&#45;&gt;n14</title>
<path fill="none" stroke="black" d="M507,-143.7C507,-136.41 507,-127.73 507,-119.54"/>
<polygon fill="black" stroke="black" points="510.5,-119.62 507,-109.62 503.5,-119.62 510.5,-119.62"/>
</g>
<!-- n15 -->
<g id="node16" class="node">
<title>n15</title>
<ellipse fill="none" stroke="black" cx="507" cy="-18" rx="27" ry="18"/>
<text text-anchor="middle" x="507" y="-12.95" font-family="Times,serif" font-size="14.00">15</text>
</g>
<!-- n14&#45;&gt;n15 -->
<g id="edge15" class="edge">
<title>n14&#45;&gt;n15</title>
<path fill="none" stroke="black" d="M507,-71.7C507,-64.41 507,-55.73 507,-47.54"/>
<polygon fill="black" stroke="black" points="510.5,-47.62 507,-37.62 503.5,-47.62 510.5,-47.62"/>
</g>
<!-- n19 -->
<g id="node20" class="node">
<title>n19</title>
<ellipse fill="none" stroke="black" cx="589" cy="-90" rx="35.49" ry="18"/>
<text text-anchor="middle" x="589" y="-84.95" font-family="Times,serif" font-size="14.00">println</text>
</g>
<!-- n18&#45;&gt;n19 -->
<g id="edge19" class="edge">
<title>n18&#45;&gt;n19</title>
<path fill="none" stroke="black" d="M735.88,-149.75C706.28,-137.91 659.51,-119.21 626.72,-106.09"/>
<polygon fill="black" stroke="black" points="628.17,-102.9 617.59,-102.44 625.57,-109.4 628.17,-102.9"/>
</g>
<!-- n20 -->
<g id="node21" class="node">
<title>n20</title>
<ellipse fill="none" stroke="black" cx="669" cy="-90" rx="27" ry="18"/>
<text text-anchor="middle" x="669" y="-84.95" font-family="Times,serif" font-size="14.00">(</text>
</g>
<!-- n18&#45;&gt;n20 -->
<g id="edge20" class="edge">
<title>n18&#45;&gt;n20</title>
<path fill="none" stroke="black" d="M744.32,-146.5C730.27,-136.15 711.22,-122.11 695.8,-110.75"/>
<polygon fill="black" stroke="black" points="698.08,-108.08 687.95,-104.97 693.93,-113.72 698.08,-108.08"/>
</g>
<!-- n21 -->
<g id="node22" class="node">
<title>n21</title>
<ellipse fill="none" stroke="black" cx="770" cy="-90" rx="56.47" ry="18"/>
<text text-anchor="middle" x="770" y="-84.95" font-family="Times,serif" font-size="14.00">VARIABLE</text>
</g>
<!-- n18&#45;&gt;n21 -->
<g id="edge21" class="edge">
<title>n18&#45;&gt;n21</title>
<path fill="none" stroke="black" d="M765.48,-143.7C766.11,-136.41 766.85,-127.73 767.55,-119.54"/>
<polygon fill="black" stroke="black" points="771.04,-119.87 768.4,-109.61 764.06,-119.28 771.04,-119.87"/>
</g>
<!-- n22 -->
<g id="node23" class="node">
<title>n22</title>
<ellipse fill="none" stroke="black" cx="871" cy="-90" rx="27" ry="18"/>
<text text-anchor="middle" x="871" y="-84.95" font-family="Times,serif" font-size="14.00">)</text>
</g>
<!-- n18&#45;&gt;n22 -->
<g id="edge22" class="edge">
<title>n18&#45;&gt;n22</title>
<path fill="none" stroke="black" d="M785.65,-146.83C802.06,-136.1 824.76,-121.25 842.62,-109.56"/>
<polygon fill="black" stroke="black" points="844.52,-112.51 850.97,-104.1 840.69,-106.65 844.52,-112.51"/>
</g>
<!-- n23 -->
<g id="node24" class="node">
<title>n23</title>
<ellipse fill="none" stroke="black" cx="943" cy="-90" rx="27" ry="18"/>
<text text-anchor="middle" x="943" y="-84.95" font-family="Times,serif" font-size="14.00">;</text>
</g>
<!-- n18&#45;&gt;n23 -->
<g id="edge23" class="edge">
<title>n18&#45;&gt;n23</title>
<path fill="none" stroke="black" d="M793.87,-150.77C823,-140.6 868.44,-124.22 907,-108 908.51,-107.36 910.06,-106.7 911.61,-106.02"/>
<polygon fill="black" stroke="black" points="912.78,-109.33 920.44,-102 909.89,-102.96 912.78,-109.33"/>
</g>
<!-- n25 -->
<g id="node26" class="node">
<title>n25</title>
<ellipse fill="none" stroke="black" cx="1015" cy="-90" rx="27" ry="18"/>
<text text-anchor="middle" x="1015" y="-84.95" font-family="Times,serif" font-size="14.00">x</text>
</g>
<!-- n24&#45;&gt;n25 -->
<g id="edge25" class="edge">
<title>n24&#45;&gt;n25</title>
<path fill="none" stroke="black" d="M993.17,-143.7C996.38,-135.95 1000.23,-126.64 1003.81,-118.02"/>
<polygon fill="black" stroke="black" points="1006.94,-119.6 1007.53,-109.02 1000.47,-116.92 1006.94,-119.6"/>
</g>
<!-- n26 -->
<g id="node27" class="node">
<title>n26</title>
<ellipse fill="none" stroke="black" cx="1087" cy="-90" rx="27" ry="18"/>
<text text-anchor="middle" x="1087" y="-84.95" font-family="Times,serif" font-size="14.00">++</text>
</g>
<!-- n24&#45;&gt;n26 -->
<g id="edge26" class="edge">
<title>n24&#45;&gt;n26</title>
<path fill="none" stroke="black" d="M1010.71,-143.88C1025.46,-133.65 1044.23,-120.64 1059.46,-110.08"/>
<polygon fill="black" stroke="black" points="1061.41,-112.99 1067.64,-104.42 1057.43,-107.24 1061.41,-112.99"/>
</g>
</g>
</svg>
