<?xml version="1.0" encoding="UTF-8" standalone="no"?>
<!DOCTYPE svg PUBLIC "-//W3C//DTD SVG 1.1//EN"
 "http://www.w3.org/Graphics/SVG/1.1/DTD/svg11.dtd">
<!-- Generated by graphviz version 10.0.1 (20240210.2158)
 -->
<!-- Title: arbolAST Pages: 1 -->
<svg width="1214pt" height="404pt"
 viewBox="0.00 0.00 1214.49 404.00" xmlns="http://www.w3.org/2000/svg" xmlns:xlink="http://www.w3.org/1999/xlink">
<g id="graph0" class="graph" transform="scale(1 1) rotate(0) translate(4 400)">
<title>arbolAST</title>
<polygon fill="white" stroke="none" points="-4,4 -4,-400 1210.49,-400 1210.49,4 -4,4"/>
<!-- n0 -->
<g id="node1" class="node">
<title>n0</title>
<ellipse fill="none" stroke="black" cx="590.49" cy="-378" rx="39.58" ry="18"/>
<text text-anchor="middle" x="590.49" y="-372.95" font-family="Times,serif" font-size="14.00">INICIO</text>
</g>
<!-- n1 -->
<g id="node2" class="node">
<title>n1</title>
<ellipse fill="none" stroke="black" cx="590.49" cy="-306" rx="83.6" ry="18"/>
<text text-anchor="middle" x="590.49" y="-300.95" font-family="Times,serif" font-size="14.00">INSTRUCCIONES</text>
</g>
<!-- n0&#45;&gt;n1 -->
<g id="edge1" class="edge">
<title>n0&#45;&gt;n1</title>
<path fill="none" stroke="black" d="M590.49,-359.7C590.49,-352.41 590.49,-343.73 590.49,-335.54"/>
<polygon fill="black" stroke="black" points="593.99,-335.62 590.49,-325.62 586.99,-335.62 593.99,-335.62"/>
</g>
<!-- n2 -->
<g id="node3" class="node">
<title>n2</title>
<ellipse fill="none" stroke="black" cx="226.49" cy="-234" rx="37.53" ry="18"/>
<text text-anchor="middle" x="226.49" y="-228.95" font-family="Times,serif" font-size="14.00">PRINT</text>
</g>
<!-- n1&#45;&gt;n2 -->
<g id="edge2" class="edge">
<title>n1&#45;&gt;n2</title>
<path fill="none" stroke="black" d="M529.56,-293.28C456.82,-279.29 336.85,-256.22 271.81,-243.72"/>
<polygon fill="black" stroke="black" points="272.68,-240.32 262.2,-241.87 271.36,-247.19 272.68,-240.32"/>
</g>
<!-- n9 -->
<g id="node10" class="node">
<title>n9</title>
<ellipse fill="none" stroke="black" cx="590.49" cy="-234" rx="37.53" ry="18"/>
<text text-anchor="middle" x="590.49" y="-228.95" font-family="Times,serif" font-size="14.00">PRINT</text>
</g>
<!-- n1&#45;&gt;n9 -->
<g id="edge9" class="edge">
<title>n1&#45;&gt;n9</title>
<path fill="none" stroke="black" d="M590.49,-287.7C590.49,-280.41 590.49,-271.73 590.49,-263.54"/>
<polygon fill="black" stroke="black" points="593.99,-263.62 590.49,-253.62 586.99,-263.62 593.99,-263.62"/>
</g>
<!-- n20 -->
<g id="node21" class="node">
<title>n20</title>
<ellipse fill="none" stroke="black" cx="964.49" cy="-234" rx="37.53" ry="18"/>
<text text-anchor="middle" x="964.49" y="-228.95" font-family="Times,serif" font-size="14.00">PRINT</text>
</g>
<!-- n1&#45;&gt;n20 -->
<g id="edge20" class="edge">
<title>n1&#45;&gt;n20</title>
<path fill="none" stroke="black" d="M651.83,-293.52C726.85,-279.48 852.12,-256.03 919.05,-243.5"/>
<polygon fill="black" stroke="black" points="919.39,-247 928.57,-241.72 918.1,-240.12 919.39,-247"/>
</g>
<!-- n3 -->
<g id="node4" class="node">
<title>n3</title>
<ellipse fill="none" stroke="black" cx="35.49" cy="-162" rx="35.49" ry="18"/>
<text text-anchor="middle" x="35.49" y="-156.95" font-family="Times,serif" font-size="14.00">println</text>
</g>
<!-- n2&#45;&gt;n3 -->
<g id="edge3" class="edge">
<title>n2&#45;&gt;n3</title>
<path fill="none" stroke="black" d="M196.85,-222.54C167.11,-211.99 120.02,-195.14 79.49,-180 77.56,-179.28 75.58,-178.54 73.59,-177.78"/>
<polygon fill="black" stroke="black" points="74.91,-174.54 64.32,-174.25 72.42,-181.08 74.91,-174.54"/>
</g>
<!-- n4 -->
<g id="node5" class="node">
<title>n4</title>
<ellipse fill="none" stroke="black" cx="115.49" cy="-162" rx="27" ry="18"/>
<text text-anchor="middle" x="115.49" y="-156.95" font-family="Times,serif" font-size="14.00">(</text>
</g>
<!-- n2&#45;&gt;n4 -->
<g id="edge4" class="edge">
<title>n2&#45;&gt;n4</title>
<path fill="none" stroke="black" d="M204.29,-219C187.02,-208.11 162.93,-192.92 144.19,-181.1"/>
<polygon fill="black" stroke="black" points="146.29,-178.29 135.96,-175.91 142.55,-184.21 146.29,-178.29"/>
</g>
<!-- n5 -->
<g id="node6" class="node">
<title>n5</title>
<ellipse fill="none" stroke="black" cx="189.49" cy="-162" rx="28.83" ry="18"/>
<text text-anchor="middle" x="189.49" y="-156.95" font-family="Times,serif" font-size="14.00">Dato</text>
</g>
<!-- n2&#45;&gt;n5 -->
<g id="edge5" class="edge">
<title>n2&#45;&gt;n5</title>
<path fill="none" stroke="black" d="M217.53,-216.05C213.29,-208.03 208.12,-198.26 203.39,-189.3"/>
<polygon fill="black" stroke="black" points="206.58,-187.85 198.81,-180.65 200.39,-191.12 206.58,-187.85"/>
</g>
<!-- n7 -->
<g id="node8" class="node">
<title>n7</title>
<ellipse fill="none" stroke="black" cx="263.49" cy="-162" rx="27" ry="18"/>
<text text-anchor="middle" x="263.49" y="-156.95" font-family="Times,serif" font-size="14.00">)</text>
</g>
<!-- n2&#45;&gt;n7 -->
<g id="edge7" class="edge">
<title>n2&#45;&gt;n7</title>
<path fill="none" stroke="black" d="M235.44,-216.05C239.68,-208.03 244.85,-198.26 249.59,-189.3"/>
<polygon fill="black" stroke="black" points="252.58,-191.12 254.16,-180.65 246.39,-187.85 252.58,-191.12"/>
</g>
<!-- n8 -->
<g id="node9" class="node">
<title>n8</title>
<ellipse fill="none" stroke="black" cx="335.49" cy="-162" rx="27" ry="18"/>
<text text-anchor="middle" x="335.49" y="-156.95" font-family="Times,serif" font-size="14.00">;</text>
</g>
<!-- n2&#45;&gt;n8 -->
<g id="edge8" class="edge">
<title>n2&#45;&gt;n8</title>
<path fill="none" stroke="black" d="M248.28,-219C265.16,-208.16 288.68,-193.06 307.04,-181.27"/>
<polygon fill="black" stroke="black" points="308.84,-184.27 315.36,-175.92 305.06,-178.38 308.84,-184.27"/>
</g>
<!-- n6 -->
<g id="node7" class="node">
<title>n6</title>
<ellipse fill="none" stroke="black" cx="189.49" cy="-90" rx="27" ry="18"/>
<text text-anchor="middle" x="189.49" y="-84.95" font-family="Times,serif" font-size="14.00">80</text>
</g>
<!-- n5&#45;&gt;n6 -->
<g id="edge6" class="edge">
<title>n5&#45;&gt;n6</title>
<path fill="none" stroke="black" d="M189.49,-143.7C189.49,-136.41 189.49,-127.73 189.49,-119.54"/>
<polygon fill="black" stroke="black" points="192.99,-119.62 189.49,-109.62 185.99,-119.62 192.99,-119.62"/>
</g>
<!-- n10 -->
<g id="node11" class="node">
<title>n10</title>
<ellipse fill="none" stroke="black" cx="415.49" cy="-162" rx="35.49" ry="18"/>
<text text-anchor="middle" x="415.49" y="-156.95" font-family="Times,serif" font-size="14.00">println</text>
</g>
<!-- n9&#45;&gt;n10 -->
<g id="edge10" class="edge">
<title>n9&#45;&gt;n10</title>
<path fill="none" stroke="black" d="M562.37,-221.75C532.77,-209.91 486,-191.21 453.21,-178.09"/>
<polygon fill="black" stroke="black" points="454.66,-174.9 444.07,-174.44 452.06,-181.4 454.66,-174.9"/>
</g>
<!-- n11 -->
<g id="node12" class="node">
<title>n11</title>
<ellipse fill="none" stroke="black" cx="495.49" cy="-162" rx="27" ry="18"/>
<text text-anchor="middle" x="495.49" y="-156.95" font-family="Times,serif" font-size="14.00">(</text>
</g>
<!-- n9&#45;&gt;n11 -->
<g id="edge11" class="edge">
<title>n9&#45;&gt;n11</title>
<path fill="none" stroke="black" d="M570.8,-218.5C556.76,-208.15 537.71,-194.11 522.28,-182.75"/>
<polygon fill="black" stroke="black" points="524.57,-180.08 514.44,-176.97 520.41,-185.72 524.57,-180.08"/>
</g>
<!-- n12 -->
<g id="node13" class="node">
<title>n12</title>
<ellipse fill="none" stroke="black" cx="590.49" cy="-162" rx="50.33" ry="18"/>
<text text-anchor="middle" x="590.49" y="-156.95" font-family="Times,serif" font-size="14.00">Relacional</text>
</g>
<!-- n9&#45;&gt;n12 -->
<g id="edge12" class="edge">
<title>n9&#45;&gt;n12</title>
<path fill="none" stroke="black" d="M590.49,-215.7C590.49,-208.41 590.49,-199.73 590.49,-191.54"/>
<polygon fill="black" stroke="black" points="593.99,-191.62 590.49,-181.62 586.99,-191.62 593.99,-191.62"/>
</g>
<!-- n18 -->
<g id="node19" class="node">
<title>n18</title>
<ellipse fill="none" stroke="black" cx="685.49" cy="-162" rx="27" ry="18"/>
<text text-anchor="middle" x="685.49" y="-156.95" font-family="Times,serif" font-size="14.00">)</text>
</g>
<!-- n9&#45;&gt;n18 -->
<g id="edge18" class="edge">
<title>n9&#45;&gt;n18</title>
<path fill="none" stroke="black" d="M610.17,-218.5C624.21,-208.15 643.26,-194.11 658.69,-182.75"/>
<polygon fill="black" stroke="black" points="660.56,-185.72 666.53,-176.97 656.4,-180.08 660.56,-185.72"/>
</g>
<!-- n19 -->
<g id="node20" class="node">
<title>n19</title>
<ellipse fill="none" stroke="black" cx="757.49" cy="-162" rx="27" ry="18"/>
<text text-anchor="middle" x="757.49" y="-156.95" font-family="Times,serif" font-size="14.00">;</text>
</g>
<!-- n9&#45;&gt;n19 -->
<g id="edge19" class="edge">
<title>n9&#45;&gt;n19</title>
<path fill="none" stroke="black" d="M619.04,-221.99C645.71,-211.57 686.54,-195.31 721.49,-180 722.99,-179.34 724.52,-178.66 726.07,-177.96"/>
<polygon fill="black" stroke="black" points="727.26,-181.27 734.88,-173.9 724.33,-174.91 727.26,-181.27"/>
</g>
<!-- n13 -->
<g id="node14" class="node">
<title>n13</title>
<ellipse fill="none" stroke="black" cx="516.49" cy="-90" rx="28.83" ry="18"/>
<text text-anchor="middle" x="516.49" y="-84.95" font-family="Times,serif" font-size="14.00">Dato</text>
</g>
<!-- n12&#45;&gt;n13 -->
<g id="edge13" class="edge">
<title>n12&#45;&gt;n13</title>
<path fill="none" stroke="black" d="M573.32,-144.76C563.35,-135.33 550.65,-123.32 539.78,-113.04"/>
<polygon fill="black" stroke="black" points="542.32,-110.62 532.65,-106.29 537.51,-115.7 542.32,-110.62"/>
</g>
<!-- n15 -->
<g id="node16" class="node">
<title>n15</title>
<ellipse fill="none" stroke="black" cx="590.49" cy="-90" rx="27" ry="18"/>
<text text-anchor="middle" x="590.49" y="-84.95" font-family="Times,serif" font-size="14.00">==</text>
</g>
<!-- n12&#45;&gt;n15 -->
<g id="edge15" class="edge">
<title>n12&#45;&gt;n15</title>
<path fill="none" stroke="black" d="M590.49,-143.7C590.49,-136.41 590.49,-127.73 590.49,-119.54"/>
<polygon fill="black" stroke="black" points="593.99,-119.62 590.49,-109.62 586.99,-119.62 593.99,-119.62"/>
</g>
<!-- n16 -->
<g id="node17" class="node">
<title>n16</title>
<ellipse fill="none" stroke="black" cx="664.49" cy="-90" rx="28.83" ry="18"/>
<text text-anchor="middle" x="664.49" y="-84.95" font-family="Times,serif" font-size="14.00">Dato</text>
</g>
<!-- n12&#45;&gt;n16 -->
<g id="edge16" class="edge">
<title>n12&#45;&gt;n16</title>
<path fill="none" stroke="black" d="M607.65,-144.76C617.62,-135.33 630.32,-123.32 641.19,-113.04"/>
<polygon fill="black" stroke="black" points="643.46,-115.7 648.32,-106.29 638.65,-110.62 643.46,-115.7"/>
</g>
<!-- n14 -->
<g id="node15" class="node">
<title>n14</title>
<ellipse fill="none" stroke="black" cx="516.49" cy="-18" rx="27" ry="18"/>
<text text-anchor="middle" x="516.49" y="-12.95" font-family="Times,serif" font-size="14.00">3</text>
</g>
<!-- n13&#45;&gt;n14 -->
<g id="edge14" class="edge">
<title>n13&#45;&gt;n14</title>
<path fill="none" stroke="black" d="M516.49,-71.7C516.49,-64.41 516.49,-55.73 516.49,-47.54"/>
<polygon fill="black" stroke="black" points="519.99,-47.62 516.49,-37.62 512.99,-47.62 519.99,-47.62"/>
</g>
<!-- n17 -->
<g id="node18" class="node">
<title>n17</title>
<ellipse fill="none" stroke="black" cx="664.49" cy="-18" rx="27" ry="18"/>
<text text-anchor="middle" x="664.49" y="-12.95" font-family="Times,serif" font-size="14.00">3</text>
</g>
<!-- n16&#45;&gt;n17 -->
<g id="edge17" class="edge">
<title>n16&#45;&gt;n17</title>
<path fill="none" stroke="black" d="M664.49,-71.7C664.49,-64.41 664.49,-55.73 664.49,-47.54"/>
<polygon fill="black" stroke="black" points="667.99,-47.62 664.49,-37.62 660.99,-47.62 667.99,-47.62"/>
</g>
<!-- n21 -->
<g id="node22" class="node">
<title>n21</title>
<ellipse fill="none" stroke="black" cx="837.49" cy="-162" rx="35.49" ry="18"/>
<text text-anchor="middle" x="837.49" y="-156.95" font-family="Times,serif" font-size="14.00">println</text>
</g>
<!-- n20&#45;&gt;n21 -->
<g id="edge21" class="edge">
<title>n20&#45;&gt;n21</title>
<path fill="none" stroke="black" d="M940.6,-219.83C920.87,-208.96 892.66,-193.41 870.73,-181.32"/>
<polygon fill="black" stroke="black" points="872.61,-178.36 862.16,-176.6 869.23,-184.49 872.61,-178.36"/>
</g>
<!-- n22 -->
<g id="node23" class="node">
<title>n22</title>
<ellipse fill="none" stroke="black" cx="917.49" cy="-162" rx="27" ry="18"/>
<text text-anchor="middle" x="917.49" y="-156.95" font-family="Times,serif" font-size="14.00">(</text>
</g>
<!-- n20&#45;&gt;n22 -->
<g id="edge22" class="edge">
<title>n20&#45;&gt;n22</title>
<path fill="none" stroke="black" d="M953.35,-216.41C947.71,-208.01 940.74,-197.63 934.45,-188.26"/>
<polygon fill="black" stroke="black" points="937.54,-186.6 929.06,-180.24 931.73,-190.5 937.54,-186.6"/>
</g>
<!-- n23 -->
<g id="node24" class="node">
<title>n23</title>
<ellipse fill="none" stroke="black" cx="1012.49" cy="-162" rx="50.33" ry="18"/>
<text text-anchor="middle" x="1012.49" y="-156.95" font-family="Times,serif" font-size="14.00">Relacional</text>
</g>
<!-- n20&#45;&gt;n23 -->
<g id="edge23" class="edge">
<title>n20&#45;&gt;n23</title>
<path fill="none" stroke="black" d="M975.86,-216.41C981.4,-208.34 988.19,-198.43 994.41,-189.35"/>
<polygon fill="black" stroke="black" points="997.23,-191.43 1000,-181.2 991.46,-187.47 997.23,-191.43"/>
</g>
<!-- n29 -->
<g id="node30" class="node">
<title>n29</title>
<ellipse fill="none" stroke="black" cx="1107.49" cy="-162" rx="27" ry="18"/>
<text text-anchor="middle" x="1107.49" y="-156.95" font-family="Times,serif" font-size="14.00">)</text>
</g>
<!-- n20&#45;&gt;n29 -->
<g id="edge29" class="edge">
<title>n20&#45;&gt;n29</title>
<path fill="none" stroke="black" d="M990.05,-220.49C1014.2,-208.66 1050.47,-190.91 1076.3,-178.26"/>
<polygon fill="black" stroke="black" points="1077.53,-181.56 1084.97,-174.02 1074.45,-175.27 1077.53,-181.56"/>
</g>
<!-- n30 -->
<g id="node31" class="node">
<title>n30</title>
<ellipse fill="none" stroke="black" cx="1179.49" cy="-162" rx="27" ry="18"/>
<text text-anchor="middle" x="1179.49" y="-156.95" font-family="Times,serif" font-size="14.00">;</text>
</g>
<!-- n20&#45;&gt;n30 -->
<g id="edge30" class="edge">
<title>n20&#45;&gt;n30</title>
<path fill="none" stroke="black" d="M997.32,-224.9C1033.6,-215.57 1093.52,-199.06 1143.49,-180 1145.02,-179.41 1146.58,-178.79 1148.14,-178.14"/>
<polygon fill="black" stroke="black" points="1149.28,-181.47 1157.01,-174.23 1146.45,-175.06 1149.28,-181.47"/>
</g>
<!-- n24 -->
<g id="node25" class="node">
<title>n24</title>
<ellipse fill="none" stroke="black" cx="938.49" cy="-90" rx="28.83" ry="18"/>
<text text-anchor="middle" x="938.49" y="-84.95" font-family="Times,serif" font-size="14.00">Dato</text>
</g>
<!-- n23&#45;&gt;n24 -->
<g id="edge24" class="edge">
<title>n23&#45;&gt;n24</title>
<path fill="none" stroke="black" d="M995.32,-144.76C985.35,-135.33 972.65,-123.32 961.78,-113.04"/>
<polygon fill="black" stroke="black" points="964.32,-110.62 954.65,-106.29 959.51,-115.7 964.32,-110.62"/>
</g>
<!-- n26 -->
<g id="node27" class="node">
<title>n26</title>
<ellipse fill="none" stroke="black" cx="1012.49" cy="-90" rx="27" ry="18"/>
<text text-anchor="middle" x="1012.49" y="-84.95" font-family="Times,serif" font-size="14.00">&lt;</text>
</g>
<!-- n23&#45;&gt;n26 -->
<g id="edge26" class="edge">
<title>n23&#45;&gt;n26</title>
<path fill="none" stroke="black" d="M1012.49,-143.7C1012.49,-136.41 1012.49,-127.73 1012.49,-119.54"/>
<polygon fill="black" stroke="black" points="1015.99,-119.62 1012.49,-109.62 1008.99,-119.62 1015.99,-119.62"/>
</g>
<!-- n27 -->
<g id="node28" class="node">
<title>n27</title>
<ellipse fill="none" stroke="black" cx="1086.49" cy="-90" rx="28.83" ry="18"/>
<text text-anchor="middle" x="1086.49" y="-84.95" font-family="Times,serif" font-size="14.00">Dato</text>
</g>
<!-- n23&#45;&gt;n27 -->
<g id="edge27" class="edge">
<title>n23&#45;&gt;n27</title>
<path fill="none" stroke="black" d="M1029.65,-144.76C1039.62,-135.33 1052.32,-123.32 1063.19,-113.04"/>
<polygon fill="black" stroke="black" points="1065.46,-115.7 1070.32,-106.29 1060.65,-110.62 1065.46,-115.7"/>
</g>
<!-- n25 -->
<g id="node26" class="node">
<title>n25</title>
<ellipse fill="none" stroke="black" cx="938.49" cy="-18" rx="27" ry="18"/>
<text text-anchor="middle" x="938.49" y="-12.95" font-family="Times,serif" font-size="14.00">6</text>
</g>
<!-- n24&#45;&gt;n25 -->
<g id="edge25" class="edge">
<title>n24&#45;&gt;n25</title>
<path fill="none" stroke="black" d="M938.49,-71.7C938.49,-64.41 938.49,-55.73 938.49,-47.54"/>
<polygon fill="black" stroke="black" points="941.99,-47.62 938.49,-37.62 934.99,-47.62 941.99,-47.62"/>
</g>
<!-- n28 -->
<g id="node29" class="node">
<title>n28</title>
<ellipse fill="none" stroke="black" cx="1086.49" cy="-18" rx="27" ry="18"/>
<text text-anchor="middle" x="1086.49" y="-12.95" font-family="Times,serif" font-size="14.00">2</text>
</g>
<!-- n27&#45;&gt;n28 -->
<g id="edge28" class="edge">
<title>n27&#45;&gt;n28</title>
<path fill="none" stroke="black" d="M1086.49,-71.7C1086.49,-64.41 1086.49,-55.73 1086.49,-47.54"/>
<polygon fill="black" stroke="black" points="1089.99,-47.62 1086.49,-37.62 1082.99,-47.62 1089.99,-47.62"/>
</g>
</g>
</svg>
