<?xml version="1.0" encoding="UTF-8" standalone="no"?>
<!DOCTYPE svg PUBLIC "-//W3C//DTD SVG 1.1//EN"
 "http://www.w3.org/Graphics/SVG/1.1/DTD/svg11.dtd">
<!-- Generated by graphviz version 10.0.1 (20240210.2158)
 -->
<!-- Title: arbolAST Pages: 1 -->
<svg width="786pt" height="404pt"
 viewBox="0.00 0.00 786.30 404.00" xmlns="http://www.w3.org/2000/svg" xmlns:xlink="http://www.w3.org/1999/xlink">
<g id="graph0" class="graph" transform="scale(1 1) rotate(0) translate(4 400)">
<title>arbolAST</title>
<polygon fill="white" stroke="none" points="-4,4 -4,-400 782.3,-400 782.3,4 -4,4"/>
<!-- n0 -->
<g id="node1" class="node">
<title>n0</title>
<ellipse fill="none" stroke="black" cx="459.3" cy="-378" rx="39.58" ry="18"/>
<text text-anchor="middle" x="459.3" y="-372.95" font-family="Times,serif" font-size="14.00">INICIO</text>
</g>
<!-- n1 -->
<g id="node2" class="node">
<title>n1</title>
<ellipse fill="none" stroke="black" cx="459.3" cy="-306" rx="83.6" ry="18"/>
<text text-anchor="middle" x="459.3" y="-300.95" font-family="Times,serif" font-size="14.00">INSTRUCCIONES</text>
</g>
<!-- n0&#45;&gt;n1 -->
<g id="edge1" class="edge">
<title>n0&#45;&gt;n1</title>
<path fill="none" stroke="black" d="M459.3,-359.7C459.3,-352.41 459.3,-343.73 459.3,-335.54"/>
<polygon fill="black" stroke="black" points="462.8,-335.62 459.3,-325.62 455.8,-335.62 462.8,-335.62"/>
</g>
<!-- n2 -->
<g id="node3" class="node">
<title>n2</title>
<ellipse fill="none" stroke="black" cx="299.3" cy="-234" rx="50.84" ry="18"/>
<text text-anchor="middle" x="299.3" y="-228.95" font-family="Times,serif" font-size="14.00">METODO</text>
</g>
<!-- n1&#45;&gt;n2 -->
<g id="edge2" class="edge">
<title>n1&#45;&gt;n2</title>
<path fill="none" stroke="black" d="M423.39,-289.29C398.96,-278.6 366.56,-264.43 340.99,-253.24"/>
<polygon fill="black" stroke="black" points="342.44,-250.06 331.88,-249.25 339.64,-256.47 342.44,-250.06"/>
</g>
<!-- n20 -->
<g id="node21" class="node">
<title>n20</title>
<ellipse fill="none" stroke="black" cx="641.3" cy="-234" rx="57.49" ry="18"/>
<text text-anchor="middle" x="641.3" y="-228.95" font-family="Times,serif" font-size="14.00">LLAMADA</text>
</g>
<!-- n1&#45;&gt;n20 -->
<g id="edge20" class="edge">
<title>n1&#45;&gt;n20</title>
<path fill="none" stroke="black" d="M498.79,-289.81C527.19,-278.89 565.57,-264.13 595.34,-252.68"/>
<polygon fill="black" stroke="black" points="596.4,-256.02 604.47,-249.16 593.88,-249.49 596.4,-256.02"/>
</g>
<!-- n3 -->
<g id="node4" class="node">
<title>n3</title>
<ellipse fill="none" stroke="black" cx="27.3" cy="-162" rx="27.3" ry="18"/>
<text text-anchor="middle" x="27.3" y="-156.95" font-family="Times,serif" font-size="14.00">void</text>
</g>
<!-- n2&#45;&gt;n3 -->
<g id="edge3" class="edge">
<title>n2&#45;&gt;n3</title>
<path fill="none" stroke="black" d="M253.67,-225.83C205.53,-217.56 127.83,-202.18 63.3,-180 61.74,-179.47 60.17,-178.89 58.59,-178.27"/>
<polygon fill="black" stroke="black" points="60.26,-175.18 49.69,-174.46 57.5,-181.61 60.26,-175.18"/>
</g>
<!-- n4 -->
<g id="node5" class="node">
<title>n4</title>
<ellipse fill="none" stroke="black" cx="102.3" cy="-162" rx="29.86" ry="18"/>
<text text-anchor="middle" x="102.3" y="-156.95" font-family="Times,serif" font-size="14.00">main</text>
</g>
<!-- n2&#45;&gt;n4 -->
<g id="edge4" class="edge">
<title>n2&#45;&gt;n4</title>
<path fill="none" stroke="black" d="M261.94,-221.48C229.71,-211.31 182.07,-195.69 141.3,-180 139.54,-179.33 137.75,-178.62 135.95,-177.89"/>
<polygon fill="black" stroke="black" points="137.64,-174.8 127.07,-174.17 134.94,-181.26 137.64,-174.8"/>
</g>
<!-- n5 -->
<g id="node6" class="node">
<title>n5</title>
<ellipse fill="none" stroke="black" cx="177.3" cy="-162" rx="27" ry="18"/>
<text text-anchor="middle" x="177.3" y="-156.95" font-family="Times,serif" font-size="14.00">{</text>
</g>
<!-- n2&#45;&gt;n5 -->
<g id="edge5" class="edge">
<title>n2&#45;&gt;n5</title>
<path fill="none" stroke="black" d="M273.42,-218.15C254.01,-207.01 227.38,-191.74 207.08,-180.09"/>
<polygon fill="black" stroke="black" points="208.84,-177.06 198.42,-175.12 205.35,-183.13 208.84,-177.06"/>
</g>
<!-- n6 -->
<g id="node7" class="node">
<title>n6</title>
<ellipse fill="none" stroke="black" cx="299.3" cy="-162" rx="76.94" ry="18"/>
<text text-anchor="middle" x="299.3" y="-156.95" font-family="Times,serif" font-size="14.00">DECLARACION</text>
</g>
<!-- n2&#45;&gt;n6 -->
<g id="edge6" class="edge">
<title>n2&#45;&gt;n6</title>
<path fill="none" stroke="black" d="M299.3,-215.7C299.3,-208.41 299.3,-199.73 299.3,-191.54"/>
<polygon fill="black" stroke="black" points="302.8,-191.62 299.3,-181.62 295.8,-191.62 302.8,-191.62"/>
</g>
<!-- n12 -->
<g id="node13" class="node">
<title>n12</title>
<ellipse fill="none" stroke="black" cx="446.3" cy="-162" rx="37.53" ry="18"/>
<text text-anchor="middle" x="446.3" y="-156.95" font-family="Times,serif" font-size="14.00">PRINT</text>
</g>
<!-- n2&#45;&gt;n12 -->
<g id="edge12" class="edge">
<title>n2&#45;&gt;n12</title>
<path fill="none" stroke="black" d="M328.69,-219C352.15,-207.83 385.12,-192.13 410.19,-180.19"/>
<polygon fill="black" stroke="black" points="411.51,-183.44 419.03,-175.98 408.5,-177.12 411.51,-183.44"/>
</g>
<!-- n19 -->
<g id="node20" class="node">
<title>n19</title>
<ellipse fill="none" stroke="black" cx="529.3" cy="-162" rx="27" ry="18"/>
<text text-anchor="middle" x="529.3" y="-156.95" font-family="Times,serif" font-size="14.00">}</text>
</g>
<!-- n2&#45;&gt;n19 -->
<g id="edge19" class="edge">
<title>n2&#45;&gt;n19</title>
<path fill="none" stroke="black" d="M341.59,-223.7C381.34,-214.43 442.21,-198.88 493.3,-180 494.84,-179.43 496.4,-178.82 497.97,-178.18"/>
<polygon fill="black" stroke="black" points="499.09,-181.51 506.85,-174.3 496.29,-175.1 499.09,-181.51"/>
</g>
<!-- n7 -->
<g id="node8" class="node">
<title>n7</title>
<ellipse fill="none" stroke="black" cx="55.3" cy="-90" rx="27" ry="18"/>
<text text-anchor="middle" x="55.3" y="-84.95" font-family="Times,serif" font-size="14.00">int</text>
</g>
<!-- n6&#45;&gt;n7 -->
<g id="edge7" class="edge">
<title>n6&#45;&gt;n7</title>
<path fill="none" stroke="black" d="M242.36,-149.58C200.05,-140.36 141.26,-125.98 91.3,-108 89.75,-107.44 88.18,-106.85 86.61,-106.22"/>
<polygon fill="black" stroke="black" points="88.29,-103.13 77.72,-102.36 85.5,-109.55 88.29,-103.13"/>
</g>
<!-- n8 -->
<g id="node9" class="node">
<title>n8</title>
<ellipse fill="none" stroke="black" cx="140.3" cy="-90" rx="39.58" ry="18"/>
<text text-anchor="middle" x="140.3" y="-84.95" font-family="Times,serif" font-size="14.00">numero</text>
</g>
<!-- n6&#45;&gt;n8 -->
<g id="edge8" class="edge">
<title>n6&#45;&gt;n8</title>
<path fill="none" stroke="black" d="M264.4,-145.64C238.93,-134.43 204.43,-119.24 178.27,-107.72"/>
<polygon fill="black" stroke="black" points="179.93,-104.62 169.37,-103.8 177.11,-111.03 179.93,-104.62"/>
</g>
<!-- n9 -->
<g id="node10" class="node">
<title>n9</title>
<ellipse fill="none" stroke="black" cx="225.3" cy="-90" rx="27" ry="18"/>
<text text-anchor="middle" x="225.3" y="-84.95" font-family="Times,serif" font-size="14.00">=</text>
</g>
<!-- n6&#45;&gt;n9 -->
<g id="edge9" class="edge">
<title>n6&#45;&gt;n9</title>
<path fill="none" stroke="black" d="M281.38,-144.05C271.39,-134.6 258.85,-122.74 248.15,-112.62"/>
<polygon fill="black" stroke="black" points="250.83,-110.34 241.16,-106.01 246.02,-115.42 250.83,-110.34"/>
</g>
<!-- n10 -->
<g id="node11" class="node">
<title>n10</title>
<ellipse fill="none" stroke="black" cx="299.3" cy="-90" rx="28.83" ry="18"/>
<text text-anchor="middle" x="299.3" y="-84.95" font-family="Times,serif" font-size="14.00">Dato</text>
</g>
<!-- n6&#45;&gt;n10 -->
<g id="edge10" class="edge">
<title>n6&#45;&gt;n10</title>
<path fill="none" stroke="black" d="M299.3,-143.7C299.3,-136.41 299.3,-127.73 299.3,-119.54"/>
<polygon fill="black" stroke="black" points="302.8,-119.62 299.3,-109.62 295.8,-119.62 302.8,-119.62"/>
</g>
<!-- n11 -->
<g id="node12" class="node">
<title>n11</title>
<ellipse fill="none" stroke="black" cx="299.3" cy="-18" rx="27" ry="18"/>
<text text-anchor="middle" x="299.3" y="-12.95" font-family="Times,serif" font-size="14.00">1</text>
</g>
<!-- n10&#45;&gt;n11 -->
<g id="edge11" class="edge">
<title>n10&#45;&gt;n11</title>
<path fill="none" stroke="black" d="M299.3,-71.7C299.3,-64.41 299.3,-55.73 299.3,-47.54"/>
<polygon fill="black" stroke="black" points="302.8,-47.62 299.3,-37.62 295.8,-47.62 302.8,-47.62"/>
</g>
<!-- n13 -->
<g id="node14" class="node">
<title>n13</title>
<ellipse fill="none" stroke="black" cx="381.3" cy="-90" rx="35.49" ry="18"/>
<text text-anchor="middle" x="381.3" y="-84.95" font-family="Times,serif" font-size="14.00">println</text>
</g>
<!-- n12&#45;&gt;n13 -->
<g id="edge13" class="edge">
<title>n12&#45;&gt;n13</title>
<path fill="none" stroke="black" d="M431.55,-145.12C423.32,-136.26 412.9,-125.04 403.69,-115.12"/>
<polygon fill="black" stroke="black" points="406.39,-112.88 397.02,-107.93 401.26,-117.64 406.39,-112.88"/>
</g>
<!-- n14 -->
<g id="node15" class="node">
<title>n14</title>
<ellipse fill="none" stroke="black" cx="461.3" cy="-90" rx="27" ry="18"/>
<text text-anchor="middle" x="461.3" y="-84.95" font-family="Times,serif" font-size="14.00">(</text>
</g>
<!-- n12&#45;&gt;n14 -->
<g id="edge14" class="edge">
<title>n12&#45;&gt;n14</title>
<path fill="none" stroke="black" d="M450,-143.7C451.58,-136.32 453.47,-127.52 455.24,-119.25"/>
<polygon fill="black" stroke="black" points="458.64,-120.1 457.31,-109.58 451.8,-118.63 458.64,-120.1"/>
</g>
<!-- n15 -->
<g id="node16" class="node">
<title>n15</title>
<ellipse fill="none" stroke="black" cx="562.3" cy="-90" rx="56.47" ry="18"/>
<text text-anchor="middle" x="562.3" y="-84.95" font-family="Times,serif" font-size="14.00">VARIABLE</text>
</g>
<!-- n12&#45;&gt;n15 -->
<g id="edge15" class="edge">
<title>n12&#45;&gt;n15</title>
<path fill="none" stroke="black" d="M468.94,-147.34C485.48,-137.35 508.23,-123.63 527.13,-112.22"/>
<polygon fill="black" stroke="black" points="528.84,-115.28 535.59,-107.11 525.22,-109.28 528.84,-115.28"/>
</g>
<!-- n17 -->
<g id="node18" class="node">
<title>n17</title>
<ellipse fill="none" stroke="black" cx="663.3" cy="-90" rx="27" ry="18"/>
<text text-anchor="middle" x="663.3" y="-84.95" font-family="Times,serif" font-size="14.00">)</text>
</g>
<!-- n12&#45;&gt;n17 -->
<g id="edge17" class="edge">
<title>n12&#45;&gt;n17</title>
<path fill="none" stroke="black" d="M475.25,-150.09C481.19,-147.98 487.42,-145.85 493.3,-144 552.12,-125.5 569.41,-129.25 627.3,-108 628.84,-107.43 630.4,-106.83 631.97,-106.19"/>
<polygon fill="black" stroke="black" points="633.09,-109.52 640.86,-102.32 630.29,-103.11 633.09,-109.52"/>
</g>
<!-- n18 -->
<g id="node19" class="node">
<title>n18</title>
<ellipse fill="none" stroke="black" cx="735.3" cy="-90" rx="27" ry="18"/>
<text text-anchor="middle" x="735.3" y="-84.95" font-family="Times,serif" font-size="14.00">;</text>
</g>
<!-- n12&#45;&gt;n18 -->
<g id="edge18" class="edge">
<title>n12&#45;&gt;n18</title>
<path fill="none" stroke="black" d="M474.38,-149.94C480.55,-147.77 487.09,-145.65 493.3,-144 583.11,-120.1 610.7,-136.1 699.3,-108 700.9,-107.49 702.53,-106.92 704.16,-106.32"/>
<polygon fill="black" stroke="black" points="705.48,-109.56 713.34,-102.45 702.77,-103.1 705.48,-109.56"/>
</g>
<!-- n16 -->
<g id="node17" class="node">
<title>n16</title>
<ellipse fill="none" stroke="black" cx="562.3" cy="-18" rx="39.58" ry="18"/>
<text text-anchor="middle" x="562.3" y="-12.95" font-family="Times,serif" font-size="14.00">numero</text>
</g>
<!-- n15&#45;&gt;n16 -->
<g id="edge16" class="edge">
<title>n15&#45;&gt;n16</title>
<path fill="none" stroke="black" d="M562.3,-71.7C562.3,-64.41 562.3,-55.73 562.3,-47.54"/>
<polygon fill="black" stroke="black" points="565.8,-47.62 562.3,-37.62 558.8,-47.62 565.8,-47.62"/>
</g>
<!-- n21 -->
<g id="node22" class="node">
<title>n21</title>
<ellipse fill="none" stroke="black" cx="604.3" cy="-162" rx="29.86" ry="18"/>
<text text-anchor="middle" x="604.3" y="-156.95" font-family="Times,serif" font-size="14.00">main</text>
</g>
<!-- n20&#45;&gt;n21 -->
<g id="edge21" class="edge">
<title>n20&#45;&gt;n21</title>
<path fill="none" stroke="black" d="M632.34,-216.05C628.1,-208.03 622.93,-198.26 618.2,-189.3"/>
<polygon fill="black" stroke="black" points="621.39,-187.85 613.62,-180.65 615.2,-191.12 621.39,-187.85"/>
</g>
<!-- n22 -->
<g id="node23" class="node">
<title>n22</title>
<ellipse fill="none" stroke="black" cx="679.3" cy="-162" rx="27" ry="18"/>
<text text-anchor="middle" x="679.3" y="-156.95" font-family="Times,serif" font-size="14.00">(</text>
</g>
<!-- n20&#45;&gt;n22 -->
<g id="edge22" class="edge">
<title>n20&#45;&gt;n22</title>
<path fill="none" stroke="black" d="M650.5,-216.05C654.85,-208.03 660.16,-198.26 665.02,-189.3"/>
<polygon fill="black" stroke="black" points="668.03,-191.1 669.72,-180.64 661.88,-187.76 668.03,-191.1"/>
</g>
<!-- n23 -->
<g id="node24" class="node">
<title>n23</title>
<ellipse fill="none" stroke="black" cx="751.3" cy="-162" rx="27" ry="18"/>
<text text-anchor="middle" x="751.3" y="-156.95" font-family="Times,serif" font-size="14.00">)</text>
</g>
<!-- n20&#45;&gt;n23 -->
<g id="edge23" class="edge">
<title>n20&#45;&gt;n23</title>
<path fill="none" stroke="black" d="M665.98,-217.29C682.87,-206.54 705.31,-192.27 722.93,-181.05"/>
<polygon fill="black" stroke="black" points="724.33,-184.31 730.88,-175.99 720.57,-178.41 724.33,-184.31"/>
</g>
</g>
</svg>
