<?xml version="1.0" encoding="UTF-8" standalone="no"?>
<!DOCTYPE svg PUBLIC "-//W3C//DTD SVG 1.1//EN"
 "http://www.w3.org/Graphics/SVG/1.1/DTD/svg11.dtd">
<!-- Generated by graphviz version 10.0.1 (20240210.2158)
 -->
<!-- Title: arbolAST Pages: 1 -->
<svg width="1486pt" height="476pt"
 viewBox="0.00 0.00 1486.00 476.00" xmlns="http://www.w3.org/2000/svg" xmlns:xlink="http://www.w3.org/1999/xlink">
<g id="graph0" class="graph" transform="scale(1 1) rotate(0) translate(4 472)">
<title>arbolAST</title>
<polygon fill="white" stroke="none" points="-4,4 -4,-472 1482,-472 1482,4 -4,4"/>
<!-- n0 -->
<g id="node1" class="node">
<title>n0</title>
<ellipse fill="none" stroke="black" cx="577" cy="-450" rx="39.58" ry="18"/>
<text text-anchor="middle" x="577" y="-444.95" font-family="Times,serif" font-size="14.00">INICIO</text>
</g>
<!-- n1 -->
<g id="node2" class="node">
<title>n1</title>
<ellipse fill="none" stroke="black" cx="577" cy="-378" rx="83.6" ry="18"/>
<text text-anchor="middle" x="577" y="-372.95" font-family="Times,serif" font-size="14.00">INSTRUCCIONES</text>
</g>
<!-- n0&#45;&gt;n1 -->
<g id="edge1" class="edge">
<title>n0&#45;&gt;n1</title>
<path fill="none" stroke="black" d="M577,-431.7C577,-424.41 577,-415.73 577,-407.54"/>
<polygon fill="black" stroke="black" points="580.5,-407.62 577,-397.62 573.5,-407.62 580.5,-407.62"/>
</g>
<!-- n2 -->
<g id="node3" class="node">
<title>n2</title>
<ellipse fill="none" stroke="black" cx="577" cy="-306" rx="28.83" ry="18"/>
<text text-anchor="middle" x="577" y="-300.95" font-family="Times,serif" font-size="14.00">FOR</text>
</g>
<!-- n1&#45;&gt;n2 -->
<g id="edge2" class="edge">
<title>n1&#45;&gt;n2</title>
<path fill="none" stroke="black" d="M577,-359.7C577,-352.41 577,-343.73 577,-335.54"/>
<polygon fill="black" stroke="black" points="580.5,-335.62 577,-325.62 573.5,-335.62 580.5,-335.62"/>
</g>
<!-- n3 -->
<g id="node4" class="node">
<title>n3</title>
<ellipse fill="none" stroke="black" cx="51" cy="-234" rx="27" ry="18"/>
<text text-anchor="middle" x="51" y="-228.95" font-family="Times,serif" font-size="14.00">for</text>
</g>
<!-- n2&#45;&gt;n3 -->
<g id="edge3" class="edge">
<title>n2&#45;&gt;n3</title>
<path fill="none" stroke="black" d="M547.92,-305.19C471.08,-304.99 256.87,-299.83 87,-252 85.38,-251.54 83.74,-251.02 82.1,-250.45"/>
<polygon fill="black" stroke="black" points="83.47,-247.22 72.88,-246.68 80.82,-253.7 83.47,-247.22"/>
</g>
<!-- n4 -->
<g id="node5" class="node">
<title>n4</title>
<ellipse fill="none" stroke="black" cx="123" cy="-234" rx="27" ry="18"/>
<text text-anchor="middle" x="123" y="-228.95" font-family="Times,serif" font-size="14.00">(</text>
</g>
<!-- n2&#45;&gt;n4 -->
<g id="edge4" class="edge">
<title>n2&#45;&gt;n4</title>
<path fill="none" stroke="black" d="M547.99,-304.44C479.1,-302.44 300.86,-293.35 159,-252 157.38,-251.53 155.75,-250.99 154.11,-250.41"/>
<polygon fill="black" stroke="black" points="155.48,-247.19 144.9,-246.62 152.82,-253.66 155.48,-247.19"/>
</g>
<!-- n5 -->
<g id="node6" class="node">
<title>n5</title>
<ellipse fill="none" stroke="black" cx="245" cy="-234" rx="76.94" ry="18"/>
<text text-anchor="middle" x="245" y="-228.95" font-family="Times,serif" font-size="14.00">DECLARACION</text>
</g>
<!-- n2&#45;&gt;n5 -->
<g id="edge5" class="edge">
<title>n2&#45;&gt;n5</title>
<path fill="none" stroke="black" d="M549.83,-299.27C498.2,-288.39 384.56,-264.43 311.56,-249.03"/>
<polygon fill="black" stroke="black" points="312.64,-245.68 302.13,-247.05 311.2,-252.53 312.64,-245.68"/>
</g>
<!-- n11 -->
<g id="node12" class="node">
<title>n11</title>
<ellipse fill="none" stroke="black" cx="391" cy="-234" rx="50.33" ry="18"/>
<text text-anchor="middle" x="391" y="-228.95" font-family="Times,serif" font-size="14.00">Relacional</text>
</g>
<!-- n2&#45;&gt;n11 -->
<g id="edge11" class="edge">
<title>n2&#45;&gt;n11</title>
<path fill="none" stroke="black" d="M552.68,-295.85C522.93,-284.65 471.98,-265.48 435.22,-251.64"/>
<polygon fill="black" stroke="black" points="436.79,-248.49 426.19,-248.25 434.32,-255.04 436.79,-248.49"/>
</g>
<!-- n16 -->
<g id="node17" class="node">
<title>n16</title>
<ellipse fill="none" stroke="black" cx="486" cy="-234" rx="27" ry="18"/>
<text text-anchor="middle" x="486" y="-228.95" font-family="Times,serif" font-size="14.00">;</text>
</g>
<!-- n2&#45;&gt;n16 -->
<g id="edge16" class="edge">
<title>n2&#45;&gt;n16</title>
<path fill="none" stroke="black" d="M559.45,-291.5C546.02,-281.17 527.29,-266.76 512.1,-255.08"/>
<polygon fill="black" stroke="black" points="514.44,-252.46 504.38,-249.14 510.18,-258.01 514.44,-252.46"/>
</g>
<!-- n17 -->
<g id="node18" class="node">
<title>n17</title>
<ellipse fill="none" stroke="black" cx="669" cy="-234" rx="137.85" ry="18"/>
<text text-anchor="middle" x="669" y="-228.95" font-family="Times,serif" font-size="14.00">INCREMENTO/DECREMENTO</text>
</g>
<!-- n2&#45;&gt;n17 -->
<g id="edge17" class="edge">
<title>n2&#45;&gt;n17</title>
<path fill="none" stroke="black" d="M594.74,-291.5C606.82,-282.31 623.14,-269.89 637.41,-259.04"/>
<polygon fill="black" stroke="black" points="639.38,-261.94 645.22,-253.1 635.14,-256.37 639.38,-261.94"/>
</g>
<!-- n20 -->
<g id="node21" class="node">
<title>n20</title>
<ellipse fill="none" stroke="black" cx="852" cy="-234" rx="27" ry="18"/>
<text text-anchor="middle" x="852" y="-228.95" font-family="Times,serif" font-size="14.00">)</text>
</g>
<!-- n2&#45;&gt;n20 -->
<g id="edge20" class="edge">
<title>n2&#45;&gt;n20</title>
<path fill="none" stroke="black" d="M605.15,-300.85C650.42,-293.71 741.81,-277.39 816,-252 817.55,-251.47 819.13,-250.89 820.71,-250.28"/>
<polygon fill="black" stroke="black" points="821.8,-253.62 829.61,-246.47 819.04,-247.18 821.8,-253.62"/>
</g>
<!-- n21 -->
<g id="node22" class="node">
<title>n21</title>
<ellipse fill="none" stroke="black" cx="924" cy="-234" rx="27" ry="18"/>
<text text-anchor="middle" x="924" y="-228.95" font-family="Times,serif" font-size="14.00">{</text>
</g>
<!-- n2&#45;&gt;n21 -->
<g id="edge21" class="edge">
<title>n2&#45;&gt;n21</title>
<path fill="none" stroke="black" d="M605.48,-302.76C660.96,-297.82 786.91,-283.82 888,-252 889.61,-251.49 891.23,-250.93 892.86,-250.32"/>
<polygon fill="black" stroke="black" points="894.19,-253.56 902.05,-246.47 891.48,-247.11 894.19,-253.56"/>
</g>
<!-- n22 -->
<g id="node23" class="node">
<title>n22</title>
<ellipse fill="none" stroke="black" cx="1039" cy="-234" rx="27" ry="18"/>
<text text-anchor="middle" x="1039" y="-228.95" font-family="Times,serif" font-size="14.00">IF</text>
</g>
<!-- n2&#45;&gt;n22 -->
<g id="edge22" class="edge">
<title>n2&#45;&gt;n22</title>
<path fill="none" stroke="black" d="M605.46,-301.8C669.19,-294.46 828.12,-275.28 960,-252 974,-249.53 989.29,-246.35 1002.66,-243.41"/>
<polygon fill="black" stroke="black" points="1003.36,-246.84 1012.36,-241.25 1001.83,-240.01 1003.36,-246.84"/>
</g>
<!-- n37 -->
<g id="node38" class="node">
<title>n37</title>
<ellipse fill="none" stroke="black" cx="1111" cy="-234" rx="27" ry="18"/>
<text text-anchor="middle" x="1111" y="-228.95" font-family="Times,serif" font-size="14.00">}</text>
</g>
<!-- n2&#45;&gt;n37 -->
<g id="edge37" class="edge">
<title>n2&#45;&gt;n37</title>
<path fill="none" stroke="black" d="M606.27,-305.26C684.12,-305.25 902.13,-300.51 1075,-252 1076.62,-251.54 1078.26,-251.02 1079.9,-250.45"/>
<polygon fill="black" stroke="black" points="1081.18,-253.71 1089.12,-246.69 1078.54,-247.23 1081.18,-253.71"/>
</g>
<!-- n6 -->
<g id="node7" class="node">
<title>n6</title>
<ellipse fill="none" stroke="black" cx="27" cy="-162" rx="27" ry="18"/>
<text text-anchor="middle" x="27" y="-156.95" font-family="Times,serif" font-size="14.00">int</text>
</g>
<!-- n5&#45;&gt;n6 -->
<g id="edge6" class="edge">
<title>n5&#45;&gt;n6</title>
<path fill="none" stroke="black" d="M193.3,-220.27C156.48,-210.65 106.08,-196.33 63,-180 61.46,-179.42 59.9,-178.8 58.34,-178.15"/>
<polygon fill="black" stroke="black" points="60.03,-175.07 49.47,-174.24 57.21,-181.48 60.03,-175.07"/>
</g>
<!-- n7 -->
<g id="node8" class="node">
<title>n7</title>
<ellipse fill="none" stroke="black" cx="99" cy="-162" rx="27" ry="18"/>
<text text-anchor="middle" x="99" y="-156.95" font-family="Times,serif" font-size="14.00">x</text>
</g>
<!-- n5&#45;&gt;n7 -->
<g id="edge7" class="edge">
<title>n5&#45;&gt;n7</title>
<path fill="none" stroke="black" d="M212.23,-217.29C187.77,-205.56 154.55,-189.63 130.42,-178.06"/>
<polygon fill="black" stroke="black" points="132.26,-175.06 121.73,-173.9 129.23,-181.37 132.26,-175.06"/>
</g>
<!-- n8 -->
<g id="node9" class="node">
<title>n8</title>
<ellipse fill="none" stroke="black" cx="171" cy="-162" rx="27" ry="18"/>
<text text-anchor="middle" x="171" y="-156.95" font-family="Times,serif" font-size="14.00">=</text>
</g>
<!-- n5&#45;&gt;n8 -->
<g id="edge8" class="edge">
<title>n5&#45;&gt;n8</title>
<path fill="none" stroke="black" d="M227.09,-216.05C217.1,-206.6 204.55,-194.74 193.86,-184.62"/>
<polygon fill="black" stroke="black" points="196.53,-182.34 186.86,-178.01 191.72,-187.42 196.53,-182.34"/>
</g>
<!-- n9 -->
<g id="node10" class="node">
<title>n9</title>
<ellipse fill="none" stroke="black" cx="245" cy="-162" rx="28.83" ry="18"/>
<text text-anchor="middle" x="245" y="-156.95" font-family="Times,serif" font-size="14.00">Dato</text>
</g>
<!-- n5&#45;&gt;n9 -->
<g id="edge9" class="edge">
<title>n5&#45;&gt;n9</title>
<path fill="none" stroke="black" d="M245,-215.7C245,-208.41 245,-199.73 245,-191.54"/>
<polygon fill="black" stroke="black" points="248.5,-191.62 245,-181.62 241.5,-191.62 248.5,-191.62"/>
</g>
<!-- n10 -->
<g id="node11" class="node">
<title>n10</title>
<ellipse fill="none" stroke="black" cx="245" cy="-90" rx="27" ry="18"/>
<text text-anchor="middle" x="245" y="-84.95" font-family="Times,serif" font-size="14.00">1</text>
</g>
<!-- n9&#45;&gt;n10 -->
<g id="edge10" class="edge">
<title>n9&#45;&gt;n10</title>
<path fill="none" stroke="black" d="M245,-143.7C245,-136.41 245,-127.73 245,-119.54"/>
<polygon fill="black" stroke="black" points="248.5,-119.62 245,-109.62 241.5,-119.62 248.5,-119.62"/>
</g>
<!-- n12 -->
<g id="node13" class="node">
<title>n12</title>
<ellipse fill="none" stroke="black" cx="348" cy="-162" rx="56.47" ry="18"/>
<text text-anchor="middle" x="348" y="-156.95" font-family="Times,serif" font-size="14.00">VARIABLE</text>
</g>
<!-- n11&#45;&gt;n12 -->
<g id="edge12" class="edge">
<title>n11&#45;&gt;n12</title>
<path fill="none" stroke="black" d="M380.59,-216.05C375.68,-208.06 369.7,-198.33 364.22,-189.4"/>
<polygon fill="black" stroke="black" points="367.32,-187.77 359.11,-181.08 361.36,-191.43 367.32,-187.77"/>
</g>
<!-- n13 -->
<g id="node14" class="node">
<title>n13</title>
<ellipse fill="none" stroke="black" cx="449" cy="-162" rx="27" ry="18"/>
<text text-anchor="middle" x="449" y="-156.95" font-family="Times,serif" font-size="14.00">&lt;=</text>
</g>
<!-- n11&#45;&gt;n13 -->
<g id="edge13" class="edge">
<title>n11&#45;&gt;n13</title>
<path fill="none" stroke="black" d="M404.75,-216.41C412.06,-207.59 421.18,-196.58 429.23,-186.86"/>
<polygon fill="black" stroke="black" points="431.89,-189.14 435.57,-179.2 426.5,-184.67 431.89,-189.14"/>
</g>
<!-- n14 -->
<g id="node15" class="node">
<title>n14</title>
<ellipse fill="none" stroke="black" cx="523" cy="-162" rx="28.83" ry="18"/>
<text text-anchor="middle" x="523" y="-156.95" font-family="Times,serif" font-size="14.00">Dato</text>
</g>
<!-- n11&#45;&gt;n14 -->
<g id="edge14" class="edge">
<title>n11&#45;&gt;n14</title>
<path fill="none" stroke="black" d="M418.35,-218.5C439.73,-207.16 469.47,-191.39 491.78,-179.55"/>
<polygon fill="black" stroke="black" points="493.23,-182.75 500.43,-174.97 489.95,-176.56 493.23,-182.75"/>
</g>
<!-- n15 -->
<g id="node16" class="node">
<title>n15</title>
<ellipse fill="none" stroke="black" cx="523" cy="-90" rx="27" ry="18"/>
<text text-anchor="middle" x="523" y="-84.95" font-family="Times,serif" font-size="14.00">4</text>
</g>
<!-- n14&#45;&gt;n15 -->
<g id="edge15" class="edge">
<title>n14&#45;&gt;n15</title>
<path fill="none" stroke="black" d="M523,-143.7C523,-136.41 523,-127.73 523,-119.54"/>
<polygon fill="black" stroke="black" points="526.5,-119.62 523,-109.62 519.5,-119.62 526.5,-119.62"/>
</g>
<!-- n18 -->
<g id="node19" class="node">
<title>n18</title>
<ellipse fill="none" stroke="black" cx="597" cy="-162" rx="27" ry="18"/>
<text text-anchor="middle" x="597" y="-156.95" font-family="Times,serif" font-size="14.00">x</text>
</g>
<!-- n17&#45;&gt;n18 -->
<g id="edge18" class="edge">
<title>n17&#45;&gt;n18</title>
<path fill="none" stroke="black" d="M651.2,-215.7C641.7,-206.46 629.91,-194.99 619.75,-185.12"/>
<polygon fill="black" stroke="black" points="622.38,-182.8 612.77,-178.33 617.5,-187.81 622.38,-182.8"/>
</g>
<!-- n19 -->
<g id="node20" class="node">
<title>n19</title>
<ellipse fill="none" stroke="black" cx="669" cy="-162" rx="27" ry="18"/>
<text text-anchor="middle" x="669" y="-156.95" font-family="Times,serif" font-size="14.00">++</text>
</g>
<!-- n17&#45;&gt;n19 -->
<g id="edge19" class="edge">
<title>n17&#45;&gt;n19</title>
<path fill="none" stroke="black" d="M669,-215.7C669,-208.41 669,-199.73 669,-191.54"/>
<polygon fill="black" stroke="black" points="672.5,-191.62 669,-181.62 665.5,-191.62 672.5,-191.62"/>
</g>
<!-- n23 -->
<g id="node24" class="node">
<title>n23</title>
<ellipse fill="none" stroke="black" cx="741" cy="-162" rx="27" ry="18"/>
<text text-anchor="middle" x="741" y="-156.95" font-family="Times,serif" font-size="14.00">if</text>
</g>
<!-- n22&#45;&gt;n23 -->
<g id="edge23" class="edge">
<title>n22&#45;&gt;n23</title>
<path fill="none" stroke="black" d="M1013.41,-227.37C997.96,-224.01 977.86,-219.68 960,-216 878.81,-199.28 855.74,-205.89 777,-180 775.44,-179.49 773.86,-178.92 772.28,-178.32"/>
<polygon fill="black" stroke="black" points="773.93,-175.22 763.36,-174.55 771.21,-181.67 773.93,-175.22"/>
</g>
<!-- n24 -->
<g id="node25" class="node">
<title>n24</title>
<ellipse fill="none" stroke="black" cx="813" cy="-162" rx="27" ry="18"/>
<text text-anchor="middle" x="813" y="-156.95" font-family="Times,serif" font-size="14.00">(</text>
</g>
<!-- n22&#45;&gt;n24 -->
<g id="edge24" class="edge">
<title>n22&#45;&gt;n24</title>
<path fill="none" stroke="black" d="M1013.36,-227.31C976.45,-218.79 906.44,-201.4 849,-180 847.46,-179.43 845.9,-178.81 844.33,-178.17"/>
<polygon fill="black" stroke="black" points="846.01,-175.09 835.45,-174.28 843.21,-181.5 846.01,-175.09"/>
</g>
<!-- n25 -->
<g id="node26" class="node">
<title>n25</title>
<ellipse fill="none" stroke="black" cx="908" cy="-162" rx="50.33" ry="18"/>
<text text-anchor="middle" x="908" y="-156.95" font-family="Times,serif" font-size="14.00">Relacional</text>
</g>
<!-- n22&#45;&gt;n25 -->
<g id="edge25" class="edge">
<title>n22&#45;&gt;n25</title>
<path fill="none" stroke="black" d="M1018.24,-221.91C998.63,-211.43 968.78,-195.48 945.08,-182.81"/>
<polygon fill="black" stroke="black" points="946.82,-179.78 936.35,-178.15 943.52,-185.95 946.82,-179.78"/>
</g>
<!-- n30 -->
<g id="node31" class="node">
<title>n30</title>
<ellipse fill="none" stroke="black" cx="1003" cy="-162" rx="27" ry="18"/>
<text text-anchor="middle" x="1003" y="-156.95" font-family="Times,serif" font-size="14.00">)</text>
</g>
<!-- n22&#45;&gt;n30 -->
<g id="edge30" class="edge">
<title>n22&#45;&gt;n30</title>
<path fill="none" stroke="black" d="M1030.65,-216.76C1026.42,-208.55 1021.19,-198.37 1016.42,-189.09"/>
<polygon fill="black" stroke="black" points="1019.68,-187.79 1012,-180.49 1013.46,-190.99 1019.68,-187.79"/>
</g>
<!-- n31 -->
<g id="node32" class="node">
<title>n31</title>
<ellipse fill="none" stroke="black" cx="1075" cy="-162" rx="27" ry="18"/>
<text text-anchor="middle" x="1075" y="-156.95" font-family="Times,serif" font-size="14.00">{</text>
</g>
<!-- n22&#45;&gt;n31 -->
<g id="edge31" class="edge">
<title>n22&#45;&gt;n31</title>
<path fill="none" stroke="black" d="M1047.35,-216.76C1051.58,-208.55 1056.81,-198.37 1061.58,-189.09"/>
<polygon fill="black" stroke="black" points="1064.54,-190.99 1066,-180.49 1058.32,-187.79 1064.54,-190.99"/>
</g>
<!-- n32 -->
<g id="node33" class="node">
<title>n32</title>
<ellipse fill="none" stroke="black" cx="1155" cy="-162" rx="35.49" ry="18"/>
<text text-anchor="middle" x="1155" y="-156.95" font-family="Times,serif" font-size="14.00">println</text>
</g>
<!-- n22&#45;&gt;n32 -->
<g id="edge32" class="edge">
<title>n22&#45;&gt;n32</title>
<path fill="none" stroke="black" d="M1058.68,-221.13C1076.34,-210.47 1102.59,-194.63 1123.23,-182.17"/>
<polygon fill="black" stroke="black" points="1124.8,-185.31 1131.55,-177.15 1121.18,-179.32 1124.8,-185.31"/>
</g>
<!-- n33 -->
<g id="node34" class="node">
<title>n33</title>
<ellipse fill="none" stroke="black" cx="1235" cy="-162" rx="27" ry="18"/>
<text text-anchor="middle" x="1235" y="-156.95" font-family="Times,serif" font-size="14.00">(</text>
</g>
<!-- n22&#45;&gt;n33 -->
<g id="edge33" class="edge">
<title>n22&#45;&gt;n33</title>
<path fill="none" stroke="black" d="M1060.08,-222.36C1064.92,-220.11 1070.09,-217.86 1075,-216 1128.67,-195.68 1145.33,-200.32 1199,-180 1200.54,-179.42 1202.1,-178.8 1203.66,-178.15"/>
<polygon fill="black" stroke="black" points="1204.79,-181.48 1212.54,-174.25 1201.97,-175.07 1204.79,-181.48"/>
</g>
<!-- n34 -->
<g id="node35" class="node">
<title>n34</title>
<ellipse fill="none" stroke="black" cx="1307" cy="-162" rx="27" ry="18"/>
<text text-anchor="middle" x="1307" y="-156.95" font-family="Times,serif" font-size="14.00">)</text>
</g>
<!-- n22&#45;&gt;n34 -->
<g id="edge34" class="edge">
<title>n22&#45;&gt;n34</title>
<path fill="none" stroke="black" d="M1059.57,-222.17C1064.52,-219.88 1069.87,-217.65 1075,-216 1159.31,-188.86 1186.69,-207.14 1271,-180 1272.6,-179.48 1274.23,-178.91 1275.86,-178.3"/>
<polygon fill="black" stroke="black" points="1277.19,-181.54 1285.04,-174.42 1274.46,-175.09 1277.19,-181.54"/>
</g>
<!-- n35 -->
<g id="node36" class="node">
<title>n35</title>
<ellipse fill="none" stroke="black" cx="1379" cy="-162" rx="27" ry="18"/>
<text text-anchor="middle" x="1379" y="-156.95" font-family="Times,serif" font-size="14.00">;</text>
</g>
<!-- n22&#45;&gt;n35 -->
<g id="edge35" class="edge">
<title>n22&#45;&gt;n35</title>
<path fill="none" stroke="black" d="M1059.51,-221.99C1064.47,-219.7 1069.83,-217.53 1075,-216 1190.25,-181.94 1227.75,-214.06 1343,-180 1344.62,-179.52 1346.25,-178.98 1347.88,-178.39"/>
<polygon fill="black" stroke="black" points="1349.19,-181.64 1357.09,-174.59 1346.51,-175.18 1349.19,-181.64"/>
</g>
<!-- n36 -->
<g id="node37" class="node">
<title>n36</title>
<ellipse fill="none" stroke="black" cx="1451" cy="-162" rx="27" ry="18"/>
<text text-anchor="middle" x="1451" y="-156.95" font-family="Times,serif" font-size="14.00">}</text>
</g>
<!-- n22&#45;&gt;n36 -->
<g id="edge36" class="edge">
<title>n22&#45;&gt;n36</title>
<path fill="none" stroke="black" d="M1059.48,-221.88C1064.44,-219.6 1069.81,-217.46 1075,-216 1221.31,-174.98 1268.69,-221.02 1415,-180 1416.62,-179.55 1418.26,-179.02 1419.9,-178.45"/>
<polygon fill="black" stroke="black" points="1421.18,-181.71 1429.12,-174.69 1418.54,-175.23 1421.18,-181.71"/>
</g>
<!-- n26 -->
<g id="node27" class="node">
<title>n26</title>
<ellipse fill="none" stroke="black" cx="807" cy="-90" rx="56.47" ry="18"/>
<text text-anchor="middle" x="807" y="-84.95" font-family="Times,serif" font-size="14.00">VARIABLE</text>
</g>
<!-- n25&#45;&gt;n26 -->
<g id="edge26" class="edge">
<title>n25&#45;&gt;n26</title>
<path fill="none" stroke="black" d="M885.58,-145.46C871.82,-135.93 853.97,-123.56 838.77,-113.02"/>
<polygon fill="black" stroke="black" points="841.16,-110.42 830.95,-107.6 837.17,-116.17 841.16,-110.42"/>
</g>
<!-- n27 -->
<g id="node28" class="node">
<title>n27</title>
<ellipse fill="none" stroke="black" cx="908" cy="-90" rx="27" ry="18"/>
<text text-anchor="middle" x="908" y="-84.95" font-family="Times,serif" font-size="14.00">==</text>
</g>
<!-- n25&#45;&gt;n27 -->
<g id="edge27" class="edge">
<title>n25&#45;&gt;n27</title>
<path fill="none" stroke="black" d="M908,-143.7C908,-136.41 908,-127.73 908,-119.54"/>
<polygon fill="black" stroke="black" points="911.5,-119.62 908,-109.62 904.5,-119.62 911.5,-119.62"/>
</g>
<!-- n28 -->
<g id="node29" class="node">
<title>n28</title>
<ellipse fill="none" stroke="black" cx="982" cy="-90" rx="28.83" ry="18"/>
<text text-anchor="middle" x="982" y="-84.95" font-family="Times,serif" font-size="14.00">Dato</text>
</g>
<!-- n25&#45;&gt;n28 -->
<g id="edge28" class="edge">
<title>n25&#45;&gt;n28</title>
<path fill="none" stroke="black" d="M925.16,-144.76C935.14,-135.33 947.84,-123.32 958.7,-113.04"/>
<polygon fill="black" stroke="black" points="960.98,-115.7 965.84,-106.29 956.17,-110.62 960.98,-115.7"/>
</g>
<!-- n29 -->
<g id="node30" class="node">
<title>n29</title>
<ellipse fill="none" stroke="black" cx="982" cy="-18" rx="27" ry="18"/>
<text text-anchor="middle" x="982" y="-12.95" font-family="Times,serif" font-size="14.00">2</text>
</g>
<!-- n28&#45;&gt;n29 -->
<g id="edge29" class="edge">
<title>n28&#45;&gt;n29</title>
<path fill="none" stroke="black" d="M982,-71.7C982,-64.41 982,-55.73 982,-47.54"/>
<polygon fill="black" stroke="black" points="985.5,-47.62 982,-37.62 978.5,-47.62 985.5,-47.62"/>
</g>
</g>
</svg>
