<?xml version="1.0" encoding="UTF-8" standalone="no"?>
<!DOCTYPE svg PUBLIC "-//W3C//DTD SVG 1.1//EN"
 "http://www.w3.org/Graphics/SVG/1.1/DTD/svg11.dtd">
<!-- Generated by graphviz version 10.0.1 (20240210.2158)
 -->
<!-- Title: arbolAST Pages: 1 -->
<svg width="660pt" height="332pt"
 viewBox="0.00 0.00 660.00 332.00" xmlns="http://www.w3.org/2000/svg" xmlns:xlink="http://www.w3.org/1999/xlink">
<g id="graph0" class="graph" transform="scale(1 1) rotate(0) translate(4 328)">
<title>arbolAST</title>
<polygon fill="white" stroke="none" points="-4,4 -4,-328 656,-328 656,4 -4,4"/>
<!-- n0 -->
<g id="node1" class="node">
<title>n0</title>
<ellipse fill="none" stroke="black" cx="291" cy="-306" rx="39.58" ry="18"/>
<text text-anchor="middle" x="291" y="-300.95" font-family="Times,serif" font-size="14.00">INICIO</text>
</g>
<!-- n1 -->
<g id="node2" class="node">
<title>n1</title>
<ellipse fill="none" stroke="black" cx="291" cy="-234" rx="83.6" ry="18"/>
<text text-anchor="middle" x="291" y="-228.95" font-family="Times,serif" font-size="14.00">INSTRUCCIONES</text>
</g>
<!-- n0&#45;&gt;n1 -->
<g id="edge1" class="edge">
<title>n0&#45;&gt;n1</title>
<path fill="none" stroke="black" d="M291,-287.7C291,-280.41 291,-271.73 291,-263.54"/>
<polygon fill="black" stroke="black" points="294.5,-263.62 291,-253.62 287.5,-263.62 294.5,-263.62"/>
</g>
<!-- n2 -->
<g id="node3" class="node">
<title>n2</title>
<ellipse fill="none" stroke="black" cx="173" cy="-162" rx="76.94" ry="18"/>
<text text-anchor="middle" x="173" y="-156.95" font-family="Times,serif" font-size="14.00">DECLARACION</text>
</g>
<!-- n1&#45;&gt;n2 -->
<g id="edge2" class="edge">
<title>n1&#45;&gt;n2</title>
<path fill="none" stroke="black" d="M263.33,-216.59C247.39,-207.13 227.14,-195.12 209.86,-184.87"/>
<polygon fill="black" stroke="black" points="211.77,-181.93 201.39,-179.84 208.2,-187.95 211.77,-181.93"/>
</g>
<!-- n8 -->
<g id="node9" class="node">
<title>n8</title>
<ellipse fill="none" stroke="black" cx="445" cy="-162" rx="46.75" ry="18"/>
<text text-anchor="middle" x="445" y="-156.95" font-family="Times,serif" font-size="14.00">SWITCH</text>
</g>
<!-- n1&#45;&gt;n8 -->
<g id="edge8" class="edge">
<title>n1&#45;&gt;n8</title>
<path fill="none" stroke="black" d="M325.56,-217.29C349.12,-206.58 380.39,-192.37 405.03,-181.17"/>
<polygon fill="black" stroke="black" points="406.45,-184.37 414.1,-177.04 403.55,-178 406.45,-184.37"/>
</g>
<!-- n3 -->
<g id="node4" class="node">
<title>n3</title>
<ellipse fill="none" stroke="black" cx="27" cy="-90" rx="27" ry="18"/>
<text text-anchor="middle" x="27" y="-84.95" font-family="Times,serif" font-size="14.00">int</text>
</g>
<!-- n2&#45;&gt;n3 -->
<g id="edge3" class="edge">
<title>n2&#45;&gt;n3</title>
<path fill="none" stroke="black" d="M140.23,-145.29C115.77,-133.56 82.55,-117.63 58.42,-106.06"/>
<polygon fill="black" stroke="black" points="60.26,-103.06 49.73,-101.9 57.23,-109.37 60.26,-103.06"/>
</g>
<!-- n4 -->
<g id="node5" class="node">
<title>n4</title>
<ellipse fill="none" stroke="black" cx="100" cy="-90" rx="28.32" ry="18"/>
<text text-anchor="middle" x="100" y="-84.95" font-family="Times,serif" font-size="14.00">edad</text>
</g>
<!-- n2&#45;&gt;n4 -->
<g id="edge4" class="edge">
<title>n2&#45;&gt;n4</title>
<path fill="none" stroke="black" d="M155.33,-144.05C145.7,-134.82 133.67,-123.29 123.29,-113.33"/>
<polygon fill="black" stroke="black" points="125.78,-110.87 116.14,-106.47 120.93,-115.92 125.78,-110.87"/>
</g>
<!-- n5 -->
<g id="node6" class="node">
<title>n5</title>
<ellipse fill="none" stroke="black" cx="173" cy="-90" rx="27" ry="18"/>
<text text-anchor="middle" x="173" y="-84.95" font-family="Times,serif" font-size="14.00">=</text>
</g>
<!-- n2&#45;&gt;n5 -->
<g id="edge5" class="edge">
<title>n2&#45;&gt;n5</title>
<path fill="none" stroke="black" d="M173,-143.7C173,-136.41 173,-127.73 173,-119.54"/>
<polygon fill="black" stroke="black" points="176.5,-119.62 173,-109.62 169.5,-119.62 176.5,-119.62"/>
</g>
<!-- n6 -->
<g id="node7" class="node">
<title>n6</title>
<ellipse fill="none" stroke="black" cx="247" cy="-90" rx="28.83" ry="18"/>
<text text-anchor="middle" x="247" y="-84.95" font-family="Times,serif" font-size="14.00">Dato</text>
</g>
<!-- n2&#45;&gt;n6 -->
<g id="edge6" class="edge">
<title>n2&#45;&gt;n6</title>
<path fill="none" stroke="black" d="M190.91,-144.05C200.67,-134.82 212.87,-123.29 223.39,-113.33"/>
<polygon fill="black" stroke="black" points="225.79,-115.88 230.65,-106.46 220.98,-110.79 225.79,-115.88"/>
</g>
<!-- n7 -->
<g id="node8" class="node">
<title>n7</title>
<ellipse fill="none" stroke="black" cx="247" cy="-18" rx="27" ry="18"/>
<text text-anchor="middle" x="247" y="-12.95" font-family="Times,serif" font-size="14.00">12</text>
</g>
<!-- n6&#45;&gt;n7 -->
<g id="edge7" class="edge">
<title>n6&#45;&gt;n7</title>
<path fill="none" stroke="black" d="M247,-71.7C247,-64.41 247,-55.73 247,-47.54"/>
<polygon fill="black" stroke="black" points="250.5,-47.62 247,-37.62 243.5,-47.62 250.5,-47.62"/>
</g>
<!-- n9 -->
<g id="node10" class="node">
<title>n9</title>
<ellipse fill="none" stroke="black" cx="329" cy="-90" rx="34.97" ry="18"/>
<text text-anchor="middle" x="329" y="-84.95" font-family="Times,serif" font-size="14.00">switch</text>
</g>
<!-- n8&#45;&gt;n9 -->
<g id="edge9" class="edge">
<title>n8&#45;&gt;n9</title>
<path fill="none" stroke="black" d="M420.68,-146.33C403.23,-135.79 379.54,-121.5 360.61,-110.08"/>
<polygon fill="black" stroke="black" points="362.6,-107.19 352.23,-105.02 358.98,-113.18 362.6,-107.19"/>
</g>
<!-- n10 -->
<g id="node11" class="node">
<title>n10</title>
<ellipse fill="none" stroke="black" cx="409" cy="-90" rx="27" ry="18"/>
<text text-anchor="middle" x="409" y="-84.95" font-family="Times,serif" font-size="14.00">(</text>
</g>
<!-- n8&#45;&gt;n10 -->
<g id="edge10" class="edge">
<title>n8&#45;&gt;n10</title>
<path fill="none" stroke="black" d="M436.29,-144.05C432.16,-136.03 427.13,-126.26 422.52,-117.3"/>
<polygon fill="black" stroke="black" points="425.76,-115.95 418.08,-108.65 419.54,-119.15 425.76,-115.95"/>
</g>
<!-- n11 -->
<g id="node12" class="node">
<title>n11</title>
<ellipse fill="none" stroke="black" cx="481" cy="-90" rx="27" ry="18"/>
<text text-anchor="middle" x="481" y="-84.95" font-family="Times,serif" font-size="14.00">)</text>
</g>
<!-- n8&#45;&gt;n11 -->
<g id="edge11" class="edge">
<title>n8&#45;&gt;n11</title>
<path fill="none" stroke="black" d="M453.71,-144.05C457.84,-136.03 462.87,-126.26 467.48,-117.3"/>
<polygon fill="black" stroke="black" points="470.46,-119.15 471.92,-108.65 464.24,-115.95 470.46,-119.15"/>
</g>
<!-- n12 -->
<g id="node13" class="node">
<title>n12</title>
<ellipse fill="none" stroke="black" cx="553" cy="-90" rx="27" ry="18"/>
<text text-anchor="middle" x="553" y="-84.95" font-family="Times,serif" font-size="14.00">{</text>
</g>
<!-- n8&#45;&gt;n12 -->
<g id="edge12" class="edge">
<title>n8&#45;&gt;n12</title>
<path fill="none" stroke="black" d="M468.17,-145.98C484.8,-135.2 507.3,-120.62 524.94,-109.18"/>
<polygon fill="black" stroke="black" points="526.42,-112.4 532.91,-104.02 522.62,-106.52 526.42,-112.4"/>
</g>
<!-- n13 -->
<g id="node14" class="node">
<title>n13</title>
<ellipse fill="none" stroke="black" cx="625" cy="-90" rx="27" ry="18"/>
<text text-anchor="middle" x="625" y="-84.95" font-family="Times,serif" font-size="14.00">}</text>
</g>
<!-- n8&#45;&gt;n13 -->
<g id="edge13" class="edge">
<title>n8&#45;&gt;n13</title>
<path fill="none" stroke="black" d="M479.37,-149.31C508.76,-139.09 552.02,-123.5 589,-108 590.51,-107.37 592.06,-106.7 593.61,-106.02"/>
<polygon fill="black" stroke="black" points="594.79,-109.33 602.44,-102.01 591.89,-102.96 594.79,-109.33"/>
</g>
</g>
</svg>
