<?xml version="1.0" encoding="UTF-8" standalone="no"?>
<!DOCTYPE svg PUBLIC "-//W3C//DTD SVG 1.1//EN"
 "http://www.w3.org/Graphics/SVG/1.1/DTD/svg11.dtd">
<!-- Generated by graphviz version 5.0.1 (20220820.1526)
 -->
<!-- Title: arbolAST Pages: 1 -->
<svg width="422pt" height="476pt"
 viewBox="0.00 0.00 421.60 476.00" xmlns="http://www.w3.org/2000/svg" xmlns:xlink="http://www.w3.org/1999/xlink">
<g id="graph0" class="graph" transform="scale(1 1) rotate(0) translate(4 472)">
<title>arbolAST</title>
<polygon fill="white" stroke="none" points="-4,4 -4,-472 417.6,-472 417.6,4 -4,4"/>
<!-- n0 -->
<g id="node1" class="node">
<title>n0</title>
<ellipse fill="none" stroke="black" cx="208.6" cy="-450" rx="38.99" ry="18"/>
<text text-anchor="middle" x="208.6" y="-446.3" font-family="Times New Roman,serif" font-size="14.00">INICIO</text>
</g>
<!-- n1 -->
<g id="node2" class="node">
<title>n1</title>
<ellipse fill="none" stroke="black" cx="208.6" cy="-378" rx="83.39" ry="18"/>
<text text-anchor="middle" x="208.6" y="-374.3" font-family="Times New Roman,serif" font-size="14.00">INSTRUCCIONES</text>
</g>
<!-- n0&#45;&gt;n1 -->
<g id="edge1" class="edge">
<title>n0&#45;&gt;n1</title>
<path fill="none" stroke="black" d="M208.6,-431.7C208.6,-423.98 208.6,-414.71 208.6,-406.11"/>
<polygon fill="black" stroke="black" points="212.1,-406.1 208.6,-396.1 205.1,-406.1 212.1,-406.1"/>
</g>
<!-- n2 -->
<g id="node3" class="node">
<title>n2</title>
<ellipse fill="none" stroke="black" cx="208.6" cy="-306" rx="37.89" ry="18"/>
<text text-anchor="middle" x="208.6" y="-302.3" font-family="Times New Roman,serif" font-size="14.00">PRINT</text>
</g>
<!-- n1&#45;&gt;n2 -->
<g id="edge2" class="edge">
<title>n1&#45;&gt;n2</title>
<path fill="none" stroke="black" d="M208.6,-359.7C208.6,-351.98 208.6,-342.71 208.6,-334.11"/>
<polygon fill="black" stroke="black" points="212.1,-334.1 208.6,-324.1 205.1,-334.1 212.1,-334.1"/>
</g>
<!-- n3 -->
<g id="node4" class="node">
<title>n3</title>
<ellipse fill="none" stroke="black" cx="30.6" cy="-234" rx="27.1" ry="18"/>
<text text-anchor="middle" x="30.6" y="-230.3" font-family="Times New Roman,serif" font-size="14.00">print</text>
</g>
<!-- n2&#45;&gt;n3 -->
<g id="edge3" class="edge">
<title>n2&#45;&gt;n3</title>
<path fill="none" stroke="black" d="M178.94,-294.75C150.02,-284.56 104.9,-268.16 66.6,-252 64.78,-251.23 62.93,-250.43 61.06,-249.6"/>
<polygon fill="black" stroke="black" points="62.33,-246.34 51.78,-245.37 59.43,-252.7 62.33,-246.34"/>
</g>
<!-- n4 -->
<g id="node5" class="node">
<title>n4</title>
<ellipse fill="none" stroke="black" cx="102.6" cy="-234" rx="27" ry="18"/>
<text text-anchor="middle" x="102.6" y="-230.3" font-family="Times New Roman,serif" font-size="14.00">(</text>
</g>
<!-- n2&#45;&gt;n4 -->
<g id="edge4" class="edge">
<title>n2&#45;&gt;n4</title>
<path fill="none" stroke="black" d="M187.4,-291C170.94,-280.13 147.98,-264.97 130.1,-253.16"/>
<polygon fill="black" stroke="black" points="131.55,-249.92 121.27,-247.33 127.69,-255.76 131.55,-249.92"/>
</g>
<!-- n5 -->
<g id="node6" class="node">
<title>n5</title>
<ellipse fill="none" stroke="black" cx="208.6" cy="-234" rx="61.19" ry="18"/>
<text text-anchor="middle" x="208.6" y="-230.3" font-family="Times New Roman,serif" font-size="14.00">EXPRESION</text>
</g>
<!-- n2&#45;&gt;n5 -->
<g id="edge5" class="edge">
<title>n2&#45;&gt;n5</title>
<path fill="none" stroke="black" d="M208.6,-287.7C208.6,-279.98 208.6,-270.71 208.6,-262.11"/>
<polygon fill="black" stroke="black" points="212.1,-262.1 208.6,-252.1 205.1,-262.1 212.1,-262.1"/>
</g>
<!-- n15 -->
<g id="node16" class="node">
<title>n15</title>
<ellipse fill="none" stroke="black" cx="314.6" cy="-234" rx="27" ry="18"/>
<text text-anchor="middle" x="314.6" y="-230.3" font-family="Times New Roman,serif" font-size="14.00">)</text>
</g>
<!-- n2&#45;&gt;n15 -->
<g id="edge15" class="edge">
<title>n2&#45;&gt;n15</title>
<path fill="none" stroke="black" d="M229.79,-291C246.26,-280.13 269.22,-264.97 287.1,-253.16"/>
<polygon fill="black" stroke="black" points="289.51,-255.76 295.92,-247.33 285.65,-249.92 289.51,-255.76"/>
</g>
<!-- n16 -->
<g id="node17" class="node">
<title>n16</title>
<ellipse fill="none" stroke="black" cx="386.6" cy="-234" rx="27" ry="18"/>
<text text-anchor="middle" x="386.6" y="-230.3" font-family="Times New Roman,serif" font-size="14.00">;</text>
</g>
<!-- n2&#45;&gt;n16 -->
<g id="edge16" class="edge">
<title>n2&#45;&gt;n16</title>
<path fill="none" stroke="black" d="M238.25,-294.75C267.18,-284.56 312.29,-268.16 350.6,-252 352.41,-251.23 354.27,-250.43 356.14,-249.6"/>
<polygon fill="black" stroke="black" points="357.77,-252.7 365.41,-245.37 354.86,-246.34 357.77,-252.7"/>
</g>
<!-- n6 -->
<g id="node7" class="node">
<title>n6</title>
<ellipse fill="none" stroke="black" cx="102.6" cy="-162" rx="61.19" ry="18"/>
<text text-anchor="middle" x="102.6" y="-158.3" font-family="Times New Roman,serif" font-size="14.00">EXPRESION</text>
</g>
<!-- n5&#45;&gt;n6 -->
<g id="edge6" class="edge">
<title>n5&#45;&gt;n6</title>
<path fill="none" stroke="black" d="M184.81,-217.29C170.08,-207.56 150.97,-194.95 134.89,-184.32"/>
<polygon fill="black" stroke="black" points="136.58,-181.25 126.31,-178.66 132.72,-187.09 136.58,-181.25"/>
</g>
<!-- n12 -->
<g id="node13" class="node">
<title>n12</title>
<ellipse fill="none" stroke="black" cx="208.6" cy="-162" rx="27" ry="18"/>
<text text-anchor="middle" x="208.6" y="-158.3" font-family="Times New Roman,serif" font-size="14.00">+</text>
</g>
<!-- n5&#45;&gt;n12 -->
<g id="edge12" class="edge">
<title>n5&#45;&gt;n12</title>
<path fill="none" stroke="black" d="M208.6,-215.7C208.6,-207.98 208.6,-198.71 208.6,-190.11"/>
<polygon fill="black" stroke="black" points="212.1,-190.1 208.6,-180.1 205.1,-190.1 212.1,-190.1"/>
</g>
<!-- n13 -->
<g id="node14" class="node">
<title>n13</title>
<ellipse fill="none" stroke="black" cx="282.6" cy="-162" rx="28.7" ry="18"/>
<text text-anchor="middle" x="282.6" y="-158.3" font-family="Times New Roman,serif" font-size="14.00">Dato</text>
</g>
<!-- n5&#45;&gt;n13 -->
<g id="edge13" class="edge">
<title>n5&#45;&gt;n13</title>
<path fill="none" stroke="black" d="M226.13,-216.41C236.18,-206.91 248.89,-194.88 259.72,-184.65"/>
<polygon fill="black" stroke="black" points="262.33,-186.99 267.19,-177.57 257.52,-181.9 262.33,-186.99"/>
</g>
<!-- n7 -->
<g id="node8" class="node">
<title>n7</title>
<ellipse fill="none" stroke="black" cx="28.6" cy="-90" rx="28.7" ry="18"/>
<text text-anchor="middle" x="28.6" y="-86.3" font-family="Times New Roman,serif" font-size="14.00">Dato</text>
</g>
<!-- n6&#45;&gt;n7 -->
<g id="edge7" class="edge">
<title>n6&#45;&gt;n7</title>
<path fill="none" stroke="black" d="M85.06,-144.41C75.02,-134.91 62.3,-122.88 51.48,-112.65"/>
<polygon fill="black" stroke="black" points="53.67,-109.9 44,-105.57 48.86,-114.99 53.67,-109.9"/>
</g>
<!-- n9 -->
<g id="node10" class="node">
<title>n9</title>
<ellipse fill="none" stroke="black" cx="102.6" cy="-90" rx="27" ry="18"/>
<text text-anchor="middle" x="102.6" y="-86.3" font-family="Times New Roman,serif" font-size="14.00">*</text>
</g>
<!-- n6&#45;&gt;n9 -->
<g id="edge9" class="edge">
<title>n6&#45;&gt;n9</title>
<path fill="none" stroke="black" d="M102.6,-143.7C102.6,-135.98 102.6,-126.71 102.6,-118.11"/>
<polygon fill="black" stroke="black" points="106.1,-118.1 102.6,-108.1 99.1,-118.1 106.1,-118.1"/>
</g>
<!-- n10 -->
<g id="node11" class="node">
<title>n10</title>
<ellipse fill="none" stroke="black" cx="176.6" cy="-90" rx="28.7" ry="18"/>
<text text-anchor="middle" x="176.6" y="-86.3" font-family="Times New Roman,serif" font-size="14.00">Dato</text>
</g>
<!-- n6&#45;&gt;n10 -->
<g id="edge10" class="edge">
<title>n6&#45;&gt;n10</title>
<path fill="none" stroke="black" d="M120.13,-144.41C130.18,-134.91 142.89,-122.88 153.72,-112.65"/>
<polygon fill="black" stroke="black" points="156.33,-114.99 161.19,-105.57 151.52,-109.9 156.33,-114.99"/>
</g>
<!-- n8 -->
<g id="node9" class="node">
<title>n8</title>
<ellipse fill="none" stroke="black" cx="28.6" cy="-18" rx="27" ry="18"/>
<text text-anchor="middle" x="28.6" y="-14.3" font-family="Times New Roman,serif" font-size="14.00">2</text>
</g>
<!-- n7&#45;&gt;n8 -->
<g id="edge8" class="edge">
<title>n7&#45;&gt;n8</title>
<path fill="none" stroke="black" d="M28.6,-71.7C28.6,-63.98 28.6,-54.71 28.6,-46.11"/>
<polygon fill="black" stroke="black" points="32.1,-46.1 28.6,-36.1 25.1,-46.1 32.1,-46.1"/>
</g>
<!-- n11 -->
<g id="node12" class="node">
<title>n11</title>
<ellipse fill="none" stroke="black" cx="176.6" cy="-18" rx="27" ry="18"/>
<text text-anchor="middle" x="176.6" y="-14.3" font-family="Times New Roman,serif" font-size="14.00">2</text>
</g>
<!-- n10&#45;&gt;n11 -->
<g id="edge11" class="edge">
<title>n10&#45;&gt;n11</title>
<path fill="none" stroke="black" d="M176.6,-71.7C176.6,-63.98 176.6,-54.71 176.6,-46.11"/>
<polygon fill="black" stroke="black" points="180.1,-46.1 176.6,-36.1 173.1,-46.1 180.1,-46.1"/>
</g>
<!-- n14 -->
<g id="node15" class="node">
<title>n14</title>
<ellipse fill="none" stroke="black" cx="282.6" cy="-90" rx="27" ry="18"/>
<text text-anchor="middle" x="282.6" y="-86.3" font-family="Times New Roman,serif" font-size="14.00">66</text>
</g>
<!-- n13&#45;&gt;n14 -->
<g id="edge14" class="edge">
<title>n13&#45;&gt;n14</title>
<path fill="none" stroke="black" d="M282.6,-143.7C282.6,-135.98 282.6,-126.71 282.6,-118.11"/>
<polygon fill="black" stroke="black" points="286.1,-118.1 282.6,-108.1 279.1,-118.1 286.1,-118.1"/>
</g>
</g>
</svg>
