<?xml version="1.0" encoding="UTF-8" standalone="no"?>
<!DOCTYPE svg PUBLIC "-//W3C//DTD SVG 1.1//EN"
 "http://www.w3.org/Graphics/SVG/1.1/DTD/svg11.dtd">
<!-- Generated by graphviz version 10.0.1 (20240210.2158)
 -->
<!-- Title: arbolAST Pages: 1 -->
<svg width="792pt" height="404pt"
 viewBox="0.00 0.00 792.49 404.00" xmlns="http://www.w3.org/2000/svg" xmlns:xlink="http://www.w3.org/1999/xlink">
<g id="graph0" class="graph" transform="scale(1 1) rotate(0) translate(4 400)">
<title>arbolAST</title>
<polygon fill="white" stroke="none" points="-4,4 -4,-400 788.49,-400 788.49,4 -4,4"/>
<!-- n0 -->
<g id="node1" class="node">
<title>n0</title>
<ellipse fill="none" stroke="black" cx="342.49" cy="-378" rx="39.58" ry="18"/>
<text text-anchor="middle" x="342.49" y="-372.95" font-family="Times,serif" font-size="14.00">INICIO</text>
</g>
<!-- n1 -->
<g id="node2" class="node">
<title>n1</title>
<ellipse fill="none" stroke="black" cx="342.49" cy="-306" rx="83.6" ry="18"/>
<text text-anchor="middle" x="342.49" y="-300.95" font-family="Times,serif" font-size="14.00">INSTRUCCIONES</text>
</g>
<!-- n0&#45;&gt;n1 -->
<g id="edge1" class="edge">
<title>n0&#45;&gt;n1</title>
<path fill="none" stroke="black" d="M342.49,-359.7C342.49,-352.41 342.49,-343.73 342.49,-335.54"/>
<polygon fill="black" stroke="black" points="345.99,-335.62 342.49,-325.62 338.99,-335.62 345.99,-335.62"/>
</g>
<!-- n2 -->
<g id="node3" class="node">
<title>n2</title>
<ellipse fill="none" stroke="black" cx="226.49" cy="-234" rx="37.53" ry="18"/>
<text text-anchor="middle" x="226.49" y="-228.95" font-family="Times,serif" font-size="14.00">PRINT</text>
</g>
<!-- n1&#45;&gt;n2 -->
<g id="edge2" class="edge">
<title>n1&#45;&gt;n2</title>
<path fill="none" stroke="black" d="M315.29,-288.59C298.34,-278.36 276.44,-265.15 258.63,-254.4"/>
<polygon fill="black" stroke="black" points="260.89,-251.67 250.52,-249.5 257.27,-257.66 260.89,-251.67"/>
</g>
<!-- n9 -->
<g id="node10" class="node">
<title>n9</title>
<ellipse fill="none" stroke="black" cx="542.49" cy="-234" rx="37.53" ry="18"/>
<text text-anchor="middle" x="542.49" y="-228.95" font-family="Times,serif" font-size="14.00">PRINT</text>
</g>
<!-- n1&#45;&gt;n9 -->
<g id="edge9" class="edge">
<title>n1&#45;&gt;n9</title>
<path fill="none" stroke="black" d="M384.9,-290.15C419.56,-278.02 468.22,-260.99 502.27,-249.07"/>
<polygon fill="black" stroke="black" points="503.07,-252.5 511.35,-245.9 500.76,-245.9 503.07,-252.5"/>
</g>
<!-- n3 -->
<g id="node4" class="node">
<title>n3</title>
<ellipse fill="none" stroke="black" cx="35.49" cy="-162" rx="35.49" ry="18"/>
<text text-anchor="middle" x="35.49" y="-156.95" font-family="Times,serif" font-size="14.00">println</text>
</g>
<!-- n2&#45;&gt;n3 -->
<g id="edge3" class="edge">
<title>n2&#45;&gt;n3</title>
<path fill="none" stroke="black" d="M196.85,-222.54C167.11,-211.99 120.02,-195.14 79.49,-180 77.56,-179.28 75.58,-178.54 73.59,-177.78"/>
<polygon fill="black" stroke="black" points="74.91,-174.54 64.32,-174.25 72.42,-181.08 74.91,-174.54"/>
</g>
<!-- n4 -->
<g id="node5" class="node">
<title>n4</title>
<ellipse fill="none" stroke="black" cx="115.49" cy="-162" rx="27" ry="18"/>
<text text-anchor="middle" x="115.49" y="-156.95" font-family="Times,serif" font-size="14.00">(</text>
</g>
<!-- n2&#45;&gt;n4 -->
<g id="edge4" class="edge">
<title>n2&#45;&gt;n4</title>
<path fill="none" stroke="black" d="M204.29,-219C187.02,-208.11 162.93,-192.92 144.19,-181.1"/>
<polygon fill="black" stroke="black" points="146.29,-178.29 135.96,-175.91 142.55,-184.21 146.29,-178.29"/>
</g>
<!-- n5 -->
<g id="node6" class="node">
<title>n5</title>
<ellipse fill="none" stroke="black" cx="189.49" cy="-162" rx="28.83" ry="18"/>
<text text-anchor="middle" x="189.49" y="-156.95" font-family="Times,serif" font-size="14.00">Dato</text>
</g>
<!-- n2&#45;&gt;n5 -->
<g id="edge5" class="edge">
<title>n2&#45;&gt;n5</title>
<path fill="none" stroke="black" d="M217.53,-216.05C213.29,-208.03 208.12,-198.26 203.39,-189.3"/>
<polygon fill="black" stroke="black" points="206.58,-187.85 198.81,-180.65 200.39,-191.12 206.58,-187.85"/>
</g>
<!-- n7 -->
<g id="node8" class="node">
<title>n7</title>
<ellipse fill="none" stroke="black" cx="263.49" cy="-162" rx="27" ry="18"/>
<text text-anchor="middle" x="263.49" y="-156.95" font-family="Times,serif" font-size="14.00">)</text>
</g>
<!-- n2&#45;&gt;n7 -->
<g id="edge7" class="edge">
<title>n2&#45;&gt;n7</title>
<path fill="none" stroke="black" d="M235.44,-216.05C239.68,-208.03 244.85,-198.26 249.59,-189.3"/>
<polygon fill="black" stroke="black" points="252.58,-191.12 254.16,-180.65 246.39,-187.85 252.58,-191.12"/>
</g>
<!-- n8 -->
<g id="node9" class="node">
<title>n8</title>
<ellipse fill="none" stroke="black" cx="335.49" cy="-162" rx="27" ry="18"/>
<text text-anchor="middle" x="335.49" y="-156.95" font-family="Times,serif" font-size="14.00">;</text>
</g>
<!-- n2&#45;&gt;n8 -->
<g id="edge8" class="edge">
<title>n2&#45;&gt;n8</title>
<path fill="none" stroke="black" d="M248.28,-219C265.16,-208.16 288.68,-193.06 307.04,-181.27"/>
<polygon fill="black" stroke="black" points="308.84,-184.27 315.36,-175.92 305.06,-178.38 308.84,-184.27"/>
</g>
<!-- n6 -->
<g id="node7" class="node">
<title>n6</title>
<ellipse fill="none" stroke="black" cx="189.49" cy="-90" rx="27" ry="18"/>
<text text-anchor="middle" x="189.49" y="-84.95" font-family="Times,serif" font-size="14.00">3</text>
</g>
<!-- n5&#45;&gt;n6 -->
<g id="edge6" class="edge">
<title>n5&#45;&gt;n6</title>
<path fill="none" stroke="black" d="M189.49,-143.7C189.49,-136.41 189.49,-127.73 189.49,-119.54"/>
<polygon fill="black" stroke="black" points="192.99,-119.62 189.49,-109.62 185.99,-119.62 192.99,-119.62"/>
</g>
<!-- n10 -->
<g id="node11" class="node">
<title>n10</title>
<ellipse fill="none" stroke="black" cx="415.49" cy="-162" rx="35.49" ry="18"/>
<text text-anchor="middle" x="415.49" y="-156.95" font-family="Times,serif" font-size="14.00">println</text>
</g>
<!-- n9&#45;&gt;n10 -->
<g id="edge10" class="edge">
<title>n9&#45;&gt;n10</title>
<path fill="none" stroke="black" d="M518.6,-219.83C498.87,-208.96 470.66,-193.41 448.73,-181.32"/>
<polygon fill="black" stroke="black" points="450.61,-178.36 440.16,-176.6 447.23,-184.49 450.61,-178.36"/>
</g>
<!-- n11 -->
<g id="node12" class="node">
<title>n11</title>
<ellipse fill="none" stroke="black" cx="495.49" cy="-162" rx="27" ry="18"/>
<text text-anchor="middle" x="495.49" y="-156.95" font-family="Times,serif" font-size="14.00">(</text>
</g>
<!-- n9&#45;&gt;n11 -->
<g id="edge11" class="edge">
<title>n9&#45;&gt;n11</title>
<path fill="none" stroke="black" d="M531.35,-216.41C525.71,-208.01 518.74,-197.63 512.45,-188.26"/>
<polygon fill="black" stroke="black" points="515.54,-186.6 507.06,-180.24 509.73,-190.5 515.54,-186.6"/>
</g>
<!-- n12 -->
<g id="node13" class="node">
<title>n12</title>
<ellipse fill="none" stroke="black" cx="590.49" cy="-162" rx="50.33" ry="18"/>
<text text-anchor="middle" x="590.49" y="-156.95" font-family="Times,serif" font-size="14.00">Relacional</text>
</g>
<!-- n9&#45;&gt;n12 -->
<g id="edge12" class="edge">
<title>n9&#45;&gt;n12</title>
<path fill="none" stroke="black" d="M553.86,-216.41C559.4,-208.34 566.19,-198.43 572.41,-189.35"/>
<polygon fill="black" stroke="black" points="575.23,-191.43 578,-181.2 569.46,-187.47 575.23,-191.43"/>
</g>
<!-- n18 -->
<g id="node19" class="node">
<title>n18</title>
<ellipse fill="none" stroke="black" cx="685.49" cy="-162" rx="27" ry="18"/>
<text text-anchor="middle" x="685.49" y="-156.95" font-family="Times,serif" font-size="14.00">)</text>
</g>
<!-- n9&#45;&gt;n18 -->
<g id="edge18" class="edge">
<title>n9&#45;&gt;n18</title>
<path fill="none" stroke="black" d="M568.05,-220.49C592.2,-208.66 628.47,-190.91 654.3,-178.26"/>
<polygon fill="black" stroke="black" points="655.53,-181.56 662.97,-174.02 652.45,-175.27 655.53,-181.56"/>
</g>
<!-- n19 -->
<g id="node20" class="node">
<title>n19</title>
<ellipse fill="none" stroke="black" cx="757.49" cy="-162" rx="27" ry="18"/>
<text text-anchor="middle" x="757.49" y="-156.95" font-family="Times,serif" font-size="14.00">;</text>
</g>
<!-- n9&#45;&gt;n19 -->
<g id="edge19" class="edge">
<title>n9&#45;&gt;n19</title>
<path fill="none" stroke="black" d="M575.32,-224.9C611.6,-215.57 671.52,-199.06 721.49,-180 723.02,-179.41 724.58,-178.79 726.14,-178.14"/>
<polygon fill="black" stroke="black" points="727.28,-181.47 735.01,-174.23 724.45,-175.06 727.28,-181.47"/>
</g>
<!-- n13 -->
<g id="node14" class="node">
<title>n13</title>
<ellipse fill="none" stroke="black" cx="516.49" cy="-90" rx="28.83" ry="18"/>
<text text-anchor="middle" x="516.49" y="-84.95" font-family="Times,serif" font-size="14.00">Dato</text>
</g>
<!-- n12&#45;&gt;n13 -->
<g id="edge13" class="edge">
<title>n12&#45;&gt;n13</title>
<path fill="none" stroke="black" d="M573.32,-144.76C563.35,-135.33 550.65,-123.32 539.78,-113.04"/>
<polygon fill="black" stroke="black" points="542.32,-110.62 532.65,-106.29 537.51,-115.7 542.32,-110.62"/>
</g>
<!-- n15 -->
<g id="node16" class="node">
<title>n15</title>
<ellipse fill="none" stroke="black" cx="590.49" cy="-90" rx="27" ry="18"/>
<text text-anchor="middle" x="590.49" y="-84.95" font-family="Times,serif" font-size="14.00">==</text>
</g>
<!-- n12&#45;&gt;n15 -->
<g id="edge15" class="edge">
<title>n12&#45;&gt;n15</title>
<path fill="none" stroke="black" d="M590.49,-143.7C590.49,-136.41 590.49,-127.73 590.49,-119.54"/>
<polygon fill="black" stroke="black" points="593.99,-119.62 590.49,-109.62 586.99,-119.62 593.99,-119.62"/>
</g>
<!-- n16 -->
<g id="node17" class="node">
<title>n16</title>
<ellipse fill="none" stroke="black" cx="664.49" cy="-90" rx="28.83" ry="18"/>
<text text-anchor="middle" x="664.49" y="-84.95" font-family="Times,serif" font-size="14.00">Dato</text>
</g>
<!-- n12&#45;&gt;n16 -->
<g id="edge16" class="edge">
<title>n12&#45;&gt;n16</title>
<path fill="none" stroke="black" d="M607.65,-144.76C617.62,-135.33 630.32,-123.32 641.19,-113.04"/>
<polygon fill="black" stroke="black" points="643.46,-115.7 648.32,-106.29 638.65,-110.62 643.46,-115.7"/>
</g>
<!-- n14 -->
<g id="node15" class="node">
<title>n14</title>
<ellipse fill="none" stroke="black" cx="516.49" cy="-18" rx="27" ry="18"/>
<text text-anchor="middle" x="516.49" y="-12.95" font-family="Times,serif" font-size="14.00">3</text>
</g>
<!-- n13&#45;&gt;n14 -->
<g id="edge14" class="edge">
<title>n13&#45;&gt;n14</title>
<path fill="none" stroke="black" d="M516.49,-71.7C516.49,-64.41 516.49,-55.73 516.49,-47.54"/>
<polygon fill="black" stroke="black" points="519.99,-47.62 516.49,-37.62 512.99,-47.62 519.99,-47.62"/>
</g>
<!-- n17 -->
<g id="node18" class="node">
<title>n17</title>
<ellipse fill="none" stroke="black" cx="664.49" cy="-18" rx="27" ry="18"/>
<text text-anchor="middle" x="664.49" y="-12.95" font-family="Times,serif" font-size="14.00">3</text>
</g>
<!-- n16&#45;&gt;n17 -->
<g id="edge17" class="edge">
<title>n16&#45;&gt;n17</title>
<path fill="none" stroke="black" d="M664.49,-71.7C664.49,-64.41 664.49,-55.73 664.49,-47.54"/>
<polygon fill="black" stroke="black" points="667.99,-47.62 664.49,-37.62 660.99,-47.62 667.99,-47.62"/>
</g>
</g>
</svg>
