<?xml version="1.0" encoding="UTF-8" standalone="no"?>
<!DOCTYPE svg PUBLIC "-//W3C//DTD SVG 1.1//EN"
 "http://www.w3.org/Graphics/SVG/1.1/DTD/svg11.dtd">
<!-- Generated by graphviz version 10.0.1 (20240210.2158)
 -->
<!-- Title: arbolAST Pages: 1 -->
<svg width="855pt" height="404pt"
 viewBox="0.00 0.00 854.63 404.00" xmlns="http://www.w3.org/2000/svg" xmlns:xlink="http://www.w3.org/1999/xlink">
<g id="graph0" class="graph" transform="scale(1 1) rotate(0) translate(4 400)">
<title>arbolAST</title>
<polygon fill="white" stroke="none" points="-4,4 -4,-400 850.63,-400 850.63,4 -4,4"/>
<!-- n0 -->
<g id="node1" class="node">
<title>n0</title>
<ellipse fill="none" stroke="black" cx="285.63" cy="-378" rx="39.58" ry="18"/>
<text text-anchor="middle" x="285.63" y="-372.95" font-family="Times,serif" font-size="14.00">INICIO</text>
</g>
<!-- n1 -->
<g id="node2" class="node">
<title>n1</title>
<ellipse fill="none" stroke="black" cx="285.63" cy="-306" rx="83.6" ry="18"/>
<text text-anchor="middle" x="285.63" y="-300.95" font-family="Times,serif" font-size="14.00">INSTRUCCIONES</text>
</g>
<!-- n0&#45;&gt;n1 -->
<g id="edge1" class="edge">
<title>n0&#45;&gt;n1</title>
<path fill="none" stroke="black" d="M285.63,-359.7C285.63,-352.41 285.63,-343.73 285.63,-335.54"/>
<polygon fill="black" stroke="black" points="289.13,-335.62 285.63,-325.62 282.13,-335.62 289.13,-335.62"/>
</g>
<!-- n2 -->
<g id="node3" class="node">
<title>n2</title>
<ellipse fill="none" stroke="black" cx="285.63" cy="-234" rx="51.86" ry="18"/>
<text text-anchor="middle" x="285.63" y="-228.95" font-family="Times,serif" font-size="14.00">FUNCION</text>
</g>
<!-- n1&#45;&gt;n2 -->
<g id="edge2" class="edge">
<title>n1&#45;&gt;n2</title>
<path fill="none" stroke="black" d="M285.63,-287.7C285.63,-280.41 285.63,-271.73 285.63,-263.54"/>
<polygon fill="black" stroke="black" points="289.13,-263.62 285.63,-253.62 282.13,-263.62 289.13,-263.62"/>
</g>
<!-- n3 -->
<g id="node4" class="node">
<title>n3</title>
<ellipse fill="none" stroke="black" cx="41.63" cy="-162" rx="41.63" ry="18"/>
<text text-anchor="middle" x="41.63" y="-156.95" font-family="Times,serif" font-size="14.00">function</text>
</g>
<!-- n2&#45;&gt;n3 -->
<g id="edge3" class="edge">
<title>n2&#45;&gt;n3</title>
<path fill="none" stroke="black" d="M244.78,-222.46C205.59,-212.2 144.83,-195.85 92.63,-180 89.93,-179.18 87.16,-178.32 84.37,-177.44"/>
<polygon fill="black" stroke="black" points="85.68,-174.18 75.09,-174.43 83.52,-180.84 85.68,-174.18"/>
</g>
<!-- n4 -->
<g id="node5" class="node">
<title>n4</title>
<ellipse fill="none" stroke="black" cx="140.63" cy="-162" rx="39.07" ry="18"/>
<text text-anchor="middle" x="140.63" y="-156.95" font-family="Times,serif" font-size="14.00">metodo</text>
</g>
<!-- n2&#45;&gt;n4 -->
<g id="edge4" class="edge">
<title>n2&#45;&gt;n4</title>
<path fill="none" stroke="black" d="M256.28,-218.83C233.51,-207.84 201.79,-192.53 177.33,-180.72"/>
<polygon fill="black" stroke="black" points="178.89,-177.59 168.36,-176.39 175.85,-183.89 178.89,-177.59"/>
</g>
<!-- n5 -->
<g id="node6" class="node">
<title>n5</title>
<ellipse fill="none" stroke="black" cx="224.63" cy="-162" rx="27" ry="18"/>
<text text-anchor="middle" x="224.63" y="-156.95" font-family="Times,serif" font-size="14.00">{</text>
</g>
<!-- n2&#45;&gt;n5 -->
<g id="edge5" class="edge">
<title>n2&#45;&gt;n5</title>
<path fill="none" stroke="black" d="M271.17,-216.41C263.4,-207.5 253.69,-196.35 245.15,-186.56"/>
<polygon fill="black" stroke="black" points="247.93,-184.42 238.73,-179.18 242.66,-189.02 247.93,-184.42"/>
</g>
<!-- n6 -->
<g id="node7" class="node">
<title>n6</title>
<ellipse fill="none" stroke="black" cx="346.63" cy="-162" rx="76.94" ry="18"/>
<text text-anchor="middle" x="346.63" y="-156.95" font-family="Times,serif" font-size="14.00">DECLARACION</text>
</g>
<!-- n2&#45;&gt;n6 -->
<g id="edge6" class="edge">
<title>n2&#45;&gt;n6</title>
<path fill="none" stroke="black" d="M300.08,-216.41C307.35,-208.08 316.3,-197.8 324.42,-188.49"/>
<polygon fill="black" stroke="black" points="326.93,-190.94 330.86,-181.1 321.65,-186.34 326.93,-190.94"/>
</g>
<!-- n12 -->
<g id="node13" class="node">
<title>n12</title>
<ellipse fill="none" stroke="black" cx="545.63" cy="-162" rx="37.53" ry="18"/>
<text text-anchor="middle" x="545.63" y="-156.95" font-family="Times,serif" font-size="14.00">PRINT</text>
</g>
<!-- n2&#45;&gt;n12 -->
<g id="edge12" class="edge">
<title>n2&#45;&gt;n12</title>
<path fill="none" stroke="black" d="M325.68,-222.22C373.52,-209.34 453.23,-187.88 502.42,-174.63"/>
<polygon fill="black" stroke="black" points="503.12,-178.07 511.87,-172.09 501.3,-171.31 503.12,-178.07"/>
</g>
<!-- n18 -->
<g id="node19" class="node">
<title>n18</title>
<ellipse fill="none" stroke="black" cx="628.63" cy="-162" rx="27" ry="18"/>
<text text-anchor="middle" x="628.63" y="-156.95" font-family="Times,serif" font-size="14.00">}</text>
</g>
<!-- n2&#45;&gt;n18 -->
<g id="edge18" class="edge">
<title>n2&#45;&gt;n18</title>
<path fill="none" stroke="black" d="M335.52,-228.57C397.09,-222.15 504.44,-207.87 592.63,-180 594.23,-179.49 595.86,-178.93 597.49,-178.32"/>
<polygon fill="black" stroke="black" points="598.82,-181.56 606.68,-174.46 596.1,-175.11 598.82,-181.56"/>
</g>
<!-- n7 -->
<g id="node8" class="node">
<title>n7</title>
<ellipse fill="none" stroke="black" cx="139.63" cy="-90" rx="27" ry="18"/>
<text text-anchor="middle" x="139.63" y="-84.95" font-family="Times,serif" font-size="14.00">int</text>
</g>
<!-- n6&#45;&gt;n7 -->
<g id="edge7" class="edge">
<title>n6&#45;&gt;n7</title>
<path fill="none" stroke="black" d="M297.72,-147.82C263.18,-138.04 216.04,-123.71 175.63,-108 174.1,-107.41 172.54,-106.77 170.98,-106.12"/>
<polygon fill="black" stroke="black" points="172.67,-103.04 162.11,-102.19 169.83,-109.44 172.67,-103.04"/>
</g>
<!-- n8 -->
<g id="node9" class="node">
<title>n8</title>
<ellipse fill="none" stroke="black" cx="224.63" cy="-90" rx="39.58" ry="18"/>
<text text-anchor="middle" x="224.63" y="-84.95" font-family="Times,serif" font-size="14.00">numero</text>
</g>
<!-- n6&#45;&gt;n8 -->
<g id="edge8" class="edge">
<title>n6&#45;&gt;n8</title>
<path fill="none" stroke="black" d="M318.64,-144.94C300.63,-134.61 277.13,-121.12 258.13,-110.22"/>
<polygon fill="black" stroke="black" points="260.11,-107.32 249.69,-105.38 256.62,-113.39 260.11,-107.32"/>
</g>
<!-- n9 -->
<g id="node10" class="node">
<title>n9</title>
<ellipse fill="none" stroke="black" cx="309.63" cy="-90" rx="27" ry="18"/>
<text text-anchor="middle" x="309.63" y="-84.95" font-family="Times,serif" font-size="14.00">=</text>
</g>
<!-- n6&#45;&gt;n9 -->
<g id="edge9" class="edge">
<title>n6&#45;&gt;n9</title>
<path fill="none" stroke="black" d="M337.48,-143.7C333.24,-135.67 328.1,-125.95 323.4,-117.05"/>
<polygon fill="black" stroke="black" points="326.64,-115.69 318.87,-108.48 320.45,-118.96 326.64,-115.69"/>
</g>
<!-- n10 -->
<g id="node11" class="node">
<title>n10</title>
<ellipse fill="none" stroke="black" cx="383.63" cy="-90" rx="28.83" ry="18"/>
<text text-anchor="middle" x="383.63" y="-84.95" font-family="Times,serif" font-size="14.00">Dato</text>
</g>
<!-- n6&#45;&gt;n10 -->
<g id="edge10" class="edge">
<title>n6&#45;&gt;n10</title>
<path fill="none" stroke="black" d="M355.77,-143.7C359.91,-135.87 364.9,-126.44 369.5,-117.73"/>
<polygon fill="black" stroke="black" points="372.55,-119.44 374.13,-108.96 366.37,-116.17 372.55,-119.44"/>
</g>
<!-- n11 -->
<g id="node12" class="node">
<title>n11</title>
<ellipse fill="none" stroke="black" cx="383.63" cy="-18" rx="27" ry="18"/>
<text text-anchor="middle" x="383.63" y="-12.95" font-family="Times,serif" font-size="14.00">2</text>
</g>
<!-- n10&#45;&gt;n11 -->
<g id="edge11" class="edge">
<title>n10&#45;&gt;n11</title>
<path fill="none" stroke="black" d="M383.63,-71.7C383.63,-64.41 383.63,-55.73 383.63,-47.54"/>
<polygon fill="black" stroke="black" points="387.13,-47.62 383.63,-37.62 380.13,-47.62 387.13,-47.62"/>
</g>
<!-- n13 -->
<g id="node14" class="node">
<title>n13</title>
<ellipse fill="none" stroke="black" cx="465.63" cy="-90" rx="35.49" ry="18"/>
<text text-anchor="middle" x="465.63" y="-84.95" font-family="Times,serif" font-size="14.00">println</text>
</g>
<!-- n12&#45;&gt;n13 -->
<g id="edge13" class="edge">
<title>n12&#45;&gt;n13</title>
<path fill="none" stroke="black" d="M528.27,-145.81C517.47,-136.36 503.39,-124.04 491.31,-113.48"/>
<polygon fill="black" stroke="black" points="493.92,-111.11 484.09,-107.16 489.31,-116.38 493.92,-111.11"/>
</g>
<!-- n14 -->
<g id="node15" class="node">
<title>n14</title>
<ellipse fill="none" stroke="black" cx="545.63" cy="-90" rx="27" ry="18"/>
<text text-anchor="middle" x="545.63" y="-84.95" font-family="Times,serif" font-size="14.00">(</text>
</g>
<!-- n12&#45;&gt;n14 -->
<g id="edge14" class="edge">
<title>n12&#45;&gt;n14</title>
<path fill="none" stroke="black" d="M545.63,-143.7C545.63,-136.41 545.63,-127.73 545.63,-119.54"/>
<polygon fill="black" stroke="black" points="549.13,-119.62 545.63,-109.62 542.13,-119.62 549.13,-119.62"/>
</g>
<!-- n15 -->
<g id="node16" class="node">
<title>n15</title>
<ellipse fill="none" stroke="black" cx="646.63" cy="-90" rx="56.47" ry="18"/>
<text text-anchor="middle" x="646.63" y="-84.95" font-family="Times,serif" font-size="14.00">VARIABLE</text>
</g>
<!-- n12&#45;&gt;n15 -->
<g id="edge15" class="edge">
<title>n12&#45;&gt;n15</title>
<path fill="none" stroke="black" d="M566.07,-146.83C579.91,-137.24 598.49,-124.36 614.32,-113.39"/>
<polygon fill="black" stroke="black" points="616.28,-116.29 622.51,-107.72 612.3,-110.54 616.28,-116.29"/>
</g>
<!-- n16 -->
<g id="node17" class="node">
<title>n16</title>
<ellipse fill="none" stroke="black" cx="747.63" cy="-90" rx="27" ry="18"/>
<text text-anchor="middle" x="747.63" y="-84.95" font-family="Times,serif" font-size="14.00">)</text>
</g>
<!-- n12&#45;&gt;n16 -->
<g id="edge16" class="edge">
<title>n12&#45;&gt;n16</title>
<path fill="none" stroke="black" d="M574.63,-150.24C580.56,-148.11 586.78,-145.94 592.63,-144 645.07,-126.6 660.06,-127.85 711.63,-108 713.16,-107.41 714.72,-106.78 716.28,-106.13"/>
<polygon fill="black" stroke="black" points="717.42,-109.46 725.15,-102.21 714.59,-103.05 717.42,-109.46"/>
</g>
<!-- n17 -->
<g id="node18" class="node">
<title>n17</title>
<ellipse fill="none" stroke="black" cx="819.63" cy="-90" rx="27" ry="18"/>
<text text-anchor="middle" x="819.63" y="-84.95" font-family="Times,serif" font-size="14.00">;</text>
</g>
<!-- n12&#45;&gt;n17 -->
<g id="edge17" class="edge">
<title>n12&#45;&gt;n17</title>
<path fill="none" stroke="black" d="M574.22,-149.83C580.25,-147.71 586.6,-145.65 592.63,-144 675.96,-121.24 701.46,-134.66 783.63,-108 785.23,-107.48 786.85,-106.91 788.48,-106.29"/>
<polygon fill="black" stroke="black" points="789.82,-109.53 797.66,-102.4 787.09,-103.08 789.82,-109.53"/>
</g>
</g>
</svg>
