<?xml version="1.0" encoding="UTF-8" standalone="no"?>
<!DOCTYPE svg PUBLIC "-//W3C//DTD SVG 1.1//EN"
 "http://www.w3.org/Graphics/SVG/1.1/DTD/svg11.dtd">
<!-- Generated by graphviz version 10.0.1 (20240210.2158)
 -->
<!-- Title: arbolAST Pages: 1 -->
<svg width="866pt" height="404pt"
 viewBox="0.00 0.00 866.00 404.00" xmlns="http://www.w3.org/2000/svg" xmlns:xlink="http://www.w3.org/1999/xlink">
<g id="graph0" class="graph" transform="scale(1 1) rotate(0) translate(4 400)">
<title>arbolAST</title>
<polygon fill="white" stroke="none" points="-4,4 -4,-400 862,-400 862,4 -4,4"/>
<!-- n0 -->
<g id="node1" class="node">
<title>n0</title>
<ellipse fill="none" stroke="black" cx="441" cy="-378" rx="39.58" ry="18"/>
<text text-anchor="middle" x="441" y="-372.95" font-family="Times,serif" font-size="14.00">INICIO</text>
</g>
<!-- n1 -->
<g id="node2" class="node">
<title>n1</title>
<ellipse fill="none" stroke="black" cx="441" cy="-306" rx="83.6" ry="18"/>
<text text-anchor="middle" x="441" y="-300.95" font-family="Times,serif" font-size="14.00">INSTRUCCIONES</text>
</g>
<!-- n0&#45;&gt;n1 -->
<g id="edge1" class="edge">
<title>n0&#45;&gt;n1</title>
<path fill="none" stroke="black" d="M441,-359.7C441,-352.41 441,-343.73 441,-335.54"/>
<polygon fill="black" stroke="black" points="444.5,-335.62 441,-325.62 437.5,-335.62 444.5,-335.62"/>
</g>
<!-- n2 -->
<g id="node3" class="node">
<title>n2</title>
<ellipse fill="none" stroke="black" cx="441" cy="-234" rx="27" ry="18"/>
<text text-anchor="middle" x="441" y="-228.95" font-family="Times,serif" font-size="14.00">IF</text>
</g>
<!-- n1&#45;&gt;n2 -->
<g id="edge2" class="edge">
<title>n1&#45;&gt;n2</title>
<path fill="none" stroke="black" d="M441,-287.7C441,-280.41 441,-271.73 441,-263.54"/>
<polygon fill="black" stroke="black" points="444.5,-263.62 441,-253.62 437.5,-263.62 444.5,-263.62"/>
</g>
<!-- n3 -->
<g id="node4" class="node">
<title>n3</title>
<ellipse fill="none" stroke="black" cx="27" cy="-162" rx="27" ry="18"/>
<text text-anchor="middle" x="27" y="-156.95" font-family="Times,serif" font-size="14.00">if</text>
</g>
<!-- n2&#45;&gt;n3 -->
<g id="edge3" class="edge">
<title>n2&#45;&gt;n3</title>
<path fill="none" stroke="black" d="M413.83,-231.99C350.86,-229.05 190.63,-218.12 63,-180 61.39,-179.52 59.75,-178.97 58.12,-178.38"/>
<polygon fill="black" stroke="black" points="59.49,-175.16 48.92,-174.57 56.81,-181.63 59.49,-175.16"/>
</g>
<!-- n4 -->
<g id="node5" class="node">
<title>n4</title>
<ellipse fill="none" stroke="black" cx="99" cy="-162" rx="27" ry="18"/>
<text text-anchor="middle" x="99" y="-156.95" font-family="Times,serif" font-size="14.00">(</text>
</g>
<!-- n2&#45;&gt;n4 -->
<g id="edge4" class="edge">
<title>n2&#45;&gt;n4</title>
<path fill="none" stroke="black" d="M414.23,-230.81C360.32,-225.86 235.24,-211.71 135,-180 133.39,-179.49 131.77,-178.93 130.14,-178.32"/>
<polygon fill="black" stroke="black" points="131.53,-175.11 120.95,-174.46 128.81,-181.56 131.53,-175.11"/>
</g>
<!-- n5 -->
<g id="node6" class="node">
<title>n5</title>
<ellipse fill="none" stroke="black" cx="194" cy="-162" rx="50.33" ry="18"/>
<text text-anchor="middle" x="194" y="-156.95" font-family="Times,serif" font-size="14.00">Relacional</text>
</g>
<!-- n2&#45;&gt;n5 -->
<g id="edge5" class="edge">
<title>n2&#45;&gt;n5</title>
<path fill="none" stroke="black" d="M416.35,-226.1C380.41,-216.03 311.54,-196.68 253,-180 249.88,-179.11 246.66,-178.19 243.42,-177.26"/>
<polygon fill="black" stroke="black" points="244.43,-173.91 233.85,-174.51 242.49,-180.64 244.43,-173.91"/>
</g>
<!-- n11 -->
<g id="node12" class="node">
<title>n11</title>
<ellipse fill="none" stroke="black" cx="289" cy="-162" rx="27" ry="18"/>
<text text-anchor="middle" x="289" y="-156.95" font-family="Times,serif" font-size="14.00">)</text>
</g>
<!-- n2&#45;&gt;n11 -->
<g id="edge11" class="edge">
<title>n2&#45;&gt;n11</title>
<path fill="none" stroke="black" d="M419.16,-223.12C395.81,-212.53 357.73,-195.2 325,-180 323.7,-179.39 322.36,-178.77 321.02,-178.15"/>
<polygon fill="black" stroke="black" points="322.59,-175.02 312.05,-173.94 319.62,-181.35 322.59,-175.02"/>
</g>
<!-- n12 -->
<g id="node13" class="node">
<title>n12</title>
<ellipse fill="none" stroke="black" cx="361" cy="-162" rx="27" ry="18"/>
<text text-anchor="middle" x="361" y="-156.95" font-family="Times,serif" font-size="14.00">{</text>
</g>
<!-- n2&#45;&gt;n12 -->
<g id="edge12" class="edge">
<title>n2&#45;&gt;n12</title>
<path fill="none" stroke="black" d="M425.19,-219.17C413.8,-209.2 398.21,-195.56 385.24,-184.21"/>
<polygon fill="black" stroke="black" points="387.74,-181.75 377.91,-177.8 383.13,-187.02 387.74,-181.75"/>
</g>
<!-- n13 -->
<g id="node14" class="node">
<title>n13</title>
<ellipse fill="none" stroke="black" cx="441" cy="-162" rx="35.49" ry="18"/>
<text text-anchor="middle" x="441" y="-156.95" font-family="Times,serif" font-size="14.00">println</text>
</g>
<!-- n2&#45;&gt;n13 -->
<g id="edge13" class="edge">
<title>n2&#45;&gt;n13</title>
<path fill="none" stroke="black" d="M441,-215.7C441,-208.41 441,-199.73 441,-191.54"/>
<polygon fill="black" stroke="black" points="444.5,-191.62 441,-181.62 437.5,-191.62 444.5,-191.62"/>
</g>
<!-- n14 -->
<g id="node15" class="node">
<title>n14</title>
<ellipse fill="none" stroke="black" cx="521" cy="-162" rx="27" ry="18"/>
<text text-anchor="middle" x="521" y="-156.95" font-family="Times,serif" font-size="14.00">(</text>
</g>
<!-- n2&#45;&gt;n14 -->
<g id="edge14" class="edge">
<title>n2&#45;&gt;n14</title>
<path fill="none" stroke="black" d="M456.81,-219.17C468.2,-209.2 483.79,-195.56 496.76,-184.21"/>
<polygon fill="black" stroke="black" points="498.87,-187.02 504.09,-177.8 494.26,-181.75 498.87,-187.02"/>
</g>
<!-- n15 -->
<g id="node16" class="node">
<title>n15</title>
<ellipse fill="none" stroke="black" cx="604" cy="-162" rx="37.53" ry="18"/>
<text text-anchor="middle" x="604" y="-156.95" font-family="Times,serif" font-size="14.00">PRINT</text>
</g>
<!-- n2&#45;&gt;n15 -->
<g id="edge15" class="edge">
<title>n2&#45;&gt;n15</title>
<path fill="none" stroke="black" d="M463.32,-223.41C489.88,-212.01 534.62,-192.79 566.52,-179.1"/>
<polygon fill="black" stroke="black" points="567.6,-182.44 575.4,-175.28 564.83,-176.01 567.6,-182.44"/>
</g>
<!-- n22 -->
<g id="node23" class="node">
<title>n22</title>
<ellipse fill="none" stroke="black" cx="687" cy="-162" rx="27" ry="18"/>
<text text-anchor="middle" x="687" y="-156.95" font-family="Times,serif" font-size="14.00">)</text>
</g>
<!-- n2&#45;&gt;n22 -->
<g id="edge22" class="edge">
<title>n2&#45;&gt;n22</title>
<path fill="none" stroke="black" d="M467.02,-228.13C507.18,-220.23 586.4,-203.16 651,-180 652.55,-179.45 654.11,-178.85 655.69,-178.22"/>
<polygon fill="black" stroke="black" points="656.8,-181.55 664.58,-174.37 654.01,-175.13 656.8,-181.55"/>
</g>
<!-- n23 -->
<g id="node24" class="node">
<title>n23</title>
<ellipse fill="none" stroke="black" cx="759" cy="-162" rx="27" ry="18"/>
<text text-anchor="middle" x="759" y="-156.95" font-family="Times,serif" font-size="14.00">;</text>
</g>
<!-- n2&#45;&gt;n23 -->
<g id="edge23" class="edge">
<title>n2&#45;&gt;n23</title>
<path fill="none" stroke="black" d="M467.61,-230.29C518.29,-224.64 631.78,-209.57 723,-180 724.6,-179.48 726.23,-178.91 727.85,-178.29"/>
<polygon fill="black" stroke="black" points="729.19,-181.53 737.03,-174.41 726.46,-175.08 729.19,-181.53"/>
</g>
<!-- n24 -->
<g id="node25" class="node">
<title>n24</title>
<ellipse fill="none" stroke="black" cx="831" cy="-162" rx="27" ry="18"/>
<text text-anchor="middle" x="831" y="-156.95" font-family="Times,serif" font-size="14.00">}</text>
</g>
<!-- n2&#45;&gt;n24 -->
<g id="edge24" class="edge">
<title>n2&#45;&gt;n24</title>
<path fill="none" stroke="black" d="M468.24,-231.63C528.4,-228.03 676.67,-215.94 795,-180 796.61,-179.51 798.24,-178.96 799.88,-178.36"/>
<polygon fill="black" stroke="black" points="801.19,-181.61 809.07,-174.54 798.5,-175.15 801.19,-181.61"/>
</g>
<!-- n6 -->
<g id="node7" class="node">
<title>n6</title>
<ellipse fill="none" stroke="black" cx="120" cy="-90" rx="28.83" ry="18"/>
<text text-anchor="middle" x="120" y="-84.95" font-family="Times,serif" font-size="14.00">Dato</text>
</g>
<!-- n5&#45;&gt;n6 -->
<g id="edge6" class="edge">
<title>n5&#45;&gt;n6</title>
<path fill="none" stroke="black" d="M176.84,-144.76C166.86,-135.33 154.16,-123.32 143.3,-113.04"/>
<polygon fill="black" stroke="black" points="145.83,-110.62 136.16,-106.29 141.02,-115.7 145.83,-110.62"/>
</g>
<!-- n8 -->
<g id="node9" class="node">
<title>n8</title>
<ellipse fill="none" stroke="black" cx="194" cy="-90" rx="27" ry="18"/>
<text text-anchor="middle" x="194" y="-84.95" font-family="Times,serif" font-size="14.00">==</text>
</g>
<!-- n5&#45;&gt;n8 -->
<g id="edge8" class="edge">
<title>n5&#45;&gt;n8</title>
<path fill="none" stroke="black" d="M194,-143.7C194,-136.41 194,-127.73 194,-119.54"/>
<polygon fill="black" stroke="black" points="197.5,-119.62 194,-109.62 190.5,-119.62 197.5,-119.62"/>
</g>
<!-- n9 -->
<g id="node10" class="node">
<title>n9</title>
<ellipse fill="none" stroke="black" cx="268" cy="-90" rx="28.83" ry="18"/>
<text text-anchor="middle" x="268" y="-84.95" font-family="Times,serif" font-size="14.00">Dato</text>
</g>
<!-- n5&#45;&gt;n9 -->
<g id="edge9" class="edge">
<title>n5&#45;&gt;n9</title>
<path fill="none" stroke="black" d="M211.16,-144.76C221.14,-135.33 233.84,-123.32 244.7,-113.04"/>
<polygon fill="black" stroke="black" points="246.98,-115.7 251.84,-106.29 242.17,-110.62 246.98,-115.7"/>
</g>
<!-- n7 -->
<g id="node8" class="node">
<title>n7</title>
<ellipse fill="none" stroke="black" cx="120" cy="-18" rx="27" ry="18"/>
<text text-anchor="middle" x="120" y="-12.95" font-family="Times,serif" font-size="14.00">1</text>
</g>
<!-- n6&#45;&gt;n7 -->
<g id="edge7" class="edge">
<title>n6&#45;&gt;n7</title>
<path fill="none" stroke="black" d="M120,-71.7C120,-64.41 120,-55.73 120,-47.54"/>
<polygon fill="black" stroke="black" points="123.5,-47.62 120,-37.62 116.5,-47.62 123.5,-47.62"/>
</g>
<!-- n10 -->
<g id="node11" class="node">
<title>n10</title>
<ellipse fill="none" stroke="black" cx="268" cy="-18" rx="27" ry="18"/>
<text text-anchor="middle" x="268" y="-12.95" font-family="Times,serif" font-size="14.00">2</text>
</g>
<!-- n9&#45;&gt;n10 -->
<g id="edge10" class="edge">
<title>n9&#45;&gt;n10</title>
<path fill="none" stroke="black" d="M268,-71.7C268,-64.41 268,-55.73 268,-47.54"/>
<polygon fill="black" stroke="black" points="271.5,-47.62 268,-37.62 264.5,-47.62 271.5,-47.62"/>
</g>
<!-- n16 -->
<g id="node17" class="node">
<title>n16</title>
<ellipse fill="none" stroke="black" cx="450" cy="-90" rx="35.49" ry="18"/>
<text text-anchor="middle" x="450" y="-84.95" font-family="Times,serif" font-size="14.00">println</text>
</g>
<!-- n15&#45;&gt;n16 -->
<g id="edge16" class="edge">
<title>n15&#45;&gt;n16</title>
<path fill="none" stroke="black" d="M577.53,-148.97C552.29,-137.49 514.08,-120.13 486.06,-107.39"/>
<polygon fill="black" stroke="black" points="487.8,-104.34 477.25,-103.39 484.9,-110.71 487.8,-104.34"/>
</g>
<!-- n17 -->
<g id="node18" class="node">
<title>n17</title>
<ellipse fill="none" stroke="black" cx="530" cy="-90" rx="27" ry="18"/>
<text text-anchor="middle" x="530" y="-84.95" font-family="Times,serif" font-size="14.00">(</text>
</g>
<!-- n15&#45;&gt;n17 -->
<g id="edge17" class="edge">
<title>n15&#45;&gt;n17</title>
<path fill="none" stroke="black" d="M587.58,-145.46C577.4,-135.84 564.17,-123.32 552.96,-112.72"/>
<polygon fill="black" stroke="black" points="555.64,-110.44 545.97,-106.11 550.83,-115.52 555.64,-110.44"/>
</g>
<!-- n18 -->
<g id="node19" class="node">
<title>n18</title>
<ellipse fill="none" stroke="black" cx="604" cy="-90" rx="28.83" ry="18"/>
<text text-anchor="middle" x="604" y="-84.95" font-family="Times,serif" font-size="14.00">Dato</text>
</g>
<!-- n15&#45;&gt;n18 -->
<g id="edge18" class="edge">
<title>n15&#45;&gt;n18</title>
<path fill="none" stroke="black" d="M604,-143.7C604,-136.41 604,-127.73 604,-119.54"/>
<polygon fill="black" stroke="black" points="607.5,-119.62 604,-109.62 600.5,-119.62 607.5,-119.62"/>
</g>
<!-- n20 -->
<g id="node21" class="node">
<title>n20</title>
<ellipse fill="none" stroke="black" cx="678" cy="-90" rx="27" ry="18"/>
<text text-anchor="middle" x="678" y="-84.95" font-family="Times,serif" font-size="14.00">)</text>
</g>
<!-- n15&#45;&gt;n20 -->
<g id="edge20" class="edge">
<title>n15&#45;&gt;n20</title>
<path fill="none" stroke="black" d="M620.42,-145.46C630.6,-135.84 643.83,-123.32 655.04,-112.72"/>
<polygon fill="black" stroke="black" points="657.17,-115.52 662.03,-106.11 652.36,-110.44 657.17,-115.52"/>
</g>
<!-- n21 -->
<g id="node22" class="node">
<title>n21</title>
<ellipse fill="none" stroke="black" cx="750" cy="-90" rx="27" ry="18"/>
<text text-anchor="middle" x="750" y="-84.95" font-family="Times,serif" font-size="14.00">;</text>
</g>
<!-- n15&#45;&gt;n21 -->
<g id="edge21" class="edge">
<title>n15&#45;&gt;n21</title>
<path fill="none" stroke="black" d="M629.77,-148.65C654.52,-136.78 691.96,-118.83 718.48,-106.11"/>
<polygon fill="black" stroke="black" points="719.89,-109.32 727.39,-101.84 716.86,-103.01 719.89,-109.32"/>
</g>
<!-- n19 -->
<g id="node20" class="node">
<title>n19</title>
<ellipse fill="none" stroke="black" cx="604" cy="-18" rx="36" ry="18"/>
<text text-anchor="middle" x="604" y="-12.95" font-family="Times,serif" font-size="14.00">&quot;en if&quot;</text>
</g>
<!-- n18&#45;&gt;n19 -->
<g id="edge19" class="edge">
<title>n18&#45;&gt;n19</title>
<path fill="none" stroke="black" d="M604,-71.7C604,-64.41 604,-55.73 604,-47.54"/>
<polygon fill="black" stroke="black" points="607.5,-47.62 604,-37.62 600.5,-47.62 607.5,-47.62"/>
</g>
</g>
</svg>
