<?xml version="1.0" encoding="UTF-8" standalone="no"?>
<!DOCTYPE svg PUBLIC "-//W3C//DTD SVG 1.1//EN"
 "http://www.w3.org/Graphics/SVG/1.1/DTD/svg11.dtd">
<!-- Generated by graphviz version 10.0.1 (20240210.2158)
 -->
<!-- Title: arbolAST Pages: 1 -->
<svg width="784pt" height="260pt"
 viewBox="0.00 0.00 784.00 260.00" xmlns="http://www.w3.org/2000/svg" xmlns:xlink="http://www.w3.org/1999/xlink">
<g id="graph0" class="graph" transform="scale(1 1) rotate(0) translate(4 256)">
<title>arbolAST</title>
<polygon fill="white" stroke="none" points="-4,4 -4,-256 780,-256 780,4 -4,4"/>
<!-- n0 -->
<g id="node1" class="node">
<title>n0</title>
<ellipse fill="none" stroke="black" cx="352" cy="-234" rx="39.58" ry="18"/>
<text text-anchor="middle" x="352" y="-228.95" font-family="Times,serif" font-size="14.00">INICIO</text>
</g>
<!-- n1 -->
<g id="node2" class="node">
<title>n1</title>
<ellipse fill="none" stroke="black" cx="352" cy="-162" rx="83.6" ry="18"/>
<text text-anchor="middle" x="352" y="-156.95" font-family="Times,serif" font-size="14.00">INSTRUCCIONES</text>
</g>
<!-- n0&#45;&gt;n1 -->
<g id="edge1" class="edge">
<title>n0&#45;&gt;n1</title>
<path fill="none" stroke="black" d="M352,-215.7C352,-208.41 352,-199.73 352,-191.54"/>
<polygon fill="black" stroke="black" points="355.5,-191.62 352,-181.62 348.5,-191.62 355.5,-191.62"/>
</g>
<!-- n2 -->
<g id="node3" class="node">
<title>n2</title>
<ellipse fill="none" stroke="black" cx="291" cy="-90" rx="76.94" ry="18"/>
<text text-anchor="middle" x="291" y="-84.95" font-family="Times,serif" font-size="14.00">DECLARACION</text>
</g>
<!-- n1&#45;&gt;n2 -->
<g id="edge2" class="edge">
<title>n1&#45;&gt;n2</title>
<path fill="none" stroke="black" d="M337.23,-144.05C329.97,-135.71 321.06,-125.49 313.01,-116.25"/>
<polygon fill="black" stroke="black" points="315.83,-114.17 306.62,-108.93 310.56,-118.77 315.83,-114.17"/>
</g>
<!-- n3 -->
<g id="node4" class="node">
<title>n3</title>
<ellipse fill="none" stroke="black" cx="413" cy="-90" rx="27" ry="18"/>
<text text-anchor="middle" x="413" y="-84.95" font-family="Times,serif" font-size="14.00">IF</text>
</g>
<!-- n1&#45;&gt;n3 -->
<g id="edge3" class="edge">
<title>n1&#45;&gt;n3</title>
<path fill="none" stroke="black" d="M366.77,-144.05C374.54,-135.13 384.19,-124.06 392.67,-114.33"/>
<polygon fill="black" stroke="black" points="395.1,-116.87 399.03,-107.03 389.82,-112.27 395.1,-116.87"/>
</g>
<!-- n4 -->
<g id="node5" class="node">
<title>n4</title>
<ellipse fill="none" stroke="black" cx="27" cy="-18" rx="27" ry="18"/>
<text text-anchor="middle" x="27" y="-12.95" font-family="Times,serif" font-size="14.00">if</text>
</g>
<!-- n3&#45;&gt;n4 -->
<g id="edge4" class="edge">
<title>n3&#45;&gt;n4</title>
<path fill="none" stroke="black" d="M392.51,-77.92C387.55,-75.63 382.18,-73.48 377,-72 241.91,-33.5 198.09,-74.5 63,-36 61.38,-35.54 59.74,-35.01 58.1,-34.43"/>
<polygon fill="black" stroke="black" points="59.47,-31.21 48.89,-30.66 56.82,-37.69 59.47,-31.21"/>
</g>
<!-- n5 -->
<g id="node6" class="node">
<title>n5</title>
<ellipse fill="none" stroke="black" cx="99" cy="-18" rx="27" ry="18"/>
<text text-anchor="middle" x="99" y="-12.95" font-family="Times,serif" font-size="14.00">(</text>
</g>
<!-- n3&#45;&gt;n5 -->
<g id="edge5" class="edge">
<title>n3&#45;&gt;n5</title>
<path fill="none" stroke="black" d="M392.47,-78.04C387.52,-75.75 382.16,-73.56 377,-72 272.94,-40.44 239.06,-67.56 135,-36 133.39,-35.51 131.76,-34.96 130.12,-34.37"/>
<polygon fill="black" stroke="black" points="131.5,-31.15 120.93,-30.54 128.81,-37.61 131.5,-31.15"/>
</g>
<!-- n6 -->
<g id="node7" class="node">
<title>n6</title>
<ellipse fill="none" stroke="black" cx="200" cy="-18" rx="56.47" ry="18"/>
<text text-anchor="middle" x="200" y="-12.95" font-family="Times,serif" font-size="14.00">VARIABLE</text>
</g>
<!-- n3&#45;&gt;n6 -->
<g id="edge6" class="edge">
<title>n3&#45;&gt;n6</title>
<path fill="none" stroke="black" d="M391.91,-78.39C387.07,-76.14 381.9,-73.88 377,-72 354.2,-63.26 295.92,-46.17 252.42,-33.75"/>
<polygon fill="black" stroke="black" points="253.46,-30.41 242.88,-31.04 251.54,-37.14 253.46,-30.41"/>
</g>
<!-- n7 -->
<g id="node8" class="node">
<title>n7</title>
<ellipse fill="none" stroke="black" cx="301" cy="-18" rx="27" ry="18"/>
<text text-anchor="middle" x="301" y="-12.95" font-family="Times,serif" font-size="14.00">)</text>
</g>
<!-- n3&#45;&gt;n7 -->
<g id="edge7" class="edge">
<title>n3&#45;&gt;n7</title>
<path fill="none" stroke="black" d="M393.75,-76.97C376.2,-66 350.03,-49.64 329.96,-37.1"/>
<polygon fill="black" stroke="black" points="332,-34.24 321.66,-31.91 328.29,-40.18 332,-34.24"/>
</g>
<!-- n8 -->
<g id="node9" class="node">
<title>n8</title>
<ellipse fill="none" stroke="black" cx="373" cy="-18" rx="27" ry="18"/>
<text text-anchor="middle" x="373" y="-12.95" font-family="Times,serif" font-size="14.00">{</text>
</g>
<!-- n3&#45;&gt;n8 -->
<g id="edge8" class="edge">
<title>n3&#45;&gt;n8</title>
<path fill="none" stroke="black" d="M403.72,-72.76C399.03,-64.55 393.21,-54.37 387.91,-45.09"/>
<polygon fill="black" stroke="black" points="390.98,-43.41 382.98,-36.46 384.9,-46.88 390.98,-43.41"/>
</g>
<!-- n9 -->
<g id="node10" class="node">
<title>n9</title>
<ellipse fill="none" stroke="black" cx="453" cy="-18" rx="35.49" ry="18"/>
<text text-anchor="middle" x="453" y="-12.95" font-family="Times,serif" font-size="14.00">println</text>
</g>
<!-- n3&#45;&gt;n9 -->
<g id="edge9" class="edge">
<title>n3&#45;&gt;n9</title>
<path fill="none" stroke="black" d="M422.28,-72.76C426.91,-64.67 432.62,-54.66 437.86,-45.49"/>
<polygon fill="black" stroke="black" points="440.82,-47.37 442.74,-36.95 434.74,-43.89 440.82,-47.37"/>
</g>
<!-- n10 -->
<g id="node11" class="node">
<title>n10</title>
<ellipse fill="none" stroke="black" cx="533" cy="-18" rx="27" ry="18"/>
<text text-anchor="middle" x="533" y="-12.95" font-family="Times,serif" font-size="14.00">(</text>
</g>
<!-- n3&#45;&gt;n10 -->
<g id="edge10" class="edge">
<title>n3&#45;&gt;n10</title>
<path fill="none" stroke="black" d="M432.82,-77.44C452.01,-66.24 481.36,-49.12 503.34,-36.3"/>
<polygon fill="black" stroke="black" points="504.97,-39.4 511.85,-31.34 501.45,-33.35 504.97,-39.4"/>
</g>
<!-- n11 -->
<g id="node12" class="node">
<title>n11</title>
<ellipse fill="none" stroke="black" cx="605" cy="-18" rx="27" ry="18"/>
<text text-anchor="middle" x="605" y="-12.95" font-family="Times,serif" font-size="14.00">)</text>
</g>
<!-- n3&#45;&gt;n11 -->
<g id="edge11" class="edge">
<title>n3&#45;&gt;n11</title>
<path fill="none" stroke="black" d="M437.36,-81.67C468.33,-72.13 523.26,-54.5 569,-36 570.52,-35.38 572.07,-34.74 573.63,-34.07"/>
<polygon fill="black" stroke="black" points="574.79,-37.38 582.48,-30.09 571.92,-31 574.79,-37.38"/>
</g>
<!-- n12 -->
<g id="node13" class="node">
<title>n12</title>
<ellipse fill="none" stroke="black" cx="677" cy="-18" rx="27" ry="18"/>
<text text-anchor="middle" x="677" y="-12.95" font-family="Times,serif" font-size="14.00">;</text>
</g>
<!-- n3&#45;&gt;n12 -->
<g id="edge12" class="edge">
<title>n3&#45;&gt;n12</title>
<path fill="none" stroke="black" d="M439.15,-84.79C482.07,-77.47 569.8,-60.77 641,-36 642.55,-35.46 644.12,-34.88 645.7,-34.26"/>
<polygon fill="black" stroke="black" points="646.8,-37.6 654.6,-30.43 644.03,-31.16 646.8,-37.6"/>
</g>
<!-- n13 -->
<g id="node14" class="node">
<title>n13</title>
<ellipse fill="none" stroke="black" cx="749" cy="-18" rx="27" ry="18"/>
<text text-anchor="middle" x="749" y="-12.95" font-family="Times,serif" font-size="14.00">}</text>
</g>
<!-- n3&#45;&gt;n13 -->
<g id="edge13" class="edge">
<title>n3&#45;&gt;n13</title>
<path fill="none" stroke="black" d="M439.65,-86.69C492.73,-81.58 614.97,-67.19 713,-36 714.61,-35.49 716.23,-34.92 717.86,-34.31"/>
<polygon fill="black" stroke="black" points="719.19,-37.55 727.05,-30.44 716.47,-31.1 719.19,-37.55"/>
</g>
</g>
</svg>
