<?xml version="1.0" encoding="UTF-8" standalone="no"?>
<!DOCTYPE svg PUBLIC "-//W3C//DTD SVG 1.1//EN"
 "http://www.w3.org/Graphics/SVG/1.1/DTD/svg11.dtd">
<!-- Generated by graphviz version 10.0.1 (20240210.2158)
 -->
<!-- Title: arbolAST Pages: 1 -->
<svg width="436pt" height="404pt"
 viewBox="0.00 0.00 436.49 404.00" xmlns="http://www.w3.org/2000/svg" xmlns:xlink="http://www.w3.org/1999/xlink">
<g id="graph0" class="graph" transform="scale(1 1) rotate(0) translate(4 400)">
<title>arbolAST</title>
<polygon fill="white" stroke="none" points="-4,4 -4,-400 432.49,-400 432.49,4 -4,4"/>
<!-- n0 -->
<g id="node1" class="node">
<title>n0</title>
<ellipse fill="none" stroke="black" cx="222.49" cy="-378" rx="39.58" ry="18"/>
<text text-anchor="middle" x="222.49" y="-372.95" font-family="Times,serif" font-size="14.00">INICIO</text>
</g>
<!-- n1 -->
<g id="node2" class="node">
<title>n1</title>
<ellipse fill="none" stroke="black" cx="222.49" cy="-306" rx="83.6" ry="18"/>
<text text-anchor="middle" x="222.49" y="-300.95" font-family="Times,serif" font-size="14.00">INSTRUCCIONES</text>
</g>
<!-- n0&#45;&gt;n1 -->
<g id="edge1" class="edge">
<title>n0&#45;&gt;n1</title>
<path fill="none" stroke="black" d="M222.49,-359.7C222.49,-352.41 222.49,-343.73 222.49,-335.54"/>
<polygon fill="black" stroke="black" points="225.99,-335.62 222.49,-325.62 218.99,-335.62 225.99,-335.62"/>
</g>
<!-- n2 -->
<g id="node3" class="node">
<title>n2</title>
<ellipse fill="none" stroke="black" cx="222.49" cy="-234" rx="37.53" ry="18"/>
<text text-anchor="middle" x="222.49" y="-228.95" font-family="Times,serif" font-size="14.00">PRINT</text>
</g>
<!-- n1&#45;&gt;n2 -->
<g id="edge2" class="edge">
<title>n1&#45;&gt;n2</title>
<path fill="none" stroke="black" d="M222.49,-287.7C222.49,-280.41 222.49,-271.73 222.49,-263.54"/>
<polygon fill="black" stroke="black" points="225.99,-263.62 222.49,-253.62 218.99,-263.62 225.99,-263.62"/>
</g>
<!-- n3 -->
<g id="node4" class="node">
<title>n3</title>
<ellipse fill="none" stroke="black" cx="35.49" cy="-162" rx="35.49" ry="18"/>
<text text-anchor="middle" x="35.49" y="-156.95" font-family="Times,serif" font-size="14.00">println</text>
</g>
<!-- n2&#45;&gt;n3 -->
<g id="edge3" class="edge">
<title>n2&#45;&gt;n3</title>
<path fill="none" stroke="black" d="M193.14,-222.26C164.2,-211.63 118.73,-194.85 79.49,-180 77.56,-179.27 75.59,-178.52 73.59,-177.76"/>
<polygon fill="black" stroke="black" points="74.93,-174.52 64.34,-174.21 72.42,-181.06 74.93,-174.52"/>
</g>
<!-- n4 -->
<g id="node5" class="node">
<title>n4</title>
<ellipse fill="none" stroke="black" cx="115.49" cy="-162" rx="27" ry="18"/>
<text text-anchor="middle" x="115.49" y="-156.95" font-family="Times,serif" font-size="14.00">(</text>
</g>
<!-- n2&#45;&gt;n4 -->
<g id="edge4" class="edge">
<title>n2&#45;&gt;n4</title>
<path fill="none" stroke="black" d="M200.83,-218.83C184.42,-208.1 161.72,-193.25 143.86,-181.56"/>
<polygon fill="black" stroke="black" points="145.8,-178.65 135.51,-176.1 141.96,-184.51 145.8,-178.65"/>
</g>
<!-- n5 -->
<g id="node6" class="node">
<title>n5</title>
<ellipse fill="none" stroke="black" cx="222.49" cy="-162" rx="61.59" ry="18"/>
<text text-anchor="middle" x="222.49" y="-156.95" font-family="Times,serif" font-size="14.00">EXPRESION</text>
</g>
<!-- n2&#45;&gt;n5 -->
<g id="edge5" class="edge">
<title>n2&#45;&gt;n5</title>
<path fill="none" stroke="black" d="M222.49,-215.7C222.49,-208.41 222.49,-199.73 222.49,-191.54"/>
<polygon fill="black" stroke="black" points="225.99,-191.62 222.49,-181.62 218.99,-191.62 225.99,-191.62"/>
</g>
<!-- n11 -->
<g id="node12" class="node">
<title>n11</title>
<ellipse fill="none" stroke="black" cx="329.49" cy="-162" rx="27" ry="18"/>
<text text-anchor="middle" x="329.49" y="-156.95" font-family="Times,serif" font-size="14.00">)</text>
</g>
<!-- n2&#45;&gt;n11 -->
<g id="edge11" class="edge">
<title>n2&#45;&gt;n11</title>
<path fill="none" stroke="black" d="M244.14,-218.83C260.55,-208.1 283.25,-193.25 301.11,-181.56"/>
<polygon fill="black" stroke="black" points="303.01,-184.51 309.46,-176.1 299.17,-178.65 303.01,-184.51"/>
</g>
<!-- n12 -->
<g id="node13" class="node">
<title>n12</title>
<ellipse fill="none" stroke="black" cx="401.49" cy="-162" rx="27" ry="18"/>
<text text-anchor="middle" x="401.49" y="-156.95" font-family="Times,serif" font-size="14.00">;</text>
</g>
<!-- n2&#45;&gt;n12 -->
<g id="edge12" class="edge">
<title>n2&#45;&gt;n12</title>
<path fill="none" stroke="black" d="M252.36,-222.77C281.49,-212.6 326.92,-196.22 365.49,-180 367,-179.36 368.54,-178.7 370.09,-178.02"/>
<polygon fill="black" stroke="black" points="371.27,-181.33 378.92,-174 368.37,-174.96 371.27,-181.33"/>
</g>
<!-- n6 -->
<g id="node7" class="node">
<title>n6</title>
<ellipse fill="none" stroke="black" cx="148.49" cy="-90" rx="28.83" ry="18"/>
<text text-anchor="middle" x="148.49" y="-84.95" font-family="Times,serif" font-size="14.00">Dato</text>
</g>
<!-- n5&#45;&gt;n6 -->
<g id="edge6" class="edge">
<title>n5&#45;&gt;n6</title>
<path fill="none" stroke="black" d="M204.95,-144.41C195.1,-135.1 182.68,-123.35 172,-113.24"/>
<polygon fill="black" stroke="black" points="174.66,-110.94 164.99,-106.61 169.85,-116.03 174.66,-110.94"/>
</g>
<!-- n8 -->
<g id="node9" class="node">
<title>n8</title>
<ellipse fill="none" stroke="black" cx="222.49" cy="-90" rx="27" ry="18"/>
<text text-anchor="middle" x="222.49" y="-84.95" font-family="Times,serif" font-size="14.00">*</text>
</g>
<!-- n5&#45;&gt;n8 -->
<g id="edge8" class="edge">
<title>n5&#45;&gt;n8</title>
<path fill="none" stroke="black" d="M222.49,-143.7C222.49,-136.41 222.49,-127.73 222.49,-119.54"/>
<polygon fill="black" stroke="black" points="225.99,-119.62 222.49,-109.62 218.99,-119.62 225.99,-119.62"/>
</g>
<!-- n9 -->
<g id="node10" class="node">
<title>n9</title>
<ellipse fill="none" stroke="black" cx="296.49" cy="-90" rx="28.83" ry="18"/>
<text text-anchor="middle" x="296.49" y="-84.95" font-family="Times,serif" font-size="14.00">Dato</text>
</g>
<!-- n5&#45;&gt;n9 -->
<g id="edge9" class="edge">
<title>n5&#45;&gt;n9</title>
<path fill="none" stroke="black" d="M240.02,-144.41C249.87,-135.1 262.29,-123.35 272.97,-113.24"/>
<polygon fill="black" stroke="black" points="275.12,-116.03 279.98,-106.61 270.31,-110.94 275.12,-116.03"/>
</g>
<!-- n7 -->
<g id="node8" class="node">
<title>n7</title>
<ellipse fill="none" stroke="black" cx="148.49" cy="-18" rx="32.41" ry="18"/>
<text text-anchor="middle" x="148.49" y="-12.95" font-family="Times,serif" font-size="14.00">&quot;jaja&quot;</text>
</g>
<!-- n6&#45;&gt;n7 -->
<g id="edge7" class="edge">
<title>n6&#45;&gt;n7</title>
<path fill="none" stroke="black" d="M148.49,-71.7C148.49,-64.41 148.49,-55.73 148.49,-47.54"/>
<polygon fill="black" stroke="black" points="151.99,-47.62 148.49,-37.62 144.99,-47.62 151.99,-47.62"/>
</g>
<!-- n10 -->
<g id="node11" class="node">
<title>n10</title>
<ellipse fill="none" stroke="black" cx="296.49" cy="-18" rx="27" ry="18"/>
<text text-anchor="middle" x="296.49" y="-12.95" font-family="Times,serif" font-size="14.00">2.2</text>
</g>
<!-- n9&#45;&gt;n10 -->
<g id="edge10" class="edge">
<title>n9&#45;&gt;n10</title>
<path fill="none" stroke="black" d="M296.49,-71.7C296.49,-64.41 296.49,-55.73 296.49,-47.54"/>
<polygon fill="black" stroke="black" points="299.99,-47.62 296.49,-37.62 292.99,-47.62 299.99,-47.62"/>
</g>
</g>
</svg>
