<?xml version="1.0" encoding="UTF-8" standalone="no"?>
<!DOCTYPE svg PUBLIC "-//W3C//DTD SVG 1.1//EN"
 "http://www.w3.org/Graphics/SVG/1.1/DTD/svg11.dtd">
<!-- Generated by graphviz version 10.0.1 (20240210.2158)
 -->
<!-- Title: arbolAST Pages: 1 -->
<svg width="772pt" height="404pt"
 viewBox="0.00 0.00 772.00 404.00" xmlns="http://www.w3.org/2000/svg" xmlns:xlink="http://www.w3.org/1999/xlink">
<g id="graph0" class="graph" transform="scale(1 1) rotate(0) translate(4 400)">
<title>arbolAST</title>
<polygon fill="white" stroke="none" points="-4,4 -4,-400 768,-400 768,4 -4,4"/>
<!-- n0 -->
<g id="node1" class="node">
<title>n0</title>
<ellipse fill="none" stroke="black" cx="401" cy="-378" rx="39.58" ry="18"/>
<text text-anchor="middle" x="401" y="-372.95" font-family="Times,serif" font-size="14.00">INICIO</text>
</g>
<!-- n1 -->
<g id="node2" class="node">
<title>n1</title>
<ellipse fill="none" stroke="black" cx="401" cy="-306" rx="83.6" ry="18"/>
<text text-anchor="middle" x="401" y="-300.95" font-family="Times,serif" font-size="14.00">INSTRUCCIONES</text>
</g>
<!-- n0&#45;&gt;n1 -->
<g id="edge1" class="edge">
<title>n0&#45;&gt;n1</title>
<path fill="none" stroke="black" d="M401,-359.7C401,-352.41 401,-343.73 401,-335.54"/>
<polygon fill="black" stroke="black" points="404.5,-335.62 401,-325.62 397.5,-335.62 404.5,-335.62"/>
</g>
<!-- n2 -->
<g id="node3" class="node">
<title>n2</title>
<ellipse fill="none" stroke="black" cx="401" cy="-234" rx="27" ry="18"/>
<text text-anchor="middle" x="401" y="-228.95" font-family="Times,serif" font-size="14.00">IF</text>
</g>
<!-- n1&#45;&gt;n2 -->
<g id="edge2" class="edge">
<title>n1&#45;&gt;n2</title>
<path fill="none" stroke="black" d="M401,-287.7C401,-280.41 401,-271.73 401,-263.54"/>
<polygon fill="black" stroke="black" points="404.5,-263.62 401,-253.62 397.5,-263.62 404.5,-263.62"/>
</g>
<!-- n3 -->
<g id="node4" class="node">
<title>n3</title>
<ellipse fill="none" stroke="black" cx="27" cy="-162" rx="27" ry="18"/>
<text text-anchor="middle" x="27" y="-156.95" font-family="Times,serif" font-size="14.00">if</text>
</g>
<!-- n2&#45;&gt;n3 -->
<g id="edge3" class="edge">
<title>n2&#45;&gt;n3</title>
<path fill="none" stroke="black" d="M374.12,-231.39C316.13,-227.37 175.41,-214.57 63,-180 61.39,-179.5 59.76,-178.95 58.13,-178.35"/>
<polygon fill="black" stroke="black" points="59.51,-175.13 48.93,-174.51 56.81,-181.59 59.51,-175.13"/>
</g>
<!-- n4 -->
<g id="node5" class="node">
<title>n4</title>
<ellipse fill="none" stroke="black" cx="99" cy="-162" rx="27" ry="18"/>
<text text-anchor="middle" x="99" y="-156.95" font-family="Times,serif" font-size="14.00">(</text>
</g>
<!-- n2&#45;&gt;n4 -->
<g id="edge4" class="edge">
<title>n2&#45;&gt;n4</title>
<path fill="none" stroke="black" d="M374.4,-229.89C325.88,-223.74 220.18,-208.13 135,-180 133.44,-179.49 131.86,-178.92 130.28,-178.32"/>
<polygon fill="black" stroke="black" points="131.93,-175.22 121.36,-174.54 129.21,-181.66 131.93,-175.22"/>
</g>
<!-- n5 -->
<g id="node6" class="node">
<title>n5</title>
<ellipse fill="none" stroke="black" cx="194" cy="-162" rx="50.33" ry="18"/>
<text text-anchor="middle" x="194" y="-156.95" font-family="Times,serif" font-size="14.00">Relacional</text>
</g>
<!-- n2&#45;&gt;n5 -->
<g id="edge5" class="edge">
<title>n2&#45;&gt;n5</title>
<path fill="none" stroke="black" d="M377.25,-224.97C344.01,-213.73 282.92,-193.07 240.46,-178.71"/>
<polygon fill="black" stroke="black" points="241.58,-175.4 230.99,-175.51 239.34,-182.03 241.58,-175.4"/>
</g>
<!-- n11 -->
<g id="node12" class="node">
<title>n11</title>
<ellipse fill="none" stroke="black" cx="289" cy="-162" rx="27" ry="18"/>
<text text-anchor="middle" x="289" y="-156.95" font-family="Times,serif" font-size="14.00">)</text>
</g>
<!-- n2&#45;&gt;n11 -->
<g id="edge11" class="edge">
<title>n2&#45;&gt;n11</title>
<path fill="none" stroke="black" d="M381.75,-220.97C364.2,-210 338.03,-193.64 317.96,-181.1"/>
<polygon fill="black" stroke="black" points="320,-178.24 309.66,-175.91 316.29,-184.18 320,-178.24"/>
</g>
<!-- n12 -->
<g id="node13" class="node">
<title>n12</title>
<ellipse fill="none" stroke="black" cx="361" cy="-162" rx="27" ry="18"/>
<text text-anchor="middle" x="361" y="-156.95" font-family="Times,serif" font-size="14.00">{</text>
</g>
<!-- n2&#45;&gt;n12 -->
<g id="edge12" class="edge">
<title>n2&#45;&gt;n12</title>
<path fill="none" stroke="black" d="M391.72,-216.76C387.03,-208.55 381.21,-198.37 375.91,-189.09"/>
<polygon fill="black" stroke="black" points="378.98,-187.41 370.98,-180.46 372.9,-190.88 378.98,-187.41"/>
</g>
<!-- n13 -->
<g id="node14" class="node">
<title>n13</title>
<ellipse fill="none" stroke="black" cx="441" cy="-162" rx="35.49" ry="18"/>
<text text-anchor="middle" x="441" y="-156.95" font-family="Times,serif" font-size="14.00">println</text>
</g>
<!-- n2&#45;&gt;n13 -->
<g id="edge13" class="edge">
<title>n2&#45;&gt;n13</title>
<path fill="none" stroke="black" d="M410.28,-216.76C414.91,-208.67 420.62,-198.66 425.86,-189.49"/>
<polygon fill="black" stroke="black" points="428.82,-191.37 430.74,-180.95 422.74,-187.89 428.82,-191.37"/>
</g>
<!-- n14 -->
<g id="node15" class="node">
<title>n14</title>
<ellipse fill="none" stroke="black" cx="521" cy="-162" rx="27" ry="18"/>
<text text-anchor="middle" x="521" y="-156.95" font-family="Times,serif" font-size="14.00">(</text>
</g>
<!-- n2&#45;&gt;n14 -->
<g id="edge14" class="edge">
<title>n2&#45;&gt;n14</title>
<path fill="none" stroke="black" d="M420.82,-221.44C440.01,-210.24 469.36,-193.12 491.34,-180.3"/>
<polygon fill="black" stroke="black" points="492.97,-183.4 499.85,-175.34 489.45,-177.35 492.97,-183.4"/>
</g>
<!-- n15 -->
<g id="node16" class="node">
<title>n15</title>
<ellipse fill="none" stroke="black" cx="593" cy="-162" rx="27" ry="18"/>
<text text-anchor="middle" x="593" y="-156.95" font-family="Times,serif" font-size="14.00">)</text>
</g>
<!-- n2&#45;&gt;n15 -->
<g id="edge15" class="edge">
<title>n2&#45;&gt;n15</title>
<path fill="none" stroke="black" d="M425.36,-225.67C456.33,-216.13 511.26,-198.5 557,-180 558.52,-179.38 560.07,-178.74 561.63,-178.07"/>
<polygon fill="black" stroke="black" points="562.79,-181.38 570.48,-174.09 559.92,-175 562.79,-181.38"/>
</g>
<!-- n16 -->
<g id="node17" class="node">
<title>n16</title>
<ellipse fill="none" stroke="black" cx="665" cy="-162" rx="27" ry="18"/>
<text text-anchor="middle" x="665" y="-156.95" font-family="Times,serif" font-size="14.00">;</text>
</g>
<!-- n2&#45;&gt;n16 -->
<g id="edge16" class="edge">
<title>n2&#45;&gt;n16</title>
<path fill="none" stroke="black" d="M427.15,-228.79C470.07,-221.47 557.8,-204.77 629,-180 630.55,-179.46 632.12,-178.88 633.7,-178.26"/>
<polygon fill="black" stroke="black" points="634.8,-181.6 642.6,-174.43 632.03,-175.16 634.8,-181.6"/>
</g>
<!-- n17 -->
<g id="node18" class="node">
<title>n17</title>
<ellipse fill="none" stroke="black" cx="737" cy="-162" rx="27" ry="18"/>
<text text-anchor="middle" x="737" y="-156.95" font-family="Times,serif" font-size="14.00">}</text>
</g>
<!-- n2&#45;&gt;n17 -->
<g id="edge17" class="edge">
<title>n2&#45;&gt;n17</title>
<path fill="none" stroke="black" d="M427.65,-230.69C480.73,-225.58 602.97,-211.19 701,-180 702.61,-179.49 704.23,-178.92 705.86,-178.31"/>
<polygon fill="black" stroke="black" points="707.19,-181.55 715.05,-174.44 704.47,-175.1 707.19,-181.55"/>
</g>
<!-- n6 -->
<g id="node7" class="node">
<title>n6</title>
<ellipse fill="none" stroke="black" cx="120" cy="-90" rx="28.83" ry="18"/>
<text text-anchor="middle" x="120" y="-84.95" font-family="Times,serif" font-size="14.00">Dato</text>
</g>
<!-- n5&#45;&gt;n6 -->
<g id="edge6" class="edge">
<title>n5&#45;&gt;n6</title>
<path fill="none" stroke="black" d="M176.84,-144.76C166.86,-135.33 154.16,-123.32 143.3,-113.04"/>
<polygon fill="black" stroke="black" points="145.83,-110.62 136.16,-106.29 141.02,-115.7 145.83,-110.62"/>
</g>
<!-- n8 -->
<g id="node9" class="node">
<title>n8</title>
<ellipse fill="none" stroke="black" cx="194" cy="-90" rx="27" ry="18"/>
<text text-anchor="middle" x="194" y="-84.95" font-family="Times,serif" font-size="14.00">&gt;</text>
</g>
<!-- n5&#45;&gt;n8 -->
<g id="edge8" class="edge">
<title>n5&#45;&gt;n8</title>
<path fill="none" stroke="black" d="M194,-143.7C194,-136.41 194,-127.73 194,-119.54"/>
<polygon fill="black" stroke="black" points="197.5,-119.62 194,-109.62 190.5,-119.62 197.5,-119.62"/>
</g>
<!-- n9 -->
<g id="node10" class="node">
<title>n9</title>
<ellipse fill="none" stroke="black" cx="268" cy="-90" rx="28.83" ry="18"/>
<text text-anchor="middle" x="268" y="-84.95" font-family="Times,serif" font-size="14.00">Dato</text>
</g>
<!-- n5&#45;&gt;n9 -->
<g id="edge9" class="edge">
<title>n5&#45;&gt;n9</title>
<path fill="none" stroke="black" d="M211.16,-144.76C221.14,-135.33 233.84,-123.32 244.7,-113.04"/>
<polygon fill="black" stroke="black" points="246.98,-115.7 251.84,-106.29 242.17,-110.62 246.98,-115.7"/>
</g>
<!-- n7 -->
<g id="node8" class="node">
<title>n7</title>
<ellipse fill="none" stroke="black" cx="120" cy="-18" rx="27" ry="18"/>
<text text-anchor="middle" x="120" y="-12.95" font-family="Times,serif" font-size="14.00">2</text>
</g>
<!-- n6&#45;&gt;n7 -->
<g id="edge7" class="edge">
<title>n6&#45;&gt;n7</title>
<path fill="none" stroke="black" d="M120,-71.7C120,-64.41 120,-55.73 120,-47.54"/>
<polygon fill="black" stroke="black" points="123.5,-47.62 120,-37.62 116.5,-47.62 123.5,-47.62"/>
</g>
<!-- n10 -->
<g id="node11" class="node">
<title>n10</title>
<ellipse fill="none" stroke="black" cx="268" cy="-18" rx="27" ry="18"/>
<text text-anchor="middle" x="268" y="-12.95" font-family="Times,serif" font-size="14.00">1</text>
</g>
<!-- n9&#45;&gt;n10 -->
<g id="edge10" class="edge">
<title>n9&#45;&gt;n10</title>
<path fill="none" stroke="black" d="M268,-71.7C268,-64.41 268,-55.73 268,-47.54"/>
<polygon fill="black" stroke="black" points="271.5,-47.62 268,-37.62 264.5,-47.62 271.5,-47.62"/>
</g>
</g>
</svg>
