<?xml version="1.0" encoding="UTF-8" standalone="no"?>
<!DOCTYPE svg PUBLIC "-//W3C//DTD SVG 1.1//EN"
 "http://www.w3.org/Graphics/SVG/1.1/DTD/svg11.dtd">
<!-- Generated by graphviz version 10.0.1 (20240210.2158)
 -->
<!-- Title: arbolAST Pages: 1 -->
<svg width="481pt" height="476pt"
 viewBox="0.00 0.00 480.83 476.00" xmlns="http://www.w3.org/2000/svg" xmlns:xlink="http://www.w3.org/1999/xlink">
<g id="graph0" class="graph" transform="scale(1 1) rotate(0) translate(4 472)">
<title>arbolAST</title>
<polygon fill="white" stroke="none" points="-4,4 -4,-472 476.83,-472 476.83,4 -4,4"/>
<!-- n0 -->
<g id="node1" class="node">
<title>n0</title>
<ellipse fill="none" stroke="black" cx="271.83" cy="-450" rx="39.58" ry="18"/>
<text text-anchor="middle" x="271.83" y="-444.95" font-family="Times,serif" font-size="14.00">INICIO</text>
</g>
<!-- n1 -->
<g id="node2" class="node">
<title>n1</title>
<ellipse fill="none" stroke="black" cx="271.83" cy="-378" rx="83.6" ry="18"/>
<text text-anchor="middle" x="271.83" y="-372.95" font-family="Times,serif" font-size="14.00">INSTRUCCIONES</text>
</g>
<!-- n0&#45;&gt;n1 -->
<g id="edge1" class="edge">
<title>n0&#45;&gt;n1</title>
<path fill="none" stroke="black" d="M271.83,-431.7C271.83,-424.41 271.83,-415.73 271.83,-407.54"/>
<polygon fill="black" stroke="black" points="275.33,-407.62 271.83,-397.62 268.33,-407.62 275.33,-407.62"/>
</g>
<!-- n2 -->
<g id="node3" class="node">
<title>n2</title>
<ellipse fill="none" stroke="black" cx="271.83" cy="-306" rx="37.53" ry="18"/>
<text text-anchor="middle" x="271.83" y="-300.95" font-family="Times,serif" font-size="14.00">PRINT</text>
</g>
<!-- n1&#45;&gt;n2 -->
<g id="edge2" class="edge">
<title>n1&#45;&gt;n2</title>
<path fill="none" stroke="black" d="M271.83,-359.7C271.83,-352.41 271.83,-343.73 271.83,-335.54"/>
<polygon fill="black" stroke="black" points="275.33,-335.62 271.83,-325.62 268.33,-335.62 275.33,-335.62"/>
</g>
<!-- n3 -->
<g id="node4" class="node">
<title>n3</title>
<ellipse fill="none" stroke="black" cx="89.83" cy="-234" rx="35.49" ry="18"/>
<text text-anchor="middle" x="89.83" y="-228.95" font-family="Times,serif" font-size="14.00">println</text>
</g>
<!-- n2&#45;&gt;n3 -->
<g id="edge3" class="edge">
<title>n2&#45;&gt;n3</title>
<path fill="none" stroke="black" d="M243.02,-293.95C215.09,-283.24 171.55,-266.53 133.83,-252 131.91,-251.26 129.94,-250.5 127.95,-249.73"/>
<polygon fill="black" stroke="black" points="129.29,-246.5 118.7,-246.16 126.77,-253.03 129.29,-246.5"/>
</g>
<!-- n4 -->
<g id="node5" class="node">
<title>n4</title>
<ellipse fill="none" stroke="black" cx="169.83" cy="-234" rx="27" ry="18"/>
<text text-anchor="middle" x="169.83" y="-228.95" font-family="Times,serif" font-size="14.00">(</text>
</g>
<!-- n2&#45;&gt;n4 -->
<g id="edge4" class="edge">
<title>n2&#45;&gt;n4</title>
<path fill="none" stroke="black" d="M251.19,-290.83C235.72,-280.21 214.38,-265.57 197.44,-253.95"/>
<polygon fill="black" stroke="black" points="199.52,-251.13 189.3,-248.36 195.56,-256.9 199.52,-251.13"/>
</g>
<!-- n5 -->
<g id="node6" class="node">
<title>n5</title>
<ellipse fill="none" stroke="black" cx="271.83" cy="-234" rx="57.49" ry="18"/>
<text text-anchor="middle" x="271.83" y="-228.95" font-family="Times,serif" font-size="14.00">TERNARIO</text>
</g>
<!-- n2&#45;&gt;n5 -->
<g id="edge5" class="edge">
<title>n2&#45;&gt;n5</title>
<path fill="none" stroke="black" d="M271.83,-287.7C271.83,-280.41 271.83,-271.73 271.83,-263.54"/>
<polygon fill="black" stroke="black" points="275.33,-263.62 271.83,-253.62 268.33,-263.62 275.33,-263.62"/>
</g>
<!-- n18 -->
<g id="node19" class="node">
<title>n18</title>
<ellipse fill="none" stroke="black" cx="373.83" cy="-234" rx="27" ry="18"/>
<text text-anchor="middle" x="373.83" y="-228.95" font-family="Times,serif" font-size="14.00">)</text>
</g>
<!-- n2&#45;&gt;n18 -->
<g id="edge18" class="edge">
<title>n2&#45;&gt;n18</title>
<path fill="none" stroke="black" d="M292.47,-290.83C307.95,-280.21 329.28,-265.57 346.23,-253.95"/>
<polygon fill="black" stroke="black" points="348.1,-256.9 354.37,-248.36 344.14,-251.13 348.1,-256.9"/>
</g>
<!-- n19 -->
<g id="node20" class="node">
<title>n19</title>
<ellipse fill="none" stroke="black" cx="445.83" cy="-234" rx="27" ry="18"/>
<text text-anchor="middle" x="445.83" y="-228.95" font-family="Times,serif" font-size="14.00">;</text>
</g>
<!-- n2&#45;&gt;n19 -->
<g id="edge19" class="edge">
<title>n2&#45;&gt;n19</title>
<path fill="none" stroke="black" d="M301.16,-294.46C329.27,-284.18 372.78,-267.84 409.83,-252 411.34,-251.35 412.88,-250.68 414.43,-250"/>
<polygon fill="black" stroke="black" points="415.61,-253.3 423.25,-245.96 412.7,-246.94 415.61,-253.3"/>
</g>
<!-- n6 -->
<g id="node7" class="node">
<title>n6</title>
<ellipse fill="none" stroke="black" cx="102.83" cy="-162" rx="50.33" ry="18"/>
<text text-anchor="middle" x="102.83" y="-156.95" font-family="Times,serif" font-size="14.00">Relacional</text>
</g>
<!-- n5&#45;&gt;n6 -->
<g id="edge6" class="edge">
<title>n5&#45;&gt;n6</title>
<path fill="none" stroke="black" d="M238.04,-219C211.39,-207.96 174.06,-192.5 145.38,-180.62"/>
<polygon fill="black" stroke="black" points="146.83,-177.43 136.25,-176.84 144.15,-183.9 146.83,-177.43"/>
</g>
<!-- n12 -->
<g id="node13" class="node">
<title>n12</title>
<ellipse fill="none" stroke="black" cx="197.83" cy="-162" rx="27" ry="18"/>
<text text-anchor="middle" x="197.83" y="-156.95" font-family="Times,serif" font-size="14.00">?</text>
</g>
<!-- n5&#45;&gt;n12 -->
<g id="edge12" class="edge">
<title>n5&#45;&gt;n12</title>
<path fill="none" stroke="black" d="M254.29,-216.41C244.31,-206.97 231.69,-195.03 220.91,-184.83"/>
<polygon fill="black" stroke="black" points="223.52,-182.48 213.85,-178.15 218.7,-187.56 223.52,-182.48"/>
</g>
<!-- n13 -->
<g id="node14" class="node">
<title>n13</title>
<ellipse fill="none" stroke="black" cx="271.83" cy="-162" rx="28.83" ry="18"/>
<text text-anchor="middle" x="271.83" y="-156.95" font-family="Times,serif" font-size="14.00">Dato</text>
</g>
<!-- n5&#45;&gt;n13 -->
<g id="edge13" class="edge">
<title>n5&#45;&gt;n13</title>
<path fill="none" stroke="black" d="M271.83,-215.7C271.83,-208.41 271.83,-199.73 271.83,-191.54"/>
<polygon fill="black" stroke="black" points="275.33,-191.62 271.83,-181.62 268.33,-191.62 275.33,-191.62"/>
</g>
<!-- n15 -->
<g id="node16" class="node">
<title>n15</title>
<ellipse fill="none" stroke="black" cx="345.83" cy="-162" rx="27" ry="18"/>
<text text-anchor="middle" x="345.83" y="-156.95" font-family="Times,serif" font-size="14.00">:</text>
</g>
<!-- n5&#45;&gt;n15 -->
<g id="edge15" class="edge">
<title>n5&#45;&gt;n15</title>
<path fill="none" stroke="black" d="M289.37,-216.41C299.35,-206.97 311.98,-195.03 322.75,-184.83"/>
<polygon fill="black" stroke="black" points="324.96,-187.56 329.82,-178.15 320.15,-182.48 324.96,-187.56"/>
</g>
<!-- n16 -->
<g id="node17" class="node">
<title>n16</title>
<ellipse fill="none" stroke="black" cx="419.83" cy="-162" rx="28.83" ry="18"/>
<text text-anchor="middle" x="419.83" y="-156.95" font-family="Times,serif" font-size="14.00">Dato</text>
</g>
<!-- n5&#45;&gt;n16 -->
<g id="edge16" class="edge">
<title>n5&#45;&gt;n16</title>
<path fill="none" stroke="black" d="M302.5,-218.5C327.24,-206.79 361.97,-190.37 387.22,-178.43"/>
<polygon fill="black" stroke="black" points="388.49,-181.7 396.03,-174.26 385.5,-175.37 388.49,-181.7"/>
</g>
<!-- n7 -->
<g id="node8" class="node">
<title>n7</title>
<ellipse fill="none" stroke="black" cx="28.83" cy="-90" rx="28.83" ry="18"/>
<text text-anchor="middle" x="28.83" y="-84.95" font-family="Times,serif" font-size="14.00">Dato</text>
</g>
<!-- n6&#45;&gt;n7 -->
<g id="edge7" class="edge">
<title>n6&#45;&gt;n7</title>
<path fill="none" stroke="black" d="M85.67,-144.76C75.7,-135.33 62.99,-123.32 52.13,-113.04"/>
<polygon fill="black" stroke="black" points="54.67,-110.62 45,-106.29 49.86,-115.7 54.67,-110.62"/>
</g>
<!-- n9 -->
<g id="node10" class="node">
<title>n9</title>
<ellipse fill="none" stroke="black" cx="102.83" cy="-90" rx="27" ry="18"/>
<text text-anchor="middle" x="102.83" y="-84.95" font-family="Times,serif" font-size="14.00">&gt;</text>
</g>
<!-- n6&#45;&gt;n9 -->
<g id="edge9" class="edge">
<title>n6&#45;&gt;n9</title>
<path fill="none" stroke="black" d="M102.83,-143.7C102.83,-136.41 102.83,-127.73 102.83,-119.54"/>
<polygon fill="black" stroke="black" points="106.33,-119.62 102.83,-109.62 99.33,-119.62 106.33,-119.62"/>
</g>
<!-- n10 -->
<g id="node11" class="node">
<title>n10</title>
<ellipse fill="none" stroke="black" cx="176.83" cy="-90" rx="28.83" ry="18"/>
<text text-anchor="middle" x="176.83" y="-84.95" font-family="Times,serif" font-size="14.00">Dato</text>
</g>
<!-- n6&#45;&gt;n10 -->
<g id="edge10" class="edge">
<title>n6&#45;&gt;n10</title>
<path fill="none" stroke="black" d="M119.99,-144.76C129.97,-135.33 142.67,-123.32 153.53,-113.04"/>
<polygon fill="black" stroke="black" points="155.81,-115.7 160.67,-106.29 151,-110.62 155.81,-115.7"/>
</g>
<!-- n8 -->
<g id="node9" class="node">
<title>n8</title>
<ellipse fill="none" stroke="black" cx="28.83" cy="-18" rx="27" ry="18"/>
<text text-anchor="middle" x="28.83" y="-12.95" font-family="Times,serif" font-size="14.00">2</text>
</g>
<!-- n7&#45;&gt;n8 -->
<g id="edge8" class="edge">
<title>n7&#45;&gt;n8</title>
<path fill="none" stroke="black" d="M28.83,-71.7C28.83,-64.41 28.83,-55.73 28.83,-47.54"/>
<polygon fill="black" stroke="black" points="32.33,-47.62 28.83,-37.62 25.33,-47.62 32.33,-47.62"/>
</g>
<!-- n11 -->
<g id="node12" class="node">
<title>n11</title>
<ellipse fill="none" stroke="black" cx="176.83" cy="-18" rx="27" ry="18"/>
<text text-anchor="middle" x="176.83" y="-12.95" font-family="Times,serif" font-size="14.00">1</text>
</g>
<!-- n10&#45;&gt;n11 -->
<g id="edge11" class="edge">
<title>n10&#45;&gt;n11</title>
<path fill="none" stroke="black" d="M176.83,-71.7C176.83,-64.41 176.83,-55.73 176.83,-47.54"/>
<polygon fill="black" stroke="black" points="180.33,-47.62 176.83,-37.62 173.33,-47.62 180.33,-47.62"/>
</g>
<!-- n14 -->
<g id="node15" class="node">
<title>n14</title>
<ellipse fill="none" stroke="black" cx="271.83" cy="-90" rx="27" ry="18"/>
<text text-anchor="middle" x="271.83" y="-84.95" font-family="Times,serif" font-size="14.00">2</text>
</g>
<!-- n13&#45;&gt;n14 -->
<g id="edge14" class="edge">
<title>n13&#45;&gt;n14</title>
<path fill="none" stroke="black" d="M271.83,-143.7C271.83,-136.41 271.83,-127.73 271.83,-119.54"/>
<polygon fill="black" stroke="black" points="275.33,-119.62 271.83,-109.62 268.33,-119.62 275.33,-119.62"/>
</g>
<!-- n17 -->
<g id="node18" class="node">
<title>n17</title>
<ellipse fill="none" stroke="black" cx="419.83" cy="-90" rx="27" ry="18"/>
<text text-anchor="middle" x="419.83" y="-84.95" font-family="Times,serif" font-size="14.00">3.3</text>
</g>
<!-- n16&#45;&gt;n17 -->
<g id="edge17" class="edge">
<title>n16&#45;&gt;n17</title>
<path fill="none" stroke="black" d="M419.83,-143.7C419.83,-136.41 419.83,-127.73 419.83,-119.54"/>
<polygon fill="black" stroke="black" points="423.33,-119.62 419.83,-109.62 416.33,-119.62 423.33,-119.62"/>
</g>
</g>
</svg>
