<?xml version="1.0" encoding="UTF-8" standalone="no"?>
<!DOCTYPE svg PUBLIC "-//W3C//DTD SVG 1.1//EN"
 "http://www.w3.org/Graphics/SVG/1.1/DTD/svg11.dtd">
<!-- Generated by graphviz version 10.0.1 (20240210.2158)
 -->
<!-- Title: arbolAST Pages: 1 -->
<svg width="996pt" height="476pt"
 viewBox="0.00 0.00 996.00 476.00" xmlns="http://www.w3.org/2000/svg" xmlns:xlink="http://www.w3.org/1999/xlink">
<g id="graph0" class="graph" transform="scale(1 1) rotate(0) translate(4 472)">
<title>arbolAST</title>
<polygon fill="white" stroke="none" points="-4,4 -4,-472 992,-472 992,4 -4,4"/>
<!-- n0 -->
<g id="node1" class="node">
<title>n0</title>
<ellipse fill="none" stroke="black" cx="515" cy="-450" rx="39.58" ry="18"/>
<text text-anchor="middle" x="515" y="-444.95" font-family="Times,serif" font-size="14.00">INICIO</text>
</g>
<!-- n1 -->
<g id="node2" class="node">
<title>n1</title>
<ellipse fill="none" stroke="black" cx="515" cy="-378" rx="83.6" ry="18"/>
<text text-anchor="middle" x="515" y="-372.95" font-family="Times,serif" font-size="14.00">INSTRUCCIONES</text>
</g>
<!-- n0&#45;&gt;n1 -->
<g id="edge1" class="edge">
<title>n0&#45;&gt;n1</title>
<path fill="none" stroke="black" d="M515,-431.7C515,-424.41 515,-415.73 515,-407.54"/>
<polygon fill="black" stroke="black" points="518.5,-407.62 515,-397.62 511.5,-407.62 518.5,-407.62"/>
</g>
<!-- n2 -->
<g id="node3" class="node">
<title>n2</title>
<ellipse fill="none" stroke="black" cx="293" cy="-306" rx="51.86" ry="18"/>
<text text-anchor="middle" x="293" y="-300.95" font-family="Times,serif" font-size="14.00">FUNCION</text>
</g>
<!-- n1&#45;&gt;n2 -->
<g id="edge2" class="edge">
<title>n1&#45;&gt;n2</title>
<path fill="none" stroke="black" d="M469.27,-362.58C431.96,-350.81 379.38,-334.24 341.37,-322.25"/>
<polygon fill="black" stroke="black" points="342.6,-318.97 332.01,-319.3 340.49,-325.65 342.6,-318.97"/>
</g>
<!-- n25 -->
<g id="node26" class="node">
<title>n25</title>
<ellipse fill="none" stroke="black" cx="774" cy="-306" rx="57.49" ry="18"/>
<text text-anchor="middle" x="774" y="-300.95" font-family="Times,serif" font-size="14.00">LLAMADA</text>
</g>
<!-- n1&#45;&gt;n25 -->
<g id="edge25" class="edge">
<title>n1&#45;&gt;n25</title>
<path fill="none" stroke="black" d="M565.55,-363.34C610.3,-351.24 675.37,-333.66 720.88,-321.36"/>
<polygon fill="black" stroke="black" points="721.51,-324.81 730.25,-318.82 719.68,-318.05 721.51,-324.81"/>
</g>
<!-- n3 -->
<g id="node4" class="node">
<title>n3</title>
<ellipse fill="none" stroke="black" cx="27" cy="-234" rx="27" ry="18"/>
<text text-anchor="middle" x="27" y="-228.95" font-family="Times,serif" font-size="14.00">int</text>
</g>
<!-- n2&#45;&gt;n3 -->
<g id="edge3" class="edge">
<title>n2&#45;&gt;n3</title>
<path fill="none" stroke="black" d="M246.8,-297.37C199.77,-288.91 125.14,-273.55 63,-252 61.45,-251.46 59.88,-250.88 58.3,-250.26"/>
<polygon fill="black" stroke="black" points="59.97,-247.17 49.4,-246.44 57.2,-253.6 59.97,-247.17"/>
</g>
<!-- n4 -->
<g id="node5" class="node">
<title>n4</title>
<ellipse fill="none" stroke="black" cx="99" cy="-234" rx="27.3" ry="18"/>
<text text-anchor="middle" x="99" y="-228.95" font-family="Times,serif" font-size="14.00">func</text>
</g>
<!-- n2&#45;&gt;n4 -->
<g id="edge4" class="edge">
<title>n2&#45;&gt;n4</title>
<path fill="none" stroke="black" d="M254.55,-293.49C222.27,-283.5 175.13,-268.14 135,-252 133.67,-251.46 132.31,-250.9 130.95,-250.32"/>
<polygon fill="black" stroke="black" points="132.46,-247.17 121.9,-246.28 129.61,-253.56 132.46,-247.17"/>
</g>
<!-- n5 -->
<g id="node6" class="node">
<title>n5</title>
<ellipse fill="none" stroke="black" cx="171" cy="-234" rx="27" ry="18"/>
<text text-anchor="middle" x="171" y="-228.95" font-family="Times,serif" font-size="14.00">{</text>
</g>
<!-- n2&#45;&gt;n5 -->
<g id="edge5" class="edge">
<title>n2&#45;&gt;n5</title>
<path fill="none" stroke="black" d="M266.83,-289.98C247.51,-278.9 221.18,-263.79 201.01,-252.22"/>
<polygon fill="black" stroke="black" points="202.83,-249.23 192.41,-247.28 199.34,-255.3 202.83,-249.23"/>
</g>
<!-- n6 -->
<g id="node7" class="node">
<title>n6</title>
<ellipse fill="none" stroke="black" cx="293" cy="-234" rx="76.94" ry="18"/>
<text text-anchor="middle" x="293" y="-228.95" font-family="Times,serif" font-size="14.00">DECLARACION</text>
</g>
<!-- n2&#45;&gt;n6 -->
<g id="edge6" class="edge">
<title>n2&#45;&gt;n6</title>
<path fill="none" stroke="black" d="M293,-287.7C293,-280.41 293,-271.73 293,-263.54"/>
<polygon fill="black" stroke="black" points="296.5,-263.62 293,-253.62 289.5,-263.62 296.5,-263.62"/>
</g>
<!-- n12 -->
<g id="node13" class="node">
<title>n12</title>
<ellipse fill="none" stroke="black" cx="455" cy="-234" rx="37.53" ry="18"/>
<text text-anchor="middle" x="455" y="-228.95" font-family="Times,serif" font-size="14.00">PRINT</text>
</g>
<!-- n2&#45;&gt;n12 -->
<g id="edge12" class="edge">
<title>n2&#45;&gt;n12</title>
<path fill="none" stroke="black" d="M324.62,-291.34C351.24,-279.84 389.36,-263.36 417.51,-251.2"/>
<polygon fill="black" stroke="black" points="418.59,-254.55 426.38,-247.37 415.81,-248.12 418.59,-254.55"/>
</g>
<!-- n24 -->
<g id="node25" class="node">
<title>n24</title>
<ellipse fill="none" stroke="black" cx="538" cy="-234" rx="27" ry="18"/>
<text text-anchor="middle" x="538" y="-228.95" font-family="Times,serif" font-size="14.00">}</text>
</g>
<!-- n2&#45;&gt;n24 -->
<g id="edge24" class="edge">
<title>n2&#45;&gt;n24</title>
<path fill="none" stroke="black" d="M337.37,-296.35C380.19,-287.4 446.51,-271.93 502,-252 503.54,-251.45 505.11,-250.85 506.69,-250.22"/>
<polygon fill="black" stroke="black" points="507.8,-253.55 515.58,-246.36 505.01,-247.13 507.8,-253.55"/>
</g>
<!-- n7 -->
<g id="node8" class="node">
<title>n7</title>
<ellipse fill="none" stroke="black" cx="75" cy="-162" rx="27" ry="18"/>
<text text-anchor="middle" x="75" y="-156.95" font-family="Times,serif" font-size="14.00">int</text>
</g>
<!-- n6&#45;&gt;n7 -->
<g id="edge7" class="edge">
<title>n6&#45;&gt;n7</title>
<path fill="none" stroke="black" d="M241.3,-220.27C204.48,-210.65 154.08,-196.33 111,-180 109.46,-179.42 107.9,-178.8 106.34,-178.15"/>
<polygon fill="black" stroke="black" points="108.03,-175.07 97.47,-174.24 105.21,-181.48 108.03,-175.07"/>
</g>
<!-- n8 -->
<g id="node9" class="node">
<title>n8</title>
<ellipse fill="none" stroke="black" cx="147" cy="-162" rx="27" ry="18"/>
<text text-anchor="middle" x="147" y="-156.95" font-family="Times,serif" font-size="14.00">c</text>
</g>
<!-- n6&#45;&gt;n8 -->
<g id="edge8" class="edge">
<title>n6&#45;&gt;n8</title>
<path fill="none" stroke="black" d="M260.23,-217.29C235.77,-205.56 202.55,-189.63 178.42,-178.06"/>
<polygon fill="black" stroke="black" points="180.26,-175.06 169.73,-173.9 177.23,-181.37 180.26,-175.06"/>
</g>
<!-- n9 -->
<g id="node10" class="node">
<title>n9</title>
<ellipse fill="none" stroke="black" cx="219" cy="-162" rx="27" ry="18"/>
<text text-anchor="middle" x="219" y="-156.95" font-family="Times,serif" font-size="14.00">=</text>
</g>
<!-- n6&#45;&gt;n9 -->
<g id="edge9" class="edge">
<title>n6&#45;&gt;n9</title>
<path fill="none" stroke="black" d="M275.09,-216.05C265.1,-206.6 252.55,-194.74 241.86,-184.62"/>
<polygon fill="black" stroke="black" points="244.53,-182.34 234.86,-178.01 239.72,-187.42 244.53,-182.34"/>
</g>
<!-- n10 -->
<g id="node11" class="node">
<title>n10</title>
<ellipse fill="none" stroke="black" cx="293" cy="-162" rx="28.83" ry="18"/>
<text text-anchor="middle" x="293" y="-156.95" font-family="Times,serif" font-size="14.00">Dato</text>
</g>
<!-- n6&#45;&gt;n10 -->
<g id="edge10" class="edge">
<title>n6&#45;&gt;n10</title>
<path fill="none" stroke="black" d="M293,-215.7C293,-208.41 293,-199.73 293,-191.54"/>
<polygon fill="black" stroke="black" points="296.5,-191.62 293,-181.62 289.5,-191.62 296.5,-191.62"/>
</g>
<!-- n11 -->
<g id="node12" class="node">
<title>n11</title>
<ellipse fill="none" stroke="black" cx="293" cy="-90" rx="27" ry="18"/>
<text text-anchor="middle" x="293" y="-84.95" font-family="Times,serif" font-size="14.00">1</text>
</g>
<!-- n10&#45;&gt;n11 -->
<g id="edge11" class="edge">
<title>n10&#45;&gt;n11</title>
<path fill="none" stroke="black" d="M293,-143.7C293,-136.41 293,-127.73 293,-119.54"/>
<polygon fill="black" stroke="black" points="296.5,-119.62 293,-109.62 289.5,-119.62 296.5,-119.62"/>
</g>
<!-- n13 -->
<g id="node14" class="node">
<title>n13</title>
<ellipse fill="none" stroke="black" cx="375" cy="-162" rx="35.49" ry="18"/>
<text text-anchor="middle" x="375" y="-156.95" font-family="Times,serif" font-size="14.00">println</text>
</g>
<!-- n12&#45;&gt;n13 -->
<g id="edge13" class="edge">
<title>n12&#45;&gt;n13</title>
<path fill="none" stroke="black" d="M437.64,-217.81C426.84,-208.36 412.76,-196.04 400.69,-185.48"/>
<polygon fill="black" stroke="black" points="403.29,-183.11 393.46,-179.16 398.69,-188.38 403.29,-183.11"/>
</g>
<!-- n14 -->
<g id="node15" class="node">
<title>n14</title>
<ellipse fill="none" stroke="black" cx="455" cy="-162" rx="27" ry="18"/>
<text text-anchor="middle" x="455" y="-156.95" font-family="Times,serif" font-size="14.00">(</text>
</g>
<!-- n12&#45;&gt;n14 -->
<g id="edge14" class="edge">
<title>n12&#45;&gt;n14</title>
<path fill="none" stroke="black" d="M455,-215.7C455,-208.41 455,-199.73 455,-191.54"/>
<polygon fill="black" stroke="black" points="458.5,-191.62 455,-181.62 451.5,-191.62 458.5,-191.62"/>
</g>
<!-- n15 -->
<g id="node16" class="node">
<title>n15</title>
<ellipse fill="none" stroke="black" cx="562" cy="-162" rx="61.59" ry="18"/>
<text text-anchor="middle" x="562" y="-156.95" font-family="Times,serif" font-size="14.00">EXPRESION</text>
</g>
<!-- n12&#45;&gt;n15 -->
<g id="edge15" class="edge">
<title>n12&#45;&gt;n15</title>
<path fill="none" stroke="black" d="M476.65,-218.83C491.46,-209.15 511.38,-196.12 528.25,-185.08"/>
<polygon fill="black" stroke="black" points="530.05,-188.09 536.5,-179.68 526.21,-182.23 530.05,-188.09"/>
</g>
<!-- n22 -->
<g id="node23" class="node">
<title>n22</title>
<ellipse fill="none" stroke="black" cx="669" cy="-162" rx="27" ry="18"/>
<text text-anchor="middle" x="669" y="-156.95" font-family="Times,serif" font-size="14.00">)</text>
</g>
<!-- n12&#45;&gt;n22 -->
<g id="edge22" class="edge">
<title>n12&#45;&gt;n22</title>
<path fill="none" stroke="black" d="M483.96,-222.12C489.9,-220 496.13,-217.87 502,-216 559.55,-197.72 576.38,-200.97 633,-180 634.54,-179.43 636.1,-178.82 637.67,-178.18"/>
<polygon fill="black" stroke="black" points="638.8,-181.51 646.55,-174.3 635.99,-175.1 638.8,-181.51"/>
</g>
<!-- n23 -->
<g id="node24" class="node">
<title>n23</title>
<ellipse fill="none" stroke="black" cx="741" cy="-162" rx="27" ry="18"/>
<text text-anchor="middle" x="741" y="-156.95" font-family="Times,serif" font-size="14.00">;</text>
</g>
<!-- n12&#45;&gt;n23 -->
<g id="edge23" class="edge">
<title>n12&#45;&gt;n23</title>
<path fill="none" stroke="black" d="M483.08,-221.96C489.25,-219.78 495.8,-217.66 502,-216 590.52,-192.33 617.69,-207.81 705,-180 706.61,-179.49 708.23,-178.92 709.86,-178.31"/>
<polygon fill="black" stroke="black" points="711.19,-181.55 719.05,-174.44 708.47,-175.1 711.19,-181.55"/>
</g>
<!-- n16 -->
<g id="node17" class="node">
<title>n16</title>
<ellipse fill="none" stroke="black" cx="455" cy="-90" rx="61.59" ry="18"/>
<text text-anchor="middle" x="455" y="-84.95" font-family="Times,serif" font-size="14.00">EXPRESION</text>
</g>
<!-- n15&#45;&gt;n16 -->
<g id="edge16" class="edge">
<title>n15&#45;&gt;n16</title>
<path fill="none" stroke="black" d="M537.72,-145.12C523.22,-135.63 504.59,-123.44 488.68,-113.03"/>
<polygon fill="black" stroke="black" points="490.73,-110.2 480.45,-107.65 486.9,-116.05 490.73,-110.2"/>
</g>
<!-- n20 -->
<g id="node21" class="node">
<title>n20</title>
<ellipse fill="none" stroke="black" cx="562" cy="-90" rx="27" ry="18"/>
<text text-anchor="middle" x="562" y="-84.95" font-family="Times,serif" font-size="14.00">+</text>
</g>
<!-- n15&#45;&gt;n20 -->
<g id="edge20" class="edge">
<title>n15&#45;&gt;n20</title>
<path fill="none" stroke="black" d="M562,-143.7C562,-136.41 562,-127.73 562,-119.54"/>
<polygon fill="black" stroke="black" points="565.5,-119.62 562,-109.62 558.5,-119.62 565.5,-119.62"/>
</g>
<!-- n21 -->
<g id="node22" class="node">
<title>n21</title>
<ellipse fill="none" stroke="black" cx="663" cy="-90" rx="56.47" ry="18"/>
<text text-anchor="middle" x="663" y="-84.95" font-family="Times,serif" font-size="14.00">VARIABLE</text>
</g>
<!-- n15&#45;&gt;n21 -->
<g id="edge21" class="edge">
<title>n15&#45;&gt;n21</title>
<path fill="none" stroke="black" d="M585.17,-144.94C598.74,-135.54 616.07,-123.52 630.94,-113.22"/>
<polygon fill="black" stroke="black" points="632.82,-116.18 639.04,-107.61 628.83,-110.43 632.82,-116.18"/>
</g>
<!-- n17 -->
<g id="node18" class="node">
<title>n17</title>
<ellipse fill="none" stroke="black" cx="354" cy="-18" rx="56.47" ry="18"/>
<text text-anchor="middle" x="354" y="-12.95" font-family="Times,serif" font-size="14.00">VARIABLE</text>
</g>
<!-- n16&#45;&gt;n17 -->
<g id="edge17" class="edge">
<title>n16&#45;&gt;n17</title>
<path fill="none" stroke="black" d="M431.83,-72.94C418.26,-63.54 400.93,-51.52 386.06,-41.22"/>
<polygon fill="black" stroke="black" points="388.17,-38.43 377.96,-35.61 384.18,-44.18 388.17,-38.43"/>
</g>
<!-- n18 -->
<g id="node19" class="node">
<title>n18</title>
<ellipse fill="none" stroke="black" cx="455" cy="-18" rx="27" ry="18"/>
<text text-anchor="middle" x="455" y="-12.95" font-family="Times,serif" font-size="14.00">+</text>
</g>
<!-- n16&#45;&gt;n18 -->
<g id="edge18" class="edge">
<title>n16&#45;&gt;n18</title>
<path fill="none" stroke="black" d="M455,-71.7C455,-64.41 455,-55.73 455,-47.54"/>
<polygon fill="black" stroke="black" points="458.5,-47.62 455,-37.62 451.5,-47.62 458.5,-47.62"/>
</g>
<!-- n19 -->
<g id="node20" class="node">
<title>n19</title>
<ellipse fill="none" stroke="black" cx="556" cy="-18" rx="56.47" ry="18"/>
<text text-anchor="middle" x="556" y="-12.95" font-family="Times,serif" font-size="14.00">VARIABLE</text>
</g>
<!-- n16&#45;&gt;n19 -->
<g id="edge19" class="edge">
<title>n16&#45;&gt;n19</title>
<path fill="none" stroke="black" d="M478.17,-72.94C491.74,-63.54 509.07,-51.52 523.94,-41.22"/>
<polygon fill="black" stroke="black" points="525.82,-44.18 532.04,-35.61 521.83,-38.43 525.82,-44.18"/>
</g>
<!-- n26 -->
<g id="node27" class="node">
<title>n26</title>
<ellipse fill="none" stroke="black" cx="665" cy="-234" rx="27.3" ry="18"/>
<text text-anchor="middle" x="665" y="-228.95" font-family="Times,serif" font-size="14.00">func</text>
</g>
<!-- n25&#45;&gt;n26 -->
<g id="edge26" class="edge">
<title>n25&#45;&gt;n26</title>
<path fill="none" stroke="black" d="M749.54,-289.29C732.96,-278.64 710.98,-264.53 693.59,-253.36"/>
<polygon fill="black" stroke="black" points="695.54,-250.45 685.23,-247.99 691.76,-256.34 695.54,-250.45"/>
</g>
<!-- n27 -->
<g id="node28" class="node">
<title>n27</title>
<ellipse fill="none" stroke="black" cx="737" cy="-234" rx="27" ry="18"/>
<text text-anchor="middle" x="737" y="-228.95" font-family="Times,serif" font-size="14.00">(</text>
</g>
<!-- n25&#45;&gt;n27 -->
<g id="edge27" class="edge">
<title>n25&#45;&gt;n27</title>
<path fill="none" stroke="black" d="M765.04,-288.05C760.8,-280.03 755.64,-270.26 750.9,-261.3"/>
<polygon fill="black" stroke="black" points="754.09,-259.85 746.33,-252.65 747.91,-263.12 754.09,-259.85"/>
</g>
<!-- n28 -->
<g id="node29" class="node">
<title>n28</title>
<ellipse fill="none" stroke="black" cx="811" cy="-234" rx="28.83" ry="18"/>
<text text-anchor="middle" x="811" y="-228.95" font-family="Times,serif" font-size="14.00">Dato</text>
</g>
<!-- n25&#45;&gt;n28 -->
<g id="edge28" class="edge">
<title>n25&#45;&gt;n28</title>
<path fill="none" stroke="black" d="M782.96,-288.05C787.2,-280.03 792.36,-270.26 797.1,-261.3"/>
<polygon fill="black" stroke="black" points="800.09,-263.12 801.67,-252.65 793.91,-259.85 800.09,-263.12"/>
</g>
<!-- n30 -->
<g id="node31" class="node">
<title>n30</title>
<ellipse fill="none" stroke="black" cx="887" cy="-234" rx="28.83" ry="18"/>
<text text-anchor="middle" x="887" y="-228.95" font-family="Times,serif" font-size="14.00">Dato</text>
</g>
<!-- n25&#45;&gt;n30 -->
<g id="edge30" class="edge">
<title>n25&#45;&gt;n30</title>
<path fill="none" stroke="black" d="M799.08,-289.46C816.23,-278.84 839.03,-264.71 857.12,-253.51"/>
<polygon fill="black" stroke="black" points="858.94,-256.5 865.6,-248.26 855.25,-250.55 858.94,-256.5"/>
</g>
<!-- n32 -->
<g id="node33" class="node">
<title>n32</title>
<ellipse fill="none" stroke="black" cx="961" cy="-234" rx="27" ry="18"/>
<text text-anchor="middle" x="961" y="-228.95" font-family="Times,serif" font-size="14.00">)</text>
</g>
<!-- n25&#45;&gt;n32 -->
<g id="edge32" class="edge">
<title>n25&#45;&gt;n32</title>
<path fill="none" stroke="black" d="M813.21,-292.48C843.94,-282.37 887.6,-267.35 925,-252 926.52,-251.38 928.07,-250.72 929.62,-250.05"/>
<polygon fill="black" stroke="black" points="930.79,-253.36 938.46,-246.06 927.91,-246.98 930.79,-253.36"/>
</g>
<!-- n29 -->
<g id="node30" class="node">
<title>n29</title>
<ellipse fill="none" stroke="black" cx="813" cy="-162" rx="27" ry="18"/>
<text text-anchor="middle" x="813" y="-156.95" font-family="Times,serif" font-size="14.00">2</text>
</g>
<!-- n28&#45;&gt;n29 -->
<g id="edge29" class="edge">
<title>n28&#45;&gt;n29</title>
<path fill="none" stroke="black" d="M811.49,-215.7C811.7,-208.41 811.95,-199.73 812.18,-191.54"/>
<polygon fill="black" stroke="black" points="815.68,-191.71 812.47,-181.62 808.68,-191.51 815.68,-191.71"/>
</g>
<!-- n31 -->
<g id="node32" class="node">
<title>n31</title>
<ellipse fill="none" stroke="black" cx="887" cy="-162" rx="27" ry="18"/>
<text text-anchor="middle" x="887" y="-156.95" font-family="Times,serif" font-size="14.00">2</text>
</g>
<!-- n30&#45;&gt;n31 -->
<g id="edge31" class="edge">
<title>n30&#45;&gt;n31</title>
<path fill="none" stroke="black" d="M887,-215.7C887,-208.41 887,-199.73 887,-191.54"/>
<polygon fill="black" stroke="black" points="890.5,-191.62 887,-181.62 883.5,-191.62 890.5,-191.62"/>
</g>
</g>
</svg>
