<?xml version="1.0" encoding="UTF-8" standalone="no"?>
<!DOCTYPE svg PUBLIC "-//W3C//DTD SVG 1.1//EN"
 "http://www.w3.org/Graphics/SVG/1.1/DTD/svg11.dtd">
<!-- Generated by graphviz version 10.0.1 (20240210.2158)
 -->
<!-- Title: arbolAST Pages: 1 -->
<svg width="370pt" height="332pt"
 viewBox="0.00 0.00 370.49 332.00" xmlns="http://www.w3.org/2000/svg" xmlns:xlink="http://www.w3.org/1999/xlink">
<g id="graph0" class="graph" transform="scale(1 1) rotate(0) translate(4 328)">
<title>arbolAST</title>
<polygon fill="white" stroke="none" points="-4,4 -4,-328 366.49,-328 366.49,4 -4,4"/>
<!-- n0 -->
<g id="node1" class="node">
<title>n0</title>
<ellipse fill="none" stroke="black" cx="189.49" cy="-306" rx="39.58" ry="18"/>
<text text-anchor="middle" x="189.49" y="-300.95" font-family="Times,serif" font-size="14.00">INICIO</text>
</g>
<!-- n1 -->
<g id="node2" class="node">
<title>n1</title>
<ellipse fill="none" stroke="black" cx="189.49" cy="-234" rx="83.6" ry="18"/>
<text text-anchor="middle" x="189.49" y="-228.95" font-family="Times,serif" font-size="14.00">INSTRUCCIONES</text>
</g>
<!-- n0&#45;&gt;n1 -->
<g id="edge1" class="edge">
<title>n0&#45;&gt;n1</title>
<path fill="none" stroke="black" d="M189.49,-287.7C189.49,-280.41 189.49,-271.73 189.49,-263.54"/>
<polygon fill="black" stroke="black" points="192.99,-263.62 189.49,-253.62 185.99,-263.62 192.99,-263.62"/>
</g>
<!-- n2 -->
<g id="node3" class="node">
<title>n2</title>
<ellipse fill="none" stroke="black" cx="189.49" cy="-162" rx="37.53" ry="18"/>
<text text-anchor="middle" x="189.49" y="-156.95" font-family="Times,serif" font-size="14.00">PRINT</text>
</g>
<!-- n1&#45;&gt;n2 -->
<g id="edge2" class="edge">
<title>n1&#45;&gt;n2</title>
<path fill="none" stroke="black" d="M189.49,-215.7C189.49,-208.41 189.49,-199.73 189.49,-191.54"/>
<polygon fill="black" stroke="black" points="192.99,-191.62 189.49,-181.62 185.99,-191.62 192.99,-191.62"/>
</g>
<!-- n3 -->
<g id="node4" class="node">
<title>n3</title>
<ellipse fill="none" stroke="black" cx="35.49" cy="-90" rx="35.49" ry="18"/>
<text text-anchor="middle" x="35.49" y="-84.95" font-family="Times,serif" font-size="14.00">println</text>
</g>
<!-- n2&#45;&gt;n3 -->
<g id="edge3" class="edge">
<title>n2&#45;&gt;n3</title>
<path fill="none" stroke="black" d="M163.01,-148.97C137.77,-137.49 99.56,-120.13 71.55,-107.39"/>
<polygon fill="black" stroke="black" points="73.29,-104.34 62.74,-103.39 70.39,-110.71 73.29,-104.34"/>
</g>
<!-- n4 -->
<g id="node5" class="node">
<title>n4</title>
<ellipse fill="none" stroke="black" cx="115.49" cy="-90" rx="27" ry="18"/>
<text text-anchor="middle" x="115.49" y="-84.95" font-family="Times,serif" font-size="14.00">(</text>
</g>
<!-- n2&#45;&gt;n4 -->
<g id="edge4" class="edge">
<title>n2&#45;&gt;n4</title>
<path fill="none" stroke="black" d="M173.06,-145.46C162.88,-135.84 149.66,-123.32 138.45,-112.72"/>
<polygon fill="black" stroke="black" points="141.12,-110.44 131.45,-106.11 136.31,-115.52 141.12,-110.44"/>
</g>
<!-- n5 -->
<g id="node6" class="node">
<title>n5</title>
<ellipse fill="none" stroke="black" cx="189.49" cy="-90" rx="28.83" ry="18"/>
<text text-anchor="middle" x="189.49" y="-84.95" font-family="Times,serif" font-size="14.00">Dato</text>
</g>
<!-- n2&#45;&gt;n5 -->
<g id="edge5" class="edge">
<title>n2&#45;&gt;n5</title>
<path fill="none" stroke="black" d="M189.49,-143.7C189.49,-136.41 189.49,-127.73 189.49,-119.54"/>
<polygon fill="black" stroke="black" points="192.99,-119.62 189.49,-109.62 185.99,-119.62 192.99,-119.62"/>
</g>
<!-- n7 -->
<g id="node8" class="node">
<title>n7</title>
<ellipse fill="none" stroke="black" cx="263.49" cy="-90" rx="27" ry="18"/>
<text text-anchor="middle" x="263.49" y="-84.95" font-family="Times,serif" font-size="14.00">)</text>
</g>
<!-- n2&#45;&gt;n7 -->
<g id="edge7" class="edge">
<title>n2&#45;&gt;n7</title>
<path fill="none" stroke="black" d="M205.91,-145.46C216.09,-135.84 229.31,-123.32 240.52,-112.72"/>
<polygon fill="black" stroke="black" points="242.66,-115.52 247.52,-106.11 237.85,-110.44 242.66,-115.52"/>
</g>
<!-- n8 -->
<g id="node9" class="node">
<title>n8</title>
<ellipse fill="none" stroke="black" cx="335.49" cy="-90" rx="27" ry="18"/>
<text text-anchor="middle" x="335.49" y="-84.95" font-family="Times,serif" font-size="14.00">;</text>
</g>
<!-- n2&#45;&gt;n8 -->
<g id="edge8" class="edge">
<title>n2&#45;&gt;n8</title>
<path fill="none" stroke="black" d="M215.25,-148.65C240,-136.78 277.45,-118.83 303.96,-106.11"/>
<polygon fill="black" stroke="black" points="305.37,-109.32 312.88,-101.84 302.35,-103.01 305.37,-109.32"/>
</g>
<!-- n6 -->
<g id="node7" class="node">
<title>n6</title>
<ellipse fill="none" stroke="black" cx="189.49" cy="-18" rx="27" ry="18"/>
<text text-anchor="middle" x="189.49" y="-12.95" font-family="Times,serif" font-size="14.00">2</text>
</g>
<!-- n5&#45;&gt;n6 -->
<g id="edge6" class="edge">
<title>n5&#45;&gt;n6</title>
<path fill="none" stroke="black" d="M189.49,-71.7C189.49,-64.41 189.49,-55.73 189.49,-47.54"/>
<polygon fill="black" stroke="black" points="192.99,-47.62 189.49,-37.62 185.99,-47.62 192.99,-47.62"/>
</g>
</g>
</svg>
