<?xml version="1.0" encoding="UTF-8" standalone="no"?>
<!DOCTYPE svg PUBLIC "-//W3C//DTD SVG 1.1//EN"
 "http://www.w3.org/Graphics/SVG/1.1/DTD/svg11.dtd">
<!-- Generated by graphviz version 10.0.1 (20240210.2158)
 -->
<!-- Title: arbolAST Pages: 1 -->
<svg width="791pt" height="548pt"
 viewBox="0.00 0.00 790.90 548.00" xmlns="http://www.w3.org/2000/svg" xmlns:xlink="http://www.w3.org/1999/xlink">
<g id="graph0" class="graph" transform="scale(1 1) rotate(0) translate(4 544)">
<title>arbolAST</title>
<polygon fill="white" stroke="none" points="-4,4 -4,-544 786.9,-544 786.9,4 -4,4"/>
<!-- n0 -->
<g id="node1" class="node">
<title>n0</title>
<ellipse fill="none" stroke="black" cx="330.9" cy="-522" rx="39.58" ry="18"/>
<text text-anchor="middle" x="330.9" y="-516.95" font-family="Times,serif" font-size="14.00">INICIO</text>
</g>
<!-- n1 -->
<g id="node2" class="node">
<title>n1</title>
<ellipse fill="none" stroke="black" cx="330.9" cy="-450" rx="83.6" ry="18"/>
<text text-anchor="middle" x="330.9" y="-444.95" font-family="Times,serif" font-size="14.00">INSTRUCCIONES</text>
</g>
<!-- n0&#45;&gt;n1 -->
<g id="edge1" class="edge">
<title>n0&#45;&gt;n1</title>
<path fill="none" stroke="black" d="M330.9,-503.7C330.9,-496.41 330.9,-487.73 330.9,-479.54"/>
<polygon fill="black" stroke="black" points="334.4,-479.62 330.9,-469.62 327.4,-479.62 334.4,-479.62"/>
</g>
<!-- n2 -->
<g id="node3" class="node">
<title>n2</title>
<ellipse fill="none" stroke="black" cx="180.9" cy="-378" rx="76.94" ry="18"/>
<text text-anchor="middle" x="180.9" y="-372.95" font-family="Times,serif" font-size="14.00">DECLARACION</text>
</g>
<!-- n1&#45;&gt;n2 -->
<g id="edge2" class="edge">
<title>n1&#45;&gt;n2</title>
<path fill="none" stroke="black" d="M296.87,-433.12C275.43,-423.11 247.55,-410.1 224.5,-399.34"/>
<polygon fill="black" stroke="black" points="226.2,-396.28 215.66,-395.22 223.24,-402.62 226.2,-396.28"/>
</g>
<!-- n20 -->
<g id="node21" class="node">
<title>n20</title>
<ellipse fill="none" stroke="black" cx="531.9" cy="-378" rx="37.53" ry="18"/>
<text text-anchor="middle" x="531.9" y="-372.95" font-family="Times,serif" font-size="14.00">PRINT</text>
</g>
<!-- n1&#45;&gt;n20 -->
<g id="edge20" class="edge">
<title>n1&#45;&gt;n20</title>
<path fill="none" stroke="black" d="M373.53,-434.15C408.36,-422.02 457.27,-404.99 491.49,-393.07"/>
<polygon fill="black" stroke="black" points="492.33,-396.49 500.62,-389.89 490.02,-389.88 492.33,-396.49"/>
</g>
<!-- n3 -->
<g id="node4" class="node">
<title>n3</title>
<ellipse fill="none" stroke="black" cx="31.9" cy="-306" rx="31.9" ry="18"/>
<text text-anchor="middle" x="31.9" y="-300.95" font-family="Times,serif" font-size="14.00">string</text>
</g>
<!-- n2&#45;&gt;n3 -->
<g id="edge3" class="edge">
<title>n2&#45;&gt;n3</title>
<path fill="none" stroke="black" d="M147.83,-361.46C123.49,-350.03 90.48,-334.52 65.92,-322.98"/>
<polygon fill="black" stroke="black" points="67.53,-319.87 56.99,-318.79 64.55,-326.21 67.53,-319.87"/>
</g>
<!-- n4 -->
<g id="node5" class="node">
<title>n4</title>
<ellipse fill="none" stroke="black" cx="108.9" cy="-306" rx="27" ry="18"/>
<text text-anchor="middle" x="108.9" y="-300.95" font-family="Times,serif" font-size="14.00">var</text>
</g>
<!-- n2&#45;&gt;n4 -->
<g id="edge4" class="edge">
<title>n2&#45;&gt;n4</title>
<path fill="none" stroke="black" d="M163.47,-360.05C153.98,-350.82 142.11,-339.29 131.87,-329.33"/>
<polygon fill="black" stroke="black" points="134.43,-326.94 124.82,-322.48 129.55,-331.96 134.43,-326.94"/>
</g>
<!-- n5 -->
<g id="node6" class="node">
<title>n5</title>
<ellipse fill="none" stroke="black" cx="180.9" cy="-306" rx="27" ry="18"/>
<text text-anchor="middle" x="180.9" y="-300.95" font-family="Times,serif" font-size="14.00">=</text>
</g>
<!-- n2&#45;&gt;n5 -->
<g id="edge5" class="edge">
<title>n2&#45;&gt;n5</title>
<path fill="none" stroke="black" d="M180.9,-359.7C180.9,-352.41 180.9,-343.73 180.9,-335.54"/>
<polygon fill="black" stroke="black" points="184.4,-335.62 180.9,-325.62 177.4,-335.62 184.4,-335.62"/>
</g>
<!-- n6 -->
<g id="node7" class="node">
<title>n6</title>
<ellipse fill="none" stroke="black" cx="286.9" cy="-306" rx="61.08" ry="18"/>
<text text-anchor="middle" x="286.9" y="-300.95" font-family="Times,serif" font-size="14.00">TO_STRING</text>
</g>
<!-- n2&#45;&gt;n6 -->
<g id="edge6" class="edge">
<title>n2&#45;&gt;n6</title>
<path fill="none" stroke="black" d="M205.75,-360.59C220.05,-351.15 238.18,-339.17 253.68,-328.94"/>
<polygon fill="black" stroke="black" points="255.26,-332.09 261.67,-323.66 251.4,-326.25 255.26,-332.09"/>
</g>
<!-- n7 -->
<g id="node8" class="node">
<title>n7</title>
<ellipse fill="none" stroke="black" cx="147.9" cy="-234" rx="40.6" ry="18"/>
<text text-anchor="middle" x="147.9" y="-228.95" font-family="Times,serif" font-size="14.00">toString</text>
</g>
<!-- n6&#45;&gt;n7 -->
<g id="edge7" class="edge">
<title>n6&#45;&gt;n7</title>
<path fill="none" stroke="black" d="M257.08,-289.98C235.74,-279.23 206.88,-264.7 184.19,-253.27"/>
<polygon fill="black" stroke="black" points="185.79,-250.16 175.28,-248.79 182.64,-256.41 185.79,-250.16"/>
</g>
<!-- n8 -->
<g id="node9" class="node">
<title>n8</title>
<ellipse fill="none" stroke="black" cx="233.9" cy="-234" rx="27" ry="18"/>
<text text-anchor="middle" x="233.9" y="-228.95" font-family="Times,serif" font-size="14.00">(</text>
</g>
<!-- n6&#45;&gt;n8 -->
<g id="edge8" class="edge">
<title>n6&#45;&gt;n8</title>
<path fill="none" stroke="black" d="M274.07,-288.05C267.55,-279.44 259.5,-268.81 252.32,-259.33"/>
<polygon fill="black" stroke="black" points="255.27,-257.42 246.44,-251.56 249.69,-261.65 255.27,-257.42"/>
</g>
<!-- n9 -->
<g id="node10" class="node">
<title>n9</title>
<ellipse fill="none" stroke="black" cx="340.9" cy="-234" rx="61.59" ry="18"/>
<text text-anchor="middle" x="340.9" y="-228.95" font-family="Times,serif" font-size="14.00">EXPRESION</text>
</g>
<!-- n6&#45;&gt;n9 -->
<g id="edge9" class="edge">
<title>n6&#45;&gt;n9</title>
<path fill="none" stroke="black" d="M299.97,-288.05C306.28,-279.89 313.97,-269.91 320.98,-260.82"/>
<polygon fill="black" stroke="black" points="323.69,-263.04 327.03,-252.99 318.15,-258.77 323.69,-263.04"/>
</g>
<!-- n19 -->
<g id="node20" class="node">
<title>n19</title>
<ellipse fill="none" stroke="black" cx="447.9" cy="-234" rx="27" ry="18"/>
<text text-anchor="middle" x="447.9" y="-228.95" font-family="Times,serif" font-size="14.00">)</text>
</g>
<!-- n6&#45;&gt;n19 -->
<g id="edge19" class="edge">
<title>n6&#45;&gt;n19</title>
<path fill="none" stroke="black" d="M321.55,-290.75C346.73,-280.28 381.57,-265.59 411.9,-252 413.22,-251.41 414.55,-250.81 415.9,-250.19"/>
<polygon fill="black" stroke="black" points="417.29,-253.41 424.89,-246.03 414.35,-247.06 417.29,-253.41"/>
</g>
<!-- n10 -->
<g id="node11" class="node">
<title>n10</title>
<ellipse fill="none" stroke="black" cx="233.9" cy="-162" rx="61.59" ry="18"/>
<text text-anchor="middle" x="233.9" y="-156.95" font-family="Times,serif" font-size="14.00">EXPRESION</text>
</g>
<!-- n9&#45;&gt;n10 -->
<g id="edge10" class="edge">
<title>n9&#45;&gt;n10</title>
<path fill="none" stroke="black" d="M316.62,-217.12C302.12,-207.63 283.49,-195.44 267.58,-185.03"/>
<polygon fill="black" stroke="black" points="269.64,-182.2 259.35,-179.65 265.81,-188.05 269.64,-182.2"/>
</g>
<!-- n16 -->
<g id="node17" class="node">
<title>n16</title>
<ellipse fill="none" stroke="black" cx="340.9" cy="-162" rx="27" ry="18"/>
<text text-anchor="middle" x="340.9" y="-156.95" font-family="Times,serif" font-size="14.00">+</text>
</g>
<!-- n9&#45;&gt;n16 -->
<g id="edge16" class="edge">
<title>n9&#45;&gt;n16</title>
<path fill="none" stroke="black" d="M340.9,-215.7C340.9,-208.41 340.9,-199.73 340.9,-191.54"/>
<polygon fill="black" stroke="black" points="344.4,-191.62 340.9,-181.62 337.4,-191.62 344.4,-191.62"/>
</g>
<!-- n17 -->
<g id="node18" class="node">
<title>n17</title>
<ellipse fill="none" stroke="black" cx="414.9" cy="-162" rx="28.83" ry="18"/>
<text text-anchor="middle" x="414.9" y="-156.95" font-family="Times,serif" font-size="14.00">Dato</text>
</g>
<!-- n9&#45;&gt;n17 -->
<g id="edge17" class="edge">
<title>n9&#45;&gt;n17</title>
<path fill="none" stroke="black" d="M358.44,-216.41C368.29,-207.1 380.71,-195.35 391.39,-185.24"/>
<polygon fill="black" stroke="black" points="393.54,-188.03 398.4,-178.61 388.73,-182.94 393.54,-188.03"/>
</g>
<!-- n11 -->
<g id="node12" class="node">
<title>n11</title>
<ellipse fill="none" stroke="black" cx="159.9" cy="-90" rx="28.83" ry="18"/>
<text text-anchor="middle" x="159.9" y="-84.95" font-family="Times,serif" font-size="14.00">Dato</text>
</g>
<!-- n10&#45;&gt;n11 -->
<g id="edge11" class="edge">
<title>n10&#45;&gt;n11</title>
<path fill="none" stroke="black" d="M216.37,-144.41C206.52,-135.1 194.1,-123.35 183.42,-113.24"/>
<polygon fill="black" stroke="black" points="186.08,-110.94 176.41,-106.61 181.26,-116.03 186.08,-110.94"/>
</g>
<!-- n13 -->
<g id="node14" class="node">
<title>n13</title>
<ellipse fill="none" stroke="black" cx="233.9" cy="-90" rx="27" ry="18"/>
<text text-anchor="middle" x="233.9" y="-84.95" font-family="Times,serif" font-size="14.00">+</text>
</g>
<!-- n10&#45;&gt;n13 -->
<g id="edge13" class="edge">
<title>n10&#45;&gt;n13</title>
<path fill="none" stroke="black" d="M233.9,-143.7C233.9,-136.41 233.9,-127.73 233.9,-119.54"/>
<polygon fill="black" stroke="black" points="237.4,-119.62 233.9,-109.62 230.4,-119.62 237.4,-119.62"/>
</g>
<!-- n14 -->
<g id="node15" class="node">
<title>n14</title>
<ellipse fill="none" stroke="black" cx="307.9" cy="-90" rx="28.83" ry="18"/>
<text text-anchor="middle" x="307.9" y="-84.95" font-family="Times,serif" font-size="14.00">Dato</text>
</g>
<!-- n10&#45;&gt;n14 -->
<g id="edge14" class="edge">
<title>n10&#45;&gt;n14</title>
<path fill="none" stroke="black" d="M251.44,-144.41C261.29,-135.1 273.71,-123.35 284.39,-113.24"/>
<polygon fill="black" stroke="black" points="286.54,-116.03 291.4,-106.61 281.73,-110.94 286.54,-116.03"/>
</g>
<!-- n12 -->
<g id="node13" class="node">
<title>n12</title>
<ellipse fill="none" stroke="black" cx="159.9" cy="-18" rx="27" ry="18"/>
<text text-anchor="middle" x="159.9" y="-12.95" font-family="Times,serif" font-size="14.00">2</text>
</g>
<!-- n11&#45;&gt;n12 -->
<g id="edge12" class="edge">
<title>n11&#45;&gt;n12</title>
<path fill="none" stroke="black" d="M159.9,-71.7C159.9,-64.41 159.9,-55.73 159.9,-47.54"/>
<polygon fill="black" stroke="black" points="163.4,-47.62 159.9,-37.62 156.4,-47.62 163.4,-47.62"/>
</g>
<!-- n15 -->
<g id="node16" class="node">
<title>n15</title>
<ellipse fill="none" stroke="black" cx="307.9" cy="-18" rx="27" ry="18"/>
<text text-anchor="middle" x="307.9" y="-12.95" font-family="Times,serif" font-size="14.00">3</text>
</g>
<!-- n14&#45;&gt;n15 -->
<g id="edge15" class="edge">
<title>n14&#45;&gt;n15</title>
<path fill="none" stroke="black" d="M307.9,-71.7C307.9,-64.41 307.9,-55.73 307.9,-47.54"/>
<polygon fill="black" stroke="black" points="311.4,-47.62 307.9,-37.62 304.4,-47.62 311.4,-47.62"/>
</g>
<!-- n18 -->
<g id="node19" class="node">
<title>n18</title>
<ellipse fill="none" stroke="black" cx="414.9" cy="-90" rx="27" ry="18"/>
<text text-anchor="middle" x="414.9" y="-84.95" font-family="Times,serif" font-size="14.00">2</text>
</g>
<!-- n17&#45;&gt;n18 -->
<g id="edge18" class="edge">
<title>n17&#45;&gt;n18</title>
<path fill="none" stroke="black" d="M414.9,-143.7C414.9,-136.41 414.9,-127.73 414.9,-119.54"/>
<polygon fill="black" stroke="black" points="418.4,-119.62 414.9,-109.62 411.4,-119.62 418.4,-119.62"/>
</g>
<!-- n21 -->
<g id="node22" class="node">
<title>n21</title>
<ellipse fill="none" stroke="black" cx="401.9" cy="-306" rx="35.49" ry="18"/>
<text text-anchor="middle" x="401.9" y="-300.95" font-family="Times,serif" font-size="14.00">println</text>
</g>
<!-- n20&#45;&gt;n21 -->
<g id="edge21" class="edge">
<title>n20&#45;&gt;n21</title>
<path fill="none" stroke="black" d="M507.45,-363.83C487.13,-352.89 458.01,-337.21 435.5,-325.09"/>
<polygon fill="black" stroke="black" points="437.17,-322.01 426.7,-320.35 433.85,-328.18 437.17,-322.01"/>
</g>
<!-- n22 -->
<g id="node23" class="node">
<title>n22</title>
<ellipse fill="none" stroke="black" cx="481.9" cy="-306" rx="27" ry="18"/>
<text text-anchor="middle" x="481.9" y="-300.95" font-family="Times,serif" font-size="14.00">(</text>
</g>
<!-- n20&#45;&gt;n22 -->
<g id="edge22" class="edge">
<title>n20&#45;&gt;n22</title>
<path fill="none" stroke="black" d="M520.31,-360.76C514.16,-352.16 506.48,-341.41 499.61,-331.79"/>
<polygon fill="black" stroke="black" points="502.63,-330 493.97,-323.9 496.94,-334.07 502.63,-330"/>
</g>
<!-- n23 -->
<g id="node24" class="node">
<title>n23</title>
<ellipse fill="none" stroke="black" cx="582.9" cy="-306" rx="56.47" ry="18"/>
<text text-anchor="middle" x="582.9" y="-300.95" font-family="Times,serif" font-size="14.00">VARIABLE</text>
</g>
<!-- n20&#45;&gt;n23 -->
<g id="edge23" class="edge">
<title>n20&#45;&gt;n23</title>
<path fill="none" stroke="black" d="M543.73,-360.76C549.76,-352.49 557.23,-342.23 564.03,-332.9"/>
<polygon fill="black" stroke="black" points="566.83,-335 569.89,-324.86 561.18,-330.88 566.83,-335"/>
</g>
<!-- n25 -->
<g id="node26" class="node">
<title>n25</title>
<ellipse fill="none" stroke="black" cx="683.9" cy="-306" rx="27" ry="18"/>
<text text-anchor="middle" x="683.9" y="-300.95" font-family="Times,serif" font-size="14.00">)</text>
</g>
<!-- n20&#45;&gt;n25 -->
<g id="edge25" class="edge">
<title>n20&#45;&gt;n25</title>
<path fill="none" stroke="black" d="M558.67,-364.89C582.21,-354.2 617.38,-338.18 647.9,-324 649.21,-323.39 650.54,-322.77 651.88,-322.15"/>
<polygon fill="black" stroke="black" points="653.29,-325.35 660.85,-317.94 650.31,-319.02 653.29,-325.35"/>
</g>
<!-- n26 -->
<g id="node27" class="node">
<title>n26</title>
<ellipse fill="none" stroke="black" cx="755.9" cy="-306" rx="27" ry="18"/>
<text text-anchor="middle" x="755.9" y="-300.95" font-family="Times,serif" font-size="14.00">;</text>
</g>
<!-- n20&#45;&gt;n26 -->
<g id="edge26" class="edge">
<title>n20&#45;&gt;n26</title>
<path fill="none" stroke="black" d="M565.38,-369.35C603.4,-360.25 667.02,-343.78 719.9,-324 721.44,-323.42 723,-322.81 724.57,-322.17"/>
<polygon fill="black" stroke="black" points="725.7,-325.5 733.45,-318.27 722.88,-319.09 725.7,-325.5"/>
</g>
<!-- n24 -->
<g id="node25" class="node">
<title>n24</title>
<ellipse fill="none" stroke="black" cx="582.9" cy="-234" rx="27" ry="18"/>
<text text-anchor="middle" x="582.9" y="-228.95" font-family="Times,serif" font-size="14.00">var</text>
</g>
<!-- n23&#45;&gt;n24 -->
<g id="edge24" class="edge">
<title>n23&#45;&gt;n24</title>
<path fill="none" stroke="black" d="M582.9,-287.7C582.9,-280.41 582.9,-271.73 582.9,-263.54"/>
<polygon fill="black" stroke="black" points="586.4,-263.62 582.9,-253.62 579.4,-263.62 586.4,-263.62"/>
</g>
</g>
</svg>
